%TF.GenerationSoftware,KiCad,Pcbnew,9.0.7*%
%TF.CreationDate,2026-03-12T09:45:38-05:00*%
%TF.ProjectId,Heterodyne_Board,48657465-726f-4647-996e-655f426f6172,rev?*%
%TF.SameCoordinates,Original*%
%TF.FileFunction,Soldermask,Bot*%
%TF.FilePolarity,Negative*%
%FSLAX46Y46*%
G04 Gerber Fmt 4.6, Leading zero omitted, Abs format (unit mm)*
G04 Created by KiCad (PCBNEW 9.0.7) date 2026-03-12 09:45:38*
%MOMM*%
%LPD*%
G01*
G04 APERTURE LIST*
G04 Aperture macros list*
%AMRoundRect*
0 Rectangle with rounded corners*
0 $1 Rounding radius*
0 $2 $3 $4 $5 $6 $7 $8 $9 X,Y pos of 4 corners*
0 Add a 4 corners polygon primitive as box body*
4,1,4,$2,$3,$4,$5,$6,$7,$8,$9,$2,$3,0*
0 Add four circle primitives for the rounded corners*
1,1,$1+$1,$2,$3*
1,1,$1+$1,$4,$5*
1,1,$1+$1,$6,$7*
1,1,$1+$1,$8,$9*
0 Add four rect primitives between the rounded corners*
20,1,$1+$1,$2,$3,$4,$5,0*
20,1,$1+$1,$4,$5,$6,$7,0*
20,1,$1+$1,$6,$7,$8,$9,0*
20,1,$1+$1,$8,$9,$2,$3,0*%
G04 Aperture macros list end*
%ADD10C,3.200000*%
%ADD11RoundRect,0.250000X0.600000X0.600000X-0.600000X0.600000X-0.600000X-0.600000X0.600000X-0.600000X0*%
%ADD12C,1.700000*%
%ADD13C,2.000000*%
%ADD14RoundRect,0.250000X-0.620000X-0.845000X0.620000X-0.845000X0.620000X0.845000X-0.620000X0.845000X0*%
%ADD15O,1.740000X2.190000*%
%ADD16RoundRect,0.250000X0.620000X0.845000X-0.620000X0.845000X-0.620000X-0.845000X0.620000X-0.845000X0*%
%ADD17C,1.800000*%
%ADD18C,4.400000*%
%ADD19C,1.600000*%
%ADD20R,3.500000X3.500000*%
%ADD21RoundRect,0.750000X0.750000X1.000000X-0.750000X1.000000X-0.750000X-1.000000X0.750000X-1.000000X0*%
%ADD22RoundRect,0.875000X0.875000X0.875000X-0.875000X0.875000X-0.875000X-0.875000X0.875000X-0.875000X0*%
%ADD23RoundRect,0.250000X-0.600000X0.600000X-0.600000X-0.600000X0.600000X-0.600000X0.600000X0.600000X0*%
%ADD24RoundRect,0.250000X-0.550000X-0.550000X0.550000X-0.550000X0.550000X0.550000X-0.550000X0.550000X0*%
%ADD25C,1.200000*%
%ADD26O,1.200000X2.200000*%
%ADD27O,1.600000X2.300000*%
%ADD28O,2.200000X1.200000*%
%ADD29O,1.600000X2.500000*%
G04 APERTURE END LIST*
D10*
%TO.C,H1*%
X143383000Y-64643000D03*
%TD*%
%TO.C,H3*%
X143510000Y-125349000D03*
%TD*%
D11*
%TO.C,J7*%
X165827000Y-75029658D03*
D12*
X163287000Y-75029658D03*
X165827000Y-72489658D03*
X163287000Y-72489658D03*
X165827000Y-69949658D03*
X163287000Y-69949658D03*
%TD*%
D13*
%TO.C,SW2*%
X178579000Y-63000658D03*
X185079000Y-63000658D03*
X178579000Y-67500658D03*
X185079000Y-67500658D03*
%TD*%
D14*
%TO.C,J2*%
X188434000Y-111631658D03*
D15*
X190974000Y-111631658D03*
%TD*%
D16*
%TO.C,J3*%
X183749000Y-103395658D03*
D15*
X181209000Y-103395658D03*
%TD*%
D17*
%TO.C,RV1*%
X161082000Y-117741658D03*
X161082000Y-120241658D03*
X161082000Y-122741658D03*
D18*
X154082000Y-124641658D03*
X154082000Y-115841658D03*
%TD*%
D17*
%TO.C,RV3*%
X160828000Y-101993658D03*
X160828000Y-104493658D03*
X160828000Y-106993658D03*
D18*
X153828000Y-108893658D03*
X153828000Y-100093658D03*
%TD*%
D10*
%TO.C,H2*%
X204597000Y-65024000D03*
%TD*%
D19*
%TO.C,C7*%
X179543000Y-126317658D03*
X179543000Y-123817658D03*
%TD*%
D20*
%TO.C,J1*%
X200721000Y-104620658D03*
D21*
X206721000Y-104620658D03*
D22*
X203721000Y-99920658D03*
%TD*%
D23*
%TO.C,J8*%
X201641000Y-90015658D03*
D12*
X201641000Y-92555658D03*
X199101000Y-90015658D03*
X199101000Y-92555658D03*
X196561000Y-90015658D03*
X196561000Y-92555658D03*
%TD*%
D24*
%TO.C,U2*%
X165629000Y-115085658D03*
D19*
X165629000Y-117625658D03*
X165629000Y-120165658D03*
X165629000Y-122705658D03*
X173249000Y-122705658D03*
X173249000Y-120165658D03*
X173249000Y-117625658D03*
X173249000Y-115085658D03*
%TD*%
D16*
%TO.C,J6*%
X153889000Y-69187658D03*
D15*
X151349000Y-69187658D03*
X148809000Y-69187658D03*
%TD*%
D24*
%TO.C,U4*%
X177748500Y-75537658D03*
D19*
X177748500Y-78077658D03*
X177748500Y-80617658D03*
X177748500Y-83157658D03*
X185368500Y-83157658D03*
X185368500Y-80617658D03*
X185368500Y-78077658D03*
X185368500Y-75537658D03*
%TD*%
D13*
%TO.C,SW1*%
X189882000Y-63127658D03*
X196382000Y-63127658D03*
X189882000Y-67627658D03*
X196382000Y-67627658D03*
%TD*%
D25*
%TO.C,J4*%
X185434000Y-125345658D03*
X185434000Y-127845658D03*
X190434000Y-120345658D03*
X195434000Y-125345658D03*
X195434000Y-127845658D03*
D26*
X185434000Y-120345658D03*
D27*
X187934000Y-120345658D03*
D28*
X190434000Y-125345658D03*
D26*
X195434000Y-120345658D03*
D29*
X192934000Y-120345658D03*
%TD*%
D10*
%TO.C,H4*%
X204724000Y-125603000D03*
%TD*%
D14*
%TO.C,J5*%
X173659000Y-105415658D03*
D15*
X176199000Y-105415658D03*
%TD*%
M02*
