%TF.GenerationSoftware,KiCad,Pcbnew,9.0.7*%
%TF.CreationDate,2026-03-12T09:45:38-05:00*%
%TF.ProjectId,Heterodyne_Board,48657465-726f-4647-996e-655f426f6172,rev?*%
%TF.SameCoordinates,Original*%
%TF.FileFunction,Soldermask,Top*%
%TF.FilePolarity,Negative*%
%FSLAX46Y46*%
G04 Gerber Fmt 4.6, Leading zero omitted, Abs format (unit mm)*
G04 Created by KiCad (PCBNEW 9.0.7) date 2026-03-12 09:45:38*
%MOMM*%
%LPD*%
G01*
G04 APERTURE LIST*
G04 Aperture macros list*
%AMRoundRect*
0 Rectangle with rounded corners*
0 $1 Rounding radius*
0 $2 $3 $4 $5 $6 $7 $8 $9 X,Y pos of 4 corners*
0 Add a 4 corners polygon primitive as box body*
4,1,4,$2,$3,$4,$5,$6,$7,$8,$9,$2,$3,0*
0 Add four circle primitives for the rounded corners*
1,1,$1+$1,$2,$3*
1,1,$1+$1,$4,$5*
1,1,$1+$1,$6,$7*
1,1,$1+$1,$8,$9*
0 Add four rect primitives between the rounded corners*
20,1,$1+$1,$2,$3,$4,$5,0*
20,1,$1+$1,$4,$5,$6,$7,0*
20,1,$1+$1,$6,$7,$8,$9,0*
20,1,$1+$1,$8,$9,$2,$3,0*%
G04 Aperture macros list end*
%ADD10C,3.200000*%
%ADD11RoundRect,0.150000X-0.825000X-0.150000X0.825000X-0.150000X0.825000X0.150000X-0.825000X0.150000X0*%
%ADD12RoundRect,0.250000X0.600000X0.600000X-0.600000X0.600000X-0.600000X-0.600000X0.600000X-0.600000X0*%
%ADD13C,1.700000*%
%ADD14RoundRect,0.250000X0.450000X-0.350000X0.450000X0.350000X-0.450000X0.350000X-0.450000X-0.350000X0*%
%ADD15RoundRect,0.250000X-0.450000X0.350000X-0.450000X-0.350000X0.450000X-0.350000X0.450000X0.350000X0*%
%ADD16R,1.200000X1.200000*%
%ADD17R,1.500000X1.600000*%
%ADD18RoundRect,0.225000X-0.375000X0.225000X-0.375000X-0.225000X0.375000X-0.225000X0.375000X0.225000X0*%
%ADD19RoundRect,0.225000X0.375000X-0.225000X0.375000X0.225000X-0.375000X0.225000X-0.375000X-0.225000X0*%
%ADD20C,2.000000*%
%ADD21RoundRect,0.250000X-0.350000X-0.450000X0.350000X-0.450000X0.350000X0.450000X-0.350000X0.450000X0*%
%ADD22R,1.000000X1.000000*%
%ADD23RoundRect,0.250000X-0.475000X0.337500X-0.475000X-0.337500X0.475000X-0.337500X0.475000X0.337500X0*%
%ADD24RoundRect,0.250000X-0.620000X-0.845000X0.620000X-0.845000X0.620000X0.845000X-0.620000X0.845000X0*%
%ADD25O,1.740000X2.190000*%
%ADD26RoundRect,0.250000X0.337500X0.475000X-0.337500X0.475000X-0.337500X-0.475000X0.337500X-0.475000X0*%
%ADD27RoundRect,0.250000X0.620000X0.845000X-0.620000X0.845000X-0.620000X-0.845000X0.620000X-0.845000X0*%
%ADD28C,1.800000*%
%ADD29C,4.400000*%
%ADD30RoundRect,0.100000X-0.562500X-0.100000X0.562500X-0.100000X0.562500X0.100000X-0.562500X0.100000X0*%
%ADD31RoundRect,0.250000X-0.337500X-0.475000X0.337500X-0.475000X0.337500X0.475000X-0.337500X0.475000X0*%
%ADD32C,1.600000*%
%ADD33RoundRect,0.250000X0.350000X0.450000X-0.350000X0.450000X-0.350000X-0.450000X0.350000X-0.450000X0*%
%ADD34R,3.500000X3.500000*%
%ADD35RoundRect,0.750000X0.750000X1.000000X-0.750000X1.000000X-0.750000X-1.000000X0.750000X-1.000000X0*%
%ADD36RoundRect,0.875000X0.875000X0.875000X-0.875000X0.875000X-0.875000X-0.875000X0.875000X-0.875000X0*%
%ADD37RoundRect,0.250000X-0.600000X0.600000X-0.600000X-0.600000X0.600000X-0.600000X0.600000X0.600000X0*%
%ADD38RoundRect,0.250000X-0.550000X-0.550000X0.550000X-0.550000X0.550000X0.550000X-0.550000X0.550000X0*%
%ADD39RoundRect,0.150000X-0.150000X0.512500X-0.150000X-0.512500X0.150000X-0.512500X0.150000X0.512500X0*%
%ADD40RoundRect,0.250000X0.475000X-0.337500X0.475000X0.337500X-0.475000X0.337500X-0.475000X-0.337500X0*%
%ADD41C,1.200000*%
%ADD42O,1.200000X2.200000*%
%ADD43O,1.600000X2.300000*%
%ADD44O,2.200000X1.200000*%
%ADD45O,1.600000X2.500000*%
G04 APERTURE END LIST*
D10*
%TO.C,H1*%
X143383000Y-64643000D03*
%TD*%
D11*
%TO.C,U6*%
X188752000Y-79220658D03*
X188752000Y-80490658D03*
X188752000Y-81760658D03*
X188752000Y-83030658D03*
X193702000Y-83030658D03*
X193702000Y-81760658D03*
X193702000Y-80490658D03*
X193702000Y-79220658D03*
%TD*%
D10*
%TO.C,H3*%
X143510000Y-125349000D03*
%TD*%
D12*
%TO.C,J7*%
X165827000Y-75029658D03*
D13*
X163287000Y-75029658D03*
X165827000Y-72489658D03*
X163287000Y-72489658D03*
X165827000Y-69949658D03*
X163287000Y-69949658D03*
%TD*%
D14*
%TO.C,R6*%
X182012000Y-93809658D03*
X182012000Y-91809658D03*
%TD*%
D15*
%TO.C,R11*%
X147433500Y-87491658D03*
X147433500Y-89491658D03*
%TD*%
D16*
%TO.C,RV2*%
X165297000Y-105017658D03*
D17*
X168547000Y-106017658D03*
D16*
X165297000Y-107017658D03*
%TD*%
D18*
%TO.C,D1*%
X194474000Y-107981658D03*
X194474000Y-111281658D03*
%TD*%
D19*
%TO.C,D3*%
X171288000Y-82775658D03*
X171288000Y-79475658D03*
%TD*%
D20*
%TO.C,SW2*%
X178579000Y-63000658D03*
X185079000Y-63000658D03*
X178579000Y-67500658D03*
X185079000Y-67500658D03*
%TD*%
D21*
%TO.C,R12*%
X148846500Y-92809658D03*
X150846500Y-92809658D03*
%TD*%
%TO.C,R9*%
X151746000Y-77569658D03*
X153746000Y-77569658D03*
%TD*%
D22*
%TO.C,TP2*%
X190338000Y-106779658D03*
%TD*%
D15*
%TO.C,R15*%
X192729500Y-74013658D03*
X192729500Y-76013658D03*
%TD*%
D23*
%TO.C,C2*%
X176434000Y-114858158D03*
X176434000Y-116933158D03*
%TD*%
D24*
%TO.C,J2*%
X188434000Y-111631658D03*
D25*
X190974000Y-111631658D03*
%TD*%
D15*
%TO.C,R4*%
X181474000Y-108395658D03*
X181474000Y-110395658D03*
%TD*%
D26*
%TO.C,C4*%
X171055500Y-110335658D03*
X168980500Y-110335658D03*
%TD*%
D27*
%TO.C,J3*%
X183749000Y-103395658D03*
D25*
X181209000Y-103395658D03*
%TD*%
D28*
%TO.C,RV1*%
X161082000Y-117741658D03*
X161082000Y-120241658D03*
X161082000Y-122741658D03*
D29*
X154082000Y-124641658D03*
X154082000Y-115841658D03*
%TD*%
D23*
%TO.C,C13*%
X174336000Y-76786158D03*
X174336000Y-78861158D03*
%TD*%
D28*
%TO.C,RV3*%
X160828000Y-101993658D03*
X160828000Y-104493658D03*
X160828000Y-106993658D03*
D29*
X153828000Y-108893658D03*
X153828000Y-100093658D03*
%TD*%
D21*
%TO.C,R3*%
X174012000Y-98309658D03*
X176012000Y-98309658D03*
%TD*%
D30*
%TO.C,U5*%
X184243500Y-96858658D03*
X184243500Y-97508658D03*
X184243500Y-98158658D03*
X186018500Y-98158658D03*
X186018500Y-97508658D03*
X186018500Y-96858658D03*
%TD*%
D10*
%TO.C,H2*%
X204597000Y-65024000D03*
%TD*%
D26*
%TO.C,C10*%
X197471500Y-76553658D03*
X195396500Y-76553658D03*
%TD*%
D31*
%TO.C,C6*%
X171396500Y-126395658D03*
X173471500Y-126395658D03*
%TD*%
D32*
%TO.C,C7*%
X179543000Y-126317658D03*
X179543000Y-123817658D03*
%TD*%
D33*
%TO.C,R5*%
X168434000Y-126395658D03*
X166434000Y-126395658D03*
%TD*%
D15*
%TO.C,R8*%
X197323000Y-79998658D03*
X197323000Y-81998658D03*
%TD*%
D31*
%TO.C,C14*%
X176473500Y-71346658D03*
X178548500Y-71346658D03*
%TD*%
D22*
%TO.C,TP4*%
X157191000Y-78966658D03*
%TD*%
D34*
%TO.C,J1*%
X200721000Y-104620658D03*
D35*
X206721000Y-104620658D03*
D36*
X203721000Y-99920658D03*
%TD*%
D37*
%TO.C,J8*%
X201641000Y-90015658D03*
D13*
X201641000Y-92555658D03*
X199101000Y-90015658D03*
X199101000Y-92555658D03*
X196561000Y-90015658D03*
X196561000Y-92555658D03*
%TD*%
D21*
%TO.C,R17*%
X181464000Y-71346658D03*
X183464000Y-71346658D03*
%TD*%
D38*
%TO.C,U2*%
X165629000Y-115085658D03*
D32*
X165629000Y-117625658D03*
X165629000Y-120165658D03*
X165629000Y-122705658D03*
X173249000Y-122705658D03*
X173249000Y-120165658D03*
X173249000Y-117625658D03*
X173249000Y-115085658D03*
%TD*%
D23*
%TO.C,C12*%
X149571000Y-83263158D03*
X149571000Y-85338158D03*
%TD*%
D27*
%TO.C,J6*%
X153889000Y-69187658D03*
D25*
X151349000Y-69187658D03*
X148809000Y-69187658D03*
%TD*%
D23*
%TO.C,C9*%
X148428000Y-74754158D03*
X148428000Y-76829158D03*
%TD*%
%TO.C,C3*%
X184974000Y-108358158D03*
X184974000Y-110433158D03*
%TD*%
D22*
%TO.C,TP3*%
X170526000Y-90142658D03*
%TD*%
D23*
%TO.C,C11*%
X151624500Y-87475658D03*
X151624500Y-89550658D03*
%TD*%
D38*
%TO.C,U4*%
X177748500Y-75537658D03*
D32*
X177748500Y-78077658D03*
X177748500Y-80617658D03*
X177748500Y-83157658D03*
X185368500Y-83157658D03*
X185368500Y-80617658D03*
X185368500Y-78077658D03*
X185368500Y-75537658D03*
%TD*%
D39*
%TO.C,U1*%
X188424000Y-103295658D03*
X187474000Y-103295658D03*
X186524000Y-103295658D03*
X186524000Y-105570658D03*
X188424000Y-105570658D03*
%TD*%
D15*
%TO.C,R13*%
X154270000Y-91809658D03*
X154270000Y-93809658D03*
%TD*%
D23*
%TO.C,C8*%
X189068000Y-72976158D03*
X189068000Y-75051158D03*
%TD*%
D40*
%TO.C,C1*%
X191474000Y-104470658D03*
X191474000Y-102395658D03*
%TD*%
D11*
%TO.C,U3*%
X158145000Y-84554658D03*
X158145000Y-85824658D03*
X158145000Y-87094658D03*
X158145000Y-88364658D03*
X158145000Y-89634658D03*
X158145000Y-90904658D03*
X158145000Y-92174658D03*
X163095000Y-92174658D03*
X163095000Y-90904658D03*
X163095000Y-89634658D03*
X163095000Y-88364658D03*
X163095000Y-87094658D03*
X163095000Y-85824658D03*
X163095000Y-84554658D03*
%TD*%
D15*
%TO.C,R16*%
X172939000Y-70473658D03*
X172939000Y-72473658D03*
%TD*%
D19*
%TO.C,D4*%
X197323000Y-100809658D03*
X197323000Y-97509658D03*
%TD*%
D33*
%TO.C,R7*%
X179012000Y-89309658D03*
X177012000Y-89309658D03*
%TD*%
D20*
%TO.C,SW1*%
X189882000Y-63127658D03*
X196382000Y-63127658D03*
X189882000Y-67627658D03*
X196382000Y-67627658D03*
%TD*%
D41*
%TO.C,J4*%
X185434000Y-125345658D03*
X185434000Y-127845658D03*
X190434000Y-120345658D03*
X195434000Y-125345658D03*
X195434000Y-127845658D03*
D42*
X185434000Y-120345658D03*
D43*
X187934000Y-120345658D03*
D44*
X190434000Y-125345658D03*
D42*
X195434000Y-120345658D03*
D45*
X192934000Y-120345658D03*
%TD*%
D21*
%TO.C,R14*%
X193402000Y-71473658D03*
X195402000Y-71473658D03*
%TD*%
D18*
%TO.C,D2*%
X174012000Y-91659658D03*
X174012000Y-94959658D03*
%TD*%
D10*
%TO.C,H4*%
X204724000Y-125603000D03*
%TD*%
D24*
%TO.C,J5*%
X173659000Y-105415658D03*
D25*
X176199000Y-105415658D03*
%TD*%
D22*
%TO.C,TP1*%
X194402000Y-104493658D03*
%TD*%
D21*
%TO.C,R1*%
X168764000Y-100556658D03*
X170764000Y-100556658D03*
%TD*%
D40*
%TO.C,C5*%
X178012000Y-95847158D03*
X178012000Y-93772158D03*
%TD*%
D22*
%TO.C,TP5*%
X170145000Y-98143658D03*
%TD*%
D21*
%TO.C,R10*%
X151746000Y-80998658D03*
X153746000Y-80998658D03*
%TD*%
%TO.C,R2*%
X169012000Y-94809658D03*
X171012000Y-94809658D03*
%TD*%
M02*
