%TF.GenerationSoftware,KiCad,Pcbnew,9.0.7*%
%TF.CreationDate,2026-03-12T09:45:38-05:00*%
%TF.ProjectId,Heterodyne_Board,48657465-726f-4647-996e-655f426f6172,rev?*%
%TF.SameCoordinates,Original*%
%TF.FileFunction,Paste,Top*%
%TF.FilePolarity,Positive*%
%FSLAX46Y46*%
G04 Gerber Fmt 4.6, Leading zero omitted, Abs format (unit mm)*
G04 Created by KiCad (PCBNEW 9.0.7) date 2026-03-12 09:45:38*
%MOMM*%
%LPD*%
G01*
G04 APERTURE LIST*
G04 Aperture macros list*
%AMRoundRect*
0 Rectangle with rounded corners*
0 $1 Rounding radius*
0 $2 $3 $4 $5 $6 $7 $8 $9 X,Y pos of 4 corners*
0 Add a 4 corners polygon primitive as box body*
4,1,4,$2,$3,$4,$5,$6,$7,$8,$9,$2,$3,0*
0 Add four circle primitives for the rounded corners*
1,1,$1+$1,$2,$3*
1,1,$1+$1,$4,$5*
1,1,$1+$1,$6,$7*
1,1,$1+$1,$8,$9*
0 Add four rect primitives between the rounded corners*
20,1,$1+$1,$2,$3,$4,$5,0*
20,1,$1+$1,$4,$5,$6,$7,0*
20,1,$1+$1,$6,$7,$8,$9,0*
20,1,$1+$1,$8,$9,$2,$3,0*%
G04 Aperture macros list end*
%ADD10RoundRect,0.150000X-0.825000X-0.150000X0.825000X-0.150000X0.825000X0.150000X-0.825000X0.150000X0*%
%ADD11RoundRect,0.250000X0.450000X-0.350000X0.450000X0.350000X-0.450000X0.350000X-0.450000X-0.350000X0*%
%ADD12RoundRect,0.250000X-0.450000X0.350000X-0.450000X-0.350000X0.450000X-0.350000X0.450000X0.350000X0*%
%ADD13R,1.200000X1.200000*%
%ADD14R,1.500000X1.600000*%
%ADD15RoundRect,0.225000X-0.375000X0.225000X-0.375000X-0.225000X0.375000X-0.225000X0.375000X0.225000X0*%
%ADD16RoundRect,0.225000X0.375000X-0.225000X0.375000X0.225000X-0.375000X0.225000X-0.375000X-0.225000X0*%
%ADD17RoundRect,0.250000X-0.350000X-0.450000X0.350000X-0.450000X0.350000X0.450000X-0.350000X0.450000X0*%
%ADD18RoundRect,0.250000X-0.475000X0.337500X-0.475000X-0.337500X0.475000X-0.337500X0.475000X0.337500X0*%
%ADD19RoundRect,0.250000X0.337500X0.475000X-0.337500X0.475000X-0.337500X-0.475000X0.337500X-0.475000X0*%
%ADD20RoundRect,0.100000X-0.562500X-0.100000X0.562500X-0.100000X0.562500X0.100000X-0.562500X0.100000X0*%
%ADD21RoundRect,0.250000X-0.337500X-0.475000X0.337500X-0.475000X0.337500X0.475000X-0.337500X0.475000X0*%
%ADD22RoundRect,0.250000X0.350000X0.450000X-0.350000X0.450000X-0.350000X-0.450000X0.350000X-0.450000X0*%
%ADD23RoundRect,0.150000X-0.150000X0.512500X-0.150000X-0.512500X0.150000X-0.512500X0.150000X0.512500X0*%
%ADD24RoundRect,0.250000X0.475000X-0.337500X0.475000X0.337500X-0.475000X0.337500X-0.475000X-0.337500X0*%
G04 APERTURE END LIST*
D10*
%TO.C,U6*%
X188752000Y-79220658D03*
X188752000Y-80490658D03*
X188752000Y-81760658D03*
X188752000Y-83030658D03*
X193702000Y-83030658D03*
X193702000Y-81760658D03*
X193702000Y-80490658D03*
X193702000Y-79220658D03*
%TD*%
D11*
%TO.C,R6*%
X182012000Y-93809658D03*
X182012000Y-91809658D03*
%TD*%
D12*
%TO.C,R11*%
X147433500Y-87491658D03*
X147433500Y-89491658D03*
%TD*%
D13*
%TO.C,RV2*%
X165297000Y-105017658D03*
D14*
X168547000Y-106017658D03*
D13*
X165297000Y-107017658D03*
%TD*%
D15*
%TO.C,D1*%
X194474000Y-107981658D03*
X194474000Y-111281658D03*
%TD*%
D16*
%TO.C,D3*%
X171288000Y-82775658D03*
X171288000Y-79475658D03*
%TD*%
D17*
%TO.C,R12*%
X148846500Y-92809658D03*
X150846500Y-92809658D03*
%TD*%
%TO.C,R9*%
X151746000Y-77569658D03*
X153746000Y-77569658D03*
%TD*%
D12*
%TO.C,R15*%
X192729500Y-74013658D03*
X192729500Y-76013658D03*
%TD*%
D18*
%TO.C,C2*%
X176434000Y-114858158D03*
X176434000Y-116933158D03*
%TD*%
D12*
%TO.C,R4*%
X181474000Y-108395658D03*
X181474000Y-110395658D03*
%TD*%
D19*
%TO.C,C4*%
X171055500Y-110335658D03*
X168980500Y-110335658D03*
%TD*%
D18*
%TO.C,C13*%
X174336000Y-76786158D03*
X174336000Y-78861158D03*
%TD*%
D17*
%TO.C,R3*%
X174012000Y-98309658D03*
X176012000Y-98309658D03*
%TD*%
D20*
%TO.C,U5*%
X184243500Y-96858658D03*
X184243500Y-97508658D03*
X184243500Y-98158658D03*
X186018500Y-98158658D03*
X186018500Y-97508658D03*
X186018500Y-96858658D03*
%TD*%
D19*
%TO.C,C10*%
X197471500Y-76553658D03*
X195396500Y-76553658D03*
%TD*%
D21*
%TO.C,C6*%
X171396500Y-126395658D03*
X173471500Y-126395658D03*
%TD*%
D22*
%TO.C,R5*%
X168434000Y-126395658D03*
X166434000Y-126395658D03*
%TD*%
D12*
%TO.C,R8*%
X197323000Y-79998658D03*
X197323000Y-81998658D03*
%TD*%
D21*
%TO.C,C14*%
X176473500Y-71346658D03*
X178548500Y-71346658D03*
%TD*%
D17*
%TO.C,R17*%
X181464000Y-71346658D03*
X183464000Y-71346658D03*
%TD*%
D18*
%TO.C,C12*%
X149571000Y-83263158D03*
X149571000Y-85338158D03*
%TD*%
%TO.C,C9*%
X148428000Y-74754158D03*
X148428000Y-76829158D03*
%TD*%
%TO.C,C3*%
X184974000Y-108358158D03*
X184974000Y-110433158D03*
%TD*%
%TO.C,C11*%
X151624500Y-87475658D03*
X151624500Y-89550658D03*
%TD*%
D23*
%TO.C,U1*%
X188424000Y-103295658D03*
X187474000Y-103295658D03*
X186524000Y-103295658D03*
X186524000Y-105570658D03*
X188424000Y-105570658D03*
%TD*%
D12*
%TO.C,R13*%
X154270000Y-91809658D03*
X154270000Y-93809658D03*
%TD*%
D18*
%TO.C,C8*%
X189068000Y-72976158D03*
X189068000Y-75051158D03*
%TD*%
D24*
%TO.C,C1*%
X191474000Y-104470658D03*
X191474000Y-102395658D03*
%TD*%
D10*
%TO.C,U3*%
X158145000Y-84554658D03*
X158145000Y-85824658D03*
X158145000Y-87094658D03*
X158145000Y-88364658D03*
X158145000Y-89634658D03*
X158145000Y-90904658D03*
X158145000Y-92174658D03*
X163095000Y-92174658D03*
X163095000Y-90904658D03*
X163095000Y-89634658D03*
X163095000Y-88364658D03*
X163095000Y-87094658D03*
X163095000Y-85824658D03*
X163095000Y-84554658D03*
%TD*%
D12*
%TO.C,R16*%
X172939000Y-70473658D03*
X172939000Y-72473658D03*
%TD*%
D16*
%TO.C,D4*%
X197323000Y-100809658D03*
X197323000Y-97509658D03*
%TD*%
D22*
%TO.C,R7*%
X179012000Y-89309658D03*
X177012000Y-89309658D03*
%TD*%
D17*
%TO.C,R14*%
X193402000Y-71473658D03*
X195402000Y-71473658D03*
%TD*%
D15*
%TO.C,D2*%
X174012000Y-91659658D03*
X174012000Y-94959658D03*
%TD*%
D17*
%TO.C,R1*%
X168764000Y-100556658D03*
X170764000Y-100556658D03*
%TD*%
D24*
%TO.C,C5*%
X178012000Y-95847158D03*
X178012000Y-93772158D03*
%TD*%
D17*
%TO.C,R10*%
X151746000Y-80998658D03*
X153746000Y-80998658D03*
%TD*%
%TO.C,R2*%
X169012000Y-94809658D03*
X171012000Y-94809658D03*
%TD*%
M02*
