%TF.GenerationSoftware,KiCad,Pcbnew,9.0.7*%
%TF.CreationDate,2026-03-12T09:45:38-05:00*%
%TF.ProjectId,Heterodyne_Board,48657465-726f-4647-996e-655f426f6172,rev?*%
%TF.SameCoordinates,Original*%
%TF.FileFunction,Legend,Top*%
%TF.FilePolarity,Positive*%
%FSLAX46Y46*%
G04 Gerber Fmt 4.6, Leading zero omitted, Abs format (unit mm)*
G04 Created by KiCad (PCBNEW 9.0.7) date 2026-03-12 09:45:38*
%MOMM*%
%LPD*%
G01*
G04 APERTURE LIST*
%ADD10C,0.152400*%
%ADD11C,0.150000*%
%ADD12C,0.120000*%
G04 APERTURE END LIST*
D10*
X161160453Y-64262783D02*
X161112072Y-64214402D01*
X161112072Y-64214402D02*
X161015310Y-64069259D01*
X161015310Y-64069259D02*
X160966929Y-63972497D01*
X160966929Y-63972497D02*
X160918548Y-63827355D01*
X160918548Y-63827355D02*
X160870167Y-63585450D01*
X160870167Y-63585450D02*
X160870167Y-63391926D01*
X160870167Y-63391926D02*
X160918548Y-63150021D01*
X160918548Y-63150021D02*
X160966929Y-63004878D01*
X160966929Y-63004878D02*
X161015310Y-62908116D01*
X161015310Y-62908116D02*
X161112072Y-62762974D01*
X161112072Y-62762974D02*
X161160453Y-62714593D01*
X161547500Y-63875735D02*
X161547500Y-62859735D01*
X161547500Y-62859735D02*
X161886167Y-63585450D01*
X161886167Y-63585450D02*
X162224834Y-62859735D01*
X162224834Y-62859735D02*
X162224834Y-63875735D01*
X163289215Y-63778974D02*
X163240834Y-63827355D01*
X163240834Y-63827355D02*
X163095691Y-63875735D01*
X163095691Y-63875735D02*
X162998929Y-63875735D01*
X162998929Y-63875735D02*
X162853786Y-63827355D01*
X162853786Y-63827355D02*
X162757024Y-63730593D01*
X162757024Y-63730593D02*
X162708643Y-63633831D01*
X162708643Y-63633831D02*
X162660262Y-63440307D01*
X162660262Y-63440307D02*
X162660262Y-63295164D01*
X162660262Y-63295164D02*
X162708643Y-63101640D01*
X162708643Y-63101640D02*
X162757024Y-63004878D01*
X162757024Y-63004878D02*
X162853786Y-62908116D01*
X162853786Y-62908116D02*
X162998929Y-62859735D01*
X162998929Y-62859735D02*
X163095691Y-62859735D01*
X163095691Y-62859735D02*
X163240834Y-62908116D01*
X163240834Y-62908116D02*
X163289215Y-62956497D01*
X163724643Y-62859735D02*
X163724643Y-63682212D01*
X163724643Y-63682212D02*
X163773024Y-63778974D01*
X163773024Y-63778974D02*
X163821405Y-63827355D01*
X163821405Y-63827355D02*
X163918167Y-63875735D01*
X163918167Y-63875735D02*
X164111691Y-63875735D01*
X164111691Y-63875735D02*
X164208453Y-63827355D01*
X164208453Y-63827355D02*
X164256834Y-63778974D01*
X164256834Y-63778974D02*
X164305215Y-63682212D01*
X164305215Y-63682212D02*
X164305215Y-62859735D01*
X164692262Y-64262783D02*
X164740643Y-64214402D01*
X164740643Y-64214402D02*
X164837405Y-64069259D01*
X164837405Y-64069259D02*
X164885786Y-63972497D01*
X164885786Y-63972497D02*
X164934167Y-63827355D01*
X164934167Y-63827355D02*
X164982548Y-63585450D01*
X164982548Y-63585450D02*
X164982548Y-63391926D01*
X164982548Y-63391926D02*
X164934167Y-63150021D01*
X164934167Y-63150021D02*
X164885786Y-63004878D01*
X164885786Y-63004878D02*
X164837405Y-62908116D01*
X164837405Y-62908116D02*
X164740643Y-62762974D01*
X164740643Y-62762974D02*
X164692262Y-62714593D01*
X203197453Y-86106783D02*
X203149072Y-86058402D01*
X203149072Y-86058402D02*
X203052310Y-85913259D01*
X203052310Y-85913259D02*
X203003929Y-85816497D01*
X203003929Y-85816497D02*
X202955548Y-85671355D01*
X202955548Y-85671355D02*
X202907167Y-85429450D01*
X202907167Y-85429450D02*
X202907167Y-85235926D01*
X202907167Y-85235926D02*
X202955548Y-84994021D01*
X202955548Y-84994021D02*
X203003929Y-84848878D01*
X203003929Y-84848878D02*
X203052310Y-84752116D01*
X203052310Y-84752116D02*
X203149072Y-84606974D01*
X203149072Y-84606974D02*
X203197453Y-84558593D01*
X203923167Y-85187545D02*
X203584500Y-85187545D01*
X203584500Y-85719735D02*
X203584500Y-84703735D01*
X203584500Y-84703735D02*
X204068310Y-84703735D01*
X204939167Y-85719735D02*
X204455357Y-85719735D01*
X204455357Y-85719735D02*
X204455357Y-84703735D01*
X205229452Y-85429450D02*
X205713262Y-85429450D01*
X205132690Y-85719735D02*
X205471357Y-84703735D01*
X205471357Y-84703735D02*
X205810024Y-85719735D01*
X206100309Y-85671355D02*
X206245452Y-85719735D01*
X206245452Y-85719735D02*
X206487357Y-85719735D01*
X206487357Y-85719735D02*
X206584119Y-85671355D01*
X206584119Y-85671355D02*
X206632500Y-85622974D01*
X206632500Y-85622974D02*
X206680881Y-85526212D01*
X206680881Y-85526212D02*
X206680881Y-85429450D01*
X206680881Y-85429450D02*
X206632500Y-85332688D01*
X206632500Y-85332688D02*
X206584119Y-85284307D01*
X206584119Y-85284307D02*
X206487357Y-85235926D01*
X206487357Y-85235926D02*
X206293833Y-85187545D01*
X206293833Y-85187545D02*
X206197071Y-85139164D01*
X206197071Y-85139164D02*
X206148690Y-85090783D01*
X206148690Y-85090783D02*
X206100309Y-84994021D01*
X206100309Y-84994021D02*
X206100309Y-84897259D01*
X206100309Y-84897259D02*
X206148690Y-84800497D01*
X206148690Y-84800497D02*
X206197071Y-84752116D01*
X206197071Y-84752116D02*
X206293833Y-84703735D01*
X206293833Y-84703735D02*
X206535738Y-84703735D01*
X206535738Y-84703735D02*
X206680881Y-84752116D01*
X207116309Y-85719735D02*
X207116309Y-84703735D01*
X207116309Y-85187545D02*
X207696881Y-85187545D01*
X207696881Y-85719735D02*
X207696881Y-84703735D01*
X208083928Y-86106783D02*
X208132309Y-86058402D01*
X208132309Y-86058402D02*
X208229071Y-85913259D01*
X208229071Y-85913259D02*
X208277452Y-85816497D01*
X208277452Y-85816497D02*
X208325833Y-85671355D01*
X208325833Y-85671355D02*
X208374214Y-85429450D01*
X208374214Y-85429450D02*
X208374214Y-85235926D01*
X208374214Y-85235926D02*
X208325833Y-84994021D01*
X208325833Y-84994021D02*
X208277452Y-84848878D01*
X208277452Y-84848878D02*
X208229071Y-84752116D01*
X208229071Y-84752116D02*
X208132309Y-84606974D01*
X208132309Y-84606974D02*
X208083928Y-84558593D01*
X171412453Y-64235441D02*
X171364072Y-64187060D01*
X171364072Y-64187060D02*
X171267310Y-64041917D01*
X171267310Y-64041917D02*
X171218929Y-63945155D01*
X171218929Y-63945155D02*
X171170548Y-63800013D01*
X171170548Y-63800013D02*
X171122167Y-63558108D01*
X171122167Y-63558108D02*
X171122167Y-63364584D01*
X171122167Y-63364584D02*
X171170548Y-63122679D01*
X171170548Y-63122679D02*
X171218929Y-62977536D01*
X171218929Y-62977536D02*
X171267310Y-62880774D01*
X171267310Y-62880774D02*
X171364072Y-62735632D01*
X171364072Y-62735632D02*
X171412453Y-62687251D01*
X172380072Y-63848393D02*
X172041405Y-63364584D01*
X171799500Y-63848393D02*
X171799500Y-62832393D01*
X171799500Y-62832393D02*
X172186548Y-62832393D01*
X172186548Y-62832393D02*
X172283310Y-62880774D01*
X172283310Y-62880774D02*
X172331691Y-62929155D01*
X172331691Y-62929155D02*
X172380072Y-63025917D01*
X172380072Y-63025917D02*
X172380072Y-63171060D01*
X172380072Y-63171060D02*
X172331691Y-63267822D01*
X172331691Y-63267822D02*
X172283310Y-63316203D01*
X172283310Y-63316203D02*
X172186548Y-63364584D01*
X172186548Y-63364584D02*
X171799500Y-63364584D01*
X172815500Y-63316203D02*
X173154167Y-63316203D01*
X173299310Y-63848393D02*
X172815500Y-63848393D01*
X172815500Y-63848393D02*
X172815500Y-62832393D01*
X172815500Y-62832393D02*
X173299310Y-62832393D01*
X173686357Y-63800013D02*
X173831500Y-63848393D01*
X173831500Y-63848393D02*
X174073405Y-63848393D01*
X174073405Y-63848393D02*
X174170167Y-63800013D01*
X174170167Y-63800013D02*
X174218548Y-63751632D01*
X174218548Y-63751632D02*
X174266929Y-63654870D01*
X174266929Y-63654870D02*
X174266929Y-63558108D01*
X174266929Y-63558108D02*
X174218548Y-63461346D01*
X174218548Y-63461346D02*
X174170167Y-63412965D01*
X174170167Y-63412965D02*
X174073405Y-63364584D01*
X174073405Y-63364584D02*
X173879881Y-63316203D01*
X173879881Y-63316203D02*
X173783119Y-63267822D01*
X173783119Y-63267822D02*
X173734738Y-63219441D01*
X173734738Y-63219441D02*
X173686357Y-63122679D01*
X173686357Y-63122679D02*
X173686357Y-63025917D01*
X173686357Y-63025917D02*
X173734738Y-62929155D01*
X173734738Y-62929155D02*
X173783119Y-62880774D01*
X173783119Y-62880774D02*
X173879881Y-62832393D01*
X173879881Y-62832393D02*
X174121786Y-62832393D01*
X174121786Y-62832393D02*
X174266929Y-62880774D01*
X174702357Y-63316203D02*
X175041024Y-63316203D01*
X175186167Y-63848393D02*
X174702357Y-63848393D01*
X174702357Y-63848393D02*
X174702357Y-62832393D01*
X174702357Y-62832393D02*
X175186167Y-62832393D01*
X175476452Y-62832393D02*
X176057024Y-62832393D01*
X175766738Y-63848393D02*
X175766738Y-62832393D01*
X176298928Y-64235441D02*
X176347309Y-64187060D01*
X176347309Y-64187060D02*
X176444071Y-64041917D01*
X176444071Y-64041917D02*
X176492452Y-63945155D01*
X176492452Y-63945155D02*
X176540833Y-63800013D01*
X176540833Y-63800013D02*
X176589214Y-63558108D01*
X176589214Y-63558108D02*
X176589214Y-63364584D01*
X176589214Y-63364584D02*
X176540833Y-63122679D01*
X176540833Y-63122679D02*
X176492452Y-62977536D01*
X176492452Y-62977536D02*
X176444071Y-62880774D01*
X176444071Y-62880774D02*
X176347309Y-62735632D01*
X176347309Y-62735632D02*
X176298928Y-62687251D01*
X157315453Y-129005441D02*
X157267072Y-128957060D01*
X157267072Y-128957060D02*
X157170310Y-128811917D01*
X157170310Y-128811917D02*
X157121929Y-128715155D01*
X157121929Y-128715155D02*
X157073548Y-128570013D01*
X157073548Y-128570013D02*
X157025167Y-128328108D01*
X157025167Y-128328108D02*
X157025167Y-128134584D01*
X157025167Y-128134584D02*
X157073548Y-127892679D01*
X157073548Y-127892679D02*
X157121929Y-127747536D01*
X157121929Y-127747536D02*
X157170310Y-127650774D01*
X157170310Y-127650774D02*
X157267072Y-127505632D01*
X157267072Y-127505632D02*
X157315453Y-127457251D01*
X157557357Y-127602393D02*
X157896024Y-128618393D01*
X157896024Y-128618393D02*
X158234691Y-127602393D01*
X158718500Y-128618393D02*
X158621738Y-128570013D01*
X158621738Y-128570013D02*
X158573357Y-128521632D01*
X158573357Y-128521632D02*
X158524976Y-128424870D01*
X158524976Y-128424870D02*
X158524976Y-128134584D01*
X158524976Y-128134584D02*
X158573357Y-128037822D01*
X158573357Y-128037822D02*
X158621738Y-127989441D01*
X158621738Y-127989441D02*
X158718500Y-127941060D01*
X158718500Y-127941060D02*
X158863643Y-127941060D01*
X158863643Y-127941060D02*
X158960405Y-127989441D01*
X158960405Y-127989441D02*
X159008786Y-128037822D01*
X159008786Y-128037822D02*
X159057167Y-128134584D01*
X159057167Y-128134584D02*
X159057167Y-128424870D01*
X159057167Y-128424870D02*
X159008786Y-128521632D01*
X159008786Y-128521632D02*
X158960405Y-128570013D01*
X158960405Y-128570013D02*
X158863643Y-128618393D01*
X158863643Y-128618393D02*
X158718500Y-128618393D01*
X159637738Y-128618393D02*
X159540976Y-128570013D01*
X159540976Y-128570013D02*
X159492595Y-128473251D01*
X159492595Y-128473251D02*
X159492595Y-127602393D01*
X160024785Y-128521632D02*
X160073166Y-128570013D01*
X160073166Y-128570013D02*
X160024785Y-128618393D01*
X160024785Y-128618393D02*
X159976404Y-128570013D01*
X159976404Y-128570013D02*
X160024785Y-128521632D01*
X160024785Y-128521632D02*
X160024785Y-128618393D01*
X160411833Y-129005441D02*
X160460214Y-128957060D01*
X160460214Y-128957060D02*
X160556976Y-128811917D01*
X160556976Y-128811917D02*
X160605357Y-128715155D01*
X160605357Y-128715155D02*
X160653738Y-128570013D01*
X160653738Y-128570013D02*
X160702119Y-128328108D01*
X160702119Y-128328108D02*
X160702119Y-128134584D01*
X160702119Y-128134584D02*
X160653738Y-127892679D01*
X160653738Y-127892679D02*
X160605357Y-127747536D01*
X160605357Y-127747536D02*
X160556976Y-127650774D01*
X160556976Y-127650774D02*
X160460214Y-127505632D01*
X160460214Y-127505632D02*
X160411833Y-127457251D01*
X157188453Y-113130441D02*
X157140072Y-113082060D01*
X157140072Y-113082060D02*
X157043310Y-112936917D01*
X157043310Y-112936917D02*
X156994929Y-112840155D01*
X156994929Y-112840155D02*
X156946548Y-112695013D01*
X156946548Y-112695013D02*
X156898167Y-112453108D01*
X156898167Y-112453108D02*
X156898167Y-112259584D01*
X156898167Y-112259584D02*
X156946548Y-112017679D01*
X156946548Y-112017679D02*
X156994929Y-111872536D01*
X156994929Y-111872536D02*
X157043310Y-111775774D01*
X157043310Y-111775774D02*
X157140072Y-111630632D01*
X157140072Y-111630632D02*
X157188453Y-111582251D01*
X157914167Y-112211203D02*
X157575500Y-112211203D01*
X157575500Y-112743393D02*
X157575500Y-111727393D01*
X157575500Y-111727393D02*
X158059310Y-111727393D01*
X158446357Y-112743393D02*
X158446357Y-112066060D01*
X158446357Y-112259584D02*
X158494738Y-112162822D01*
X158494738Y-112162822D02*
X158543119Y-112114441D01*
X158543119Y-112114441D02*
X158639881Y-112066060D01*
X158639881Y-112066060D02*
X158736643Y-112066060D01*
X159462357Y-112695013D02*
X159365595Y-112743393D01*
X159365595Y-112743393D02*
X159172071Y-112743393D01*
X159172071Y-112743393D02*
X159075309Y-112695013D01*
X159075309Y-112695013D02*
X159026928Y-112598251D01*
X159026928Y-112598251D02*
X159026928Y-112211203D01*
X159026928Y-112211203D02*
X159075309Y-112114441D01*
X159075309Y-112114441D02*
X159172071Y-112066060D01*
X159172071Y-112066060D02*
X159365595Y-112066060D01*
X159365595Y-112066060D02*
X159462357Y-112114441D01*
X159462357Y-112114441D02*
X159510738Y-112211203D01*
X159510738Y-112211203D02*
X159510738Y-112307965D01*
X159510738Y-112307965D02*
X159026928Y-112404727D01*
X160381595Y-112066060D02*
X160381595Y-113082060D01*
X160381595Y-112695013D02*
X160284833Y-112743393D01*
X160284833Y-112743393D02*
X160091309Y-112743393D01*
X160091309Y-112743393D02*
X159994547Y-112695013D01*
X159994547Y-112695013D02*
X159946166Y-112646632D01*
X159946166Y-112646632D02*
X159897785Y-112549870D01*
X159897785Y-112549870D02*
X159897785Y-112259584D01*
X159897785Y-112259584D02*
X159946166Y-112162822D01*
X159946166Y-112162822D02*
X159994547Y-112114441D01*
X159994547Y-112114441D02*
X160091309Y-112066060D01*
X160091309Y-112066060D02*
X160284833Y-112066060D01*
X160284833Y-112066060D02*
X160381595Y-112114441D01*
X160865404Y-112646632D02*
X160913785Y-112695013D01*
X160913785Y-112695013D02*
X160865404Y-112743393D01*
X160865404Y-112743393D02*
X160817023Y-112695013D01*
X160817023Y-112695013D02*
X160865404Y-112646632D01*
X160865404Y-112646632D02*
X160865404Y-112743393D01*
X161252452Y-113130441D02*
X161300833Y-113082060D01*
X161300833Y-113082060D02*
X161397595Y-112936917D01*
X161397595Y-112936917D02*
X161445976Y-112840155D01*
X161445976Y-112840155D02*
X161494357Y-112695013D01*
X161494357Y-112695013D02*
X161542738Y-112453108D01*
X161542738Y-112453108D02*
X161542738Y-112259584D01*
X161542738Y-112259584D02*
X161494357Y-112017679D01*
X161494357Y-112017679D02*
X161445976Y-111872536D01*
X161445976Y-111872536D02*
X161397595Y-111775774D01*
X161397595Y-111775774D02*
X161300833Y-111630632D01*
X161300833Y-111630632D02*
X161252452Y-111582251D01*
D11*
X142621095Y-69542819D02*
X142621095Y-68542819D01*
X142621095Y-69019009D02*
X143192523Y-69019009D01*
X143192523Y-69542819D02*
X143192523Y-68542819D01*
X144192523Y-69542819D02*
X143621095Y-69542819D01*
X143906809Y-69542819D02*
X143906809Y-68542819D01*
X143906809Y-68542819D02*
X143811571Y-68685676D01*
X143811571Y-68685676D02*
X143716333Y-68780914D01*
X143716333Y-68780914D02*
X143621095Y-68828533D01*
X190465095Y-77180477D02*
X190465095Y-77990000D01*
X190465095Y-77990000D02*
X190512714Y-78085238D01*
X190512714Y-78085238D02*
X190560333Y-78132858D01*
X190560333Y-78132858D02*
X190655571Y-78180477D01*
X190655571Y-78180477D02*
X190846047Y-78180477D01*
X190846047Y-78180477D02*
X190941285Y-78132858D01*
X190941285Y-78132858D02*
X190988904Y-78085238D01*
X190988904Y-78085238D02*
X191036523Y-77990000D01*
X191036523Y-77990000D02*
X191036523Y-77180477D01*
X191941285Y-77180477D02*
X191750809Y-77180477D01*
X191750809Y-77180477D02*
X191655571Y-77228096D01*
X191655571Y-77228096D02*
X191607952Y-77275715D01*
X191607952Y-77275715D02*
X191512714Y-77418572D01*
X191512714Y-77418572D02*
X191465095Y-77609048D01*
X191465095Y-77609048D02*
X191465095Y-77990000D01*
X191465095Y-77990000D02*
X191512714Y-78085238D01*
X191512714Y-78085238D02*
X191560333Y-78132858D01*
X191560333Y-78132858D02*
X191655571Y-78180477D01*
X191655571Y-78180477D02*
X191846047Y-78180477D01*
X191846047Y-78180477D02*
X191941285Y-78132858D01*
X191941285Y-78132858D02*
X191988904Y-78085238D01*
X191988904Y-78085238D02*
X192036523Y-77990000D01*
X192036523Y-77990000D02*
X192036523Y-77751905D01*
X192036523Y-77751905D02*
X191988904Y-77656667D01*
X191988904Y-77656667D02*
X191941285Y-77609048D01*
X191941285Y-77609048D02*
X191846047Y-77561429D01*
X191846047Y-77561429D02*
X191655571Y-77561429D01*
X191655571Y-77561429D02*
X191560333Y-77609048D01*
X191560333Y-77609048D02*
X191512714Y-77656667D01*
X191512714Y-77656667D02*
X191465095Y-77751905D01*
X142748095Y-121653819D02*
X142748095Y-120653819D01*
X142748095Y-121130009D02*
X143319523Y-121130009D01*
X143319523Y-121653819D02*
X143319523Y-120653819D01*
X143700476Y-120653819D02*
X144319523Y-120653819D01*
X144319523Y-120653819D02*
X143986190Y-121034771D01*
X143986190Y-121034771D02*
X144129047Y-121034771D01*
X144129047Y-121034771D02*
X144224285Y-121082390D01*
X144224285Y-121082390D02*
X144271904Y-121130009D01*
X144271904Y-121130009D02*
X144319523Y-121225247D01*
X144319523Y-121225247D02*
X144319523Y-121463342D01*
X144319523Y-121463342D02*
X144271904Y-121558580D01*
X144271904Y-121558580D02*
X144224285Y-121606200D01*
X144224285Y-121606200D02*
X144129047Y-121653819D01*
X144129047Y-121653819D02*
X143843333Y-121653819D01*
X143843333Y-121653819D02*
X143748095Y-121606200D01*
X143748095Y-121606200D02*
X143700476Y-121558580D01*
X158635666Y-62927477D02*
X158635666Y-63641762D01*
X158635666Y-63641762D02*
X158588047Y-63784619D01*
X158588047Y-63784619D02*
X158492809Y-63879858D01*
X158492809Y-63879858D02*
X158349952Y-63927477D01*
X158349952Y-63927477D02*
X158254714Y-63927477D01*
X159016619Y-62927477D02*
X159683285Y-62927477D01*
X159683285Y-62927477D02*
X159254714Y-63927477D01*
X182551333Y-90597477D02*
X182218000Y-90121286D01*
X181979905Y-90597477D02*
X181979905Y-89597477D01*
X181979905Y-89597477D02*
X182360857Y-89597477D01*
X182360857Y-89597477D02*
X182456095Y-89645096D01*
X182456095Y-89645096D02*
X182503714Y-89692715D01*
X182503714Y-89692715D02*
X182551333Y-89787953D01*
X182551333Y-89787953D02*
X182551333Y-89930810D01*
X182551333Y-89930810D02*
X182503714Y-90026048D01*
X182503714Y-90026048D02*
X182456095Y-90073667D01*
X182456095Y-90073667D02*
X182360857Y-90121286D01*
X182360857Y-90121286D02*
X181979905Y-90121286D01*
X183408476Y-89597477D02*
X183218000Y-89597477D01*
X183218000Y-89597477D02*
X183122762Y-89645096D01*
X183122762Y-89645096D02*
X183075143Y-89692715D01*
X183075143Y-89692715D02*
X182979905Y-89835572D01*
X182979905Y-89835572D02*
X182932286Y-90026048D01*
X182932286Y-90026048D02*
X182932286Y-90407000D01*
X182932286Y-90407000D02*
X182979905Y-90502238D01*
X182979905Y-90502238D02*
X183027524Y-90549858D01*
X183027524Y-90549858D02*
X183122762Y-90597477D01*
X183122762Y-90597477D02*
X183313238Y-90597477D01*
X183313238Y-90597477D02*
X183408476Y-90549858D01*
X183408476Y-90549858D02*
X183456095Y-90502238D01*
X183456095Y-90502238D02*
X183503714Y-90407000D01*
X183503714Y-90407000D02*
X183503714Y-90168905D01*
X183503714Y-90168905D02*
X183456095Y-90073667D01*
X183456095Y-90073667D02*
X183408476Y-90026048D01*
X183408476Y-90026048D02*
X183313238Y-89978429D01*
X183313238Y-89978429D02*
X183122762Y-89978429D01*
X183122762Y-89978429D02*
X183027524Y-90026048D01*
X183027524Y-90026048D02*
X182979905Y-90073667D01*
X182979905Y-90073667D02*
X182932286Y-90168905D01*
X144137142Y-88973819D02*
X143803809Y-88497628D01*
X143565714Y-88973819D02*
X143565714Y-87973819D01*
X143565714Y-87973819D02*
X143946666Y-87973819D01*
X143946666Y-87973819D02*
X144041904Y-88021438D01*
X144041904Y-88021438D02*
X144089523Y-88069057D01*
X144089523Y-88069057D02*
X144137142Y-88164295D01*
X144137142Y-88164295D02*
X144137142Y-88307152D01*
X144137142Y-88307152D02*
X144089523Y-88402390D01*
X144089523Y-88402390D02*
X144041904Y-88450009D01*
X144041904Y-88450009D02*
X143946666Y-88497628D01*
X143946666Y-88497628D02*
X143565714Y-88497628D01*
X145089523Y-88973819D02*
X144518095Y-88973819D01*
X144803809Y-88973819D02*
X144803809Y-87973819D01*
X144803809Y-87973819D02*
X144708571Y-88116676D01*
X144708571Y-88116676D02*
X144613333Y-88211914D01*
X144613333Y-88211914D02*
X144518095Y-88259533D01*
X146041904Y-88973819D02*
X145470476Y-88973819D01*
X145756190Y-88973819D02*
X145756190Y-87973819D01*
X145756190Y-87973819D02*
X145660952Y-88116676D01*
X145660952Y-88116676D02*
X145565714Y-88211914D01*
X145565714Y-88211914D02*
X145470476Y-88259533D01*
X166501761Y-103972477D02*
X166168428Y-103496286D01*
X165930333Y-103972477D02*
X165930333Y-102972477D01*
X165930333Y-102972477D02*
X166311285Y-102972477D01*
X166311285Y-102972477D02*
X166406523Y-103020096D01*
X166406523Y-103020096D02*
X166454142Y-103067715D01*
X166454142Y-103067715D02*
X166501761Y-103162953D01*
X166501761Y-103162953D02*
X166501761Y-103305810D01*
X166501761Y-103305810D02*
X166454142Y-103401048D01*
X166454142Y-103401048D02*
X166406523Y-103448667D01*
X166406523Y-103448667D02*
X166311285Y-103496286D01*
X166311285Y-103496286D02*
X165930333Y-103496286D01*
X166787476Y-102972477D02*
X167120809Y-103972477D01*
X167120809Y-103972477D02*
X167454142Y-102972477D01*
X167739857Y-103067715D02*
X167787476Y-103020096D01*
X167787476Y-103020096D02*
X167882714Y-102972477D01*
X167882714Y-102972477D02*
X168120809Y-102972477D01*
X168120809Y-102972477D02*
X168216047Y-103020096D01*
X168216047Y-103020096D02*
X168263666Y-103067715D01*
X168263666Y-103067715D02*
X168311285Y-103162953D01*
X168311285Y-103162953D02*
X168311285Y-103258191D01*
X168311285Y-103258191D02*
X168263666Y-103401048D01*
X168263666Y-103401048D02*
X167692238Y-103972477D01*
X167692238Y-103972477D02*
X168311285Y-103972477D01*
X196928819Y-110369752D02*
X195928819Y-110369752D01*
X195928819Y-110369752D02*
X195928819Y-110131657D01*
X195928819Y-110131657D02*
X195976438Y-109988800D01*
X195976438Y-109988800D02*
X196071676Y-109893562D01*
X196071676Y-109893562D02*
X196166914Y-109845943D01*
X196166914Y-109845943D02*
X196357390Y-109798324D01*
X196357390Y-109798324D02*
X196500247Y-109798324D01*
X196500247Y-109798324D02*
X196690723Y-109845943D01*
X196690723Y-109845943D02*
X196785961Y-109893562D01*
X196785961Y-109893562D02*
X196881200Y-109988800D01*
X196881200Y-109988800D02*
X196928819Y-110131657D01*
X196928819Y-110131657D02*
X196928819Y-110369752D01*
X196928819Y-108845943D02*
X196928819Y-109417371D01*
X196928819Y-109131657D02*
X195928819Y-109131657D01*
X195928819Y-109131657D02*
X196071676Y-109226895D01*
X196071676Y-109226895D02*
X196166914Y-109322133D01*
X196166914Y-109322133D02*
X196214533Y-109417371D01*
X168136905Y-81961477D02*
X168136905Y-80961477D01*
X168136905Y-80961477D02*
X168375000Y-80961477D01*
X168375000Y-80961477D02*
X168517857Y-81009096D01*
X168517857Y-81009096D02*
X168613095Y-81104334D01*
X168613095Y-81104334D02*
X168660714Y-81199572D01*
X168660714Y-81199572D02*
X168708333Y-81390048D01*
X168708333Y-81390048D02*
X168708333Y-81532905D01*
X168708333Y-81532905D02*
X168660714Y-81723381D01*
X168660714Y-81723381D02*
X168613095Y-81818619D01*
X168613095Y-81818619D02*
X168517857Y-81913858D01*
X168517857Y-81913858D02*
X168375000Y-81961477D01*
X168375000Y-81961477D02*
X168136905Y-81961477D01*
X169041667Y-80961477D02*
X169660714Y-80961477D01*
X169660714Y-80961477D02*
X169327381Y-81342429D01*
X169327381Y-81342429D02*
X169470238Y-81342429D01*
X169470238Y-81342429D02*
X169565476Y-81390048D01*
X169565476Y-81390048D02*
X169613095Y-81437667D01*
X169613095Y-81437667D02*
X169660714Y-81532905D01*
X169660714Y-81532905D02*
X169660714Y-81771000D01*
X169660714Y-81771000D02*
X169613095Y-81866238D01*
X169613095Y-81866238D02*
X169565476Y-81913858D01*
X169565476Y-81913858D02*
X169470238Y-81961477D01*
X169470238Y-81961477D02*
X169184524Y-81961477D01*
X169184524Y-81961477D02*
X169089286Y-81913858D01*
X169089286Y-81913858D02*
X169041667Y-81866238D01*
X172494667Y-61974858D02*
X172637524Y-62022477D01*
X172637524Y-62022477D02*
X172875619Y-62022477D01*
X172875619Y-62022477D02*
X172970857Y-61974858D01*
X172970857Y-61974858D02*
X173018476Y-61927238D01*
X173018476Y-61927238D02*
X173066095Y-61832000D01*
X173066095Y-61832000D02*
X173066095Y-61736762D01*
X173066095Y-61736762D02*
X173018476Y-61641524D01*
X173018476Y-61641524D02*
X172970857Y-61593905D01*
X172970857Y-61593905D02*
X172875619Y-61546286D01*
X172875619Y-61546286D02*
X172685143Y-61498667D01*
X172685143Y-61498667D02*
X172589905Y-61451048D01*
X172589905Y-61451048D02*
X172542286Y-61403429D01*
X172542286Y-61403429D02*
X172494667Y-61308191D01*
X172494667Y-61308191D02*
X172494667Y-61212953D01*
X172494667Y-61212953D02*
X172542286Y-61117715D01*
X172542286Y-61117715D02*
X172589905Y-61070096D01*
X172589905Y-61070096D02*
X172685143Y-61022477D01*
X172685143Y-61022477D02*
X172923238Y-61022477D01*
X172923238Y-61022477D02*
X173066095Y-61070096D01*
X173399429Y-61022477D02*
X173637524Y-62022477D01*
X173637524Y-62022477D02*
X173828000Y-61308191D01*
X173828000Y-61308191D02*
X174018476Y-62022477D01*
X174018476Y-62022477D02*
X174256572Y-61022477D01*
X174589905Y-61117715D02*
X174637524Y-61070096D01*
X174637524Y-61070096D02*
X174732762Y-61022477D01*
X174732762Y-61022477D02*
X174970857Y-61022477D01*
X174970857Y-61022477D02*
X175066095Y-61070096D01*
X175066095Y-61070096D02*
X175113714Y-61117715D01*
X175113714Y-61117715D02*
X175161333Y-61212953D01*
X175161333Y-61212953D02*
X175161333Y-61308191D01*
X175161333Y-61308191D02*
X175113714Y-61451048D01*
X175113714Y-61451048D02*
X174542286Y-62022477D01*
X174542286Y-62022477D02*
X175161333Y-62022477D01*
X149436142Y-95296477D02*
X149102809Y-94820286D01*
X148864714Y-95296477D02*
X148864714Y-94296477D01*
X148864714Y-94296477D02*
X149245666Y-94296477D01*
X149245666Y-94296477D02*
X149340904Y-94344096D01*
X149340904Y-94344096D02*
X149388523Y-94391715D01*
X149388523Y-94391715D02*
X149436142Y-94486953D01*
X149436142Y-94486953D02*
X149436142Y-94629810D01*
X149436142Y-94629810D02*
X149388523Y-94725048D01*
X149388523Y-94725048D02*
X149340904Y-94772667D01*
X149340904Y-94772667D02*
X149245666Y-94820286D01*
X149245666Y-94820286D02*
X148864714Y-94820286D01*
X150388523Y-95296477D02*
X149817095Y-95296477D01*
X150102809Y-95296477D02*
X150102809Y-94296477D01*
X150102809Y-94296477D02*
X150007571Y-94439334D01*
X150007571Y-94439334D02*
X149912333Y-94534572D01*
X149912333Y-94534572D02*
X149817095Y-94582191D01*
X150769476Y-94391715D02*
X150817095Y-94344096D01*
X150817095Y-94344096D02*
X150912333Y-94296477D01*
X150912333Y-94296477D02*
X151150428Y-94296477D01*
X151150428Y-94296477D02*
X151245666Y-94344096D01*
X151245666Y-94344096D02*
X151293285Y-94391715D01*
X151293285Y-94391715D02*
X151340904Y-94486953D01*
X151340904Y-94486953D02*
X151340904Y-94582191D01*
X151340904Y-94582191D02*
X151293285Y-94725048D01*
X151293285Y-94725048D02*
X150721857Y-95296477D01*
X150721857Y-95296477D02*
X151340904Y-95296477D01*
X152579333Y-76374477D02*
X152246000Y-75898286D01*
X152007905Y-76374477D02*
X152007905Y-75374477D01*
X152007905Y-75374477D02*
X152388857Y-75374477D01*
X152388857Y-75374477D02*
X152484095Y-75422096D01*
X152484095Y-75422096D02*
X152531714Y-75469715D01*
X152531714Y-75469715D02*
X152579333Y-75564953D01*
X152579333Y-75564953D02*
X152579333Y-75707810D01*
X152579333Y-75707810D02*
X152531714Y-75803048D01*
X152531714Y-75803048D02*
X152484095Y-75850667D01*
X152484095Y-75850667D02*
X152388857Y-75898286D01*
X152388857Y-75898286D02*
X152007905Y-75898286D01*
X153055524Y-76374477D02*
X153246000Y-76374477D01*
X153246000Y-76374477D02*
X153341238Y-76326858D01*
X153341238Y-76326858D02*
X153388857Y-76279238D01*
X153388857Y-76279238D02*
X153484095Y-76136381D01*
X153484095Y-76136381D02*
X153531714Y-75945905D01*
X153531714Y-75945905D02*
X153531714Y-75564953D01*
X153531714Y-75564953D02*
X153484095Y-75469715D01*
X153484095Y-75469715D02*
X153436476Y-75422096D01*
X153436476Y-75422096D02*
X153341238Y-75374477D01*
X153341238Y-75374477D02*
X153150762Y-75374477D01*
X153150762Y-75374477D02*
X153055524Y-75422096D01*
X153055524Y-75422096D02*
X153007905Y-75469715D01*
X153007905Y-75469715D02*
X152960286Y-75564953D01*
X152960286Y-75564953D02*
X152960286Y-75803048D01*
X152960286Y-75803048D02*
X153007905Y-75898286D01*
X153007905Y-75898286D02*
X153055524Y-75945905D01*
X153055524Y-75945905D02*
X153150762Y-75993524D01*
X153150762Y-75993524D02*
X153341238Y-75993524D01*
X153341238Y-75993524D02*
X153436476Y-75945905D01*
X153436476Y-75945905D02*
X153484095Y-75898286D01*
X153484095Y-75898286D02*
X153531714Y-75803048D01*
X191235095Y-105853477D02*
X191806523Y-105853477D01*
X191520809Y-106853477D02*
X191520809Y-105853477D01*
X192139857Y-106853477D02*
X192139857Y-105853477D01*
X192139857Y-105853477D02*
X192520809Y-105853477D01*
X192520809Y-105853477D02*
X192616047Y-105901096D01*
X192616047Y-105901096D02*
X192663666Y-105948715D01*
X192663666Y-105948715D02*
X192711285Y-106043953D01*
X192711285Y-106043953D02*
X192711285Y-106186810D01*
X192711285Y-106186810D02*
X192663666Y-106282048D01*
X192663666Y-106282048D02*
X192616047Y-106329667D01*
X192616047Y-106329667D02*
X192520809Y-106377286D01*
X192520809Y-106377286D02*
X192139857Y-106377286D01*
X193092238Y-105948715D02*
X193139857Y-105901096D01*
X193139857Y-105901096D02*
X193235095Y-105853477D01*
X193235095Y-105853477D02*
X193473190Y-105853477D01*
X193473190Y-105853477D02*
X193568428Y-105901096D01*
X193568428Y-105901096D02*
X193616047Y-105948715D01*
X193616047Y-105948715D02*
X193663666Y-106043953D01*
X193663666Y-106043953D02*
X193663666Y-106139191D01*
X193663666Y-106139191D02*
X193616047Y-106282048D01*
X193616047Y-106282048D02*
X193044619Y-106853477D01*
X193044619Y-106853477D02*
X193663666Y-106853477D01*
X194902142Y-74976477D02*
X194568809Y-74500286D01*
X194330714Y-74976477D02*
X194330714Y-73976477D01*
X194330714Y-73976477D02*
X194711666Y-73976477D01*
X194711666Y-73976477D02*
X194806904Y-74024096D01*
X194806904Y-74024096D02*
X194854523Y-74071715D01*
X194854523Y-74071715D02*
X194902142Y-74166953D01*
X194902142Y-74166953D02*
X194902142Y-74309810D01*
X194902142Y-74309810D02*
X194854523Y-74405048D01*
X194854523Y-74405048D02*
X194806904Y-74452667D01*
X194806904Y-74452667D02*
X194711666Y-74500286D01*
X194711666Y-74500286D02*
X194330714Y-74500286D01*
X195854523Y-74976477D02*
X195283095Y-74976477D01*
X195568809Y-74976477D02*
X195568809Y-73976477D01*
X195568809Y-73976477D02*
X195473571Y-74119334D01*
X195473571Y-74119334D02*
X195378333Y-74214572D01*
X195378333Y-74214572D02*
X195283095Y-74262191D01*
X196759285Y-73976477D02*
X196283095Y-73976477D01*
X196283095Y-73976477D02*
X196235476Y-74452667D01*
X196235476Y-74452667D02*
X196283095Y-74405048D01*
X196283095Y-74405048D02*
X196378333Y-74357429D01*
X196378333Y-74357429D02*
X196616428Y-74357429D01*
X196616428Y-74357429D02*
X196711666Y-74405048D01*
X196711666Y-74405048D02*
X196759285Y-74452667D01*
X196759285Y-74452667D02*
X196806904Y-74547905D01*
X196806904Y-74547905D02*
X196806904Y-74786000D01*
X196806904Y-74786000D02*
X196759285Y-74881238D01*
X196759285Y-74881238D02*
X196711666Y-74928858D01*
X196711666Y-74928858D02*
X196616428Y-74976477D01*
X196616428Y-74976477D02*
X196378333Y-74976477D01*
X196378333Y-74976477D02*
X196283095Y-74928858D01*
X196283095Y-74928858D02*
X196235476Y-74881238D01*
X176582333Y-113489238D02*
X176534714Y-113536858D01*
X176534714Y-113536858D02*
X176391857Y-113584477D01*
X176391857Y-113584477D02*
X176296619Y-113584477D01*
X176296619Y-113584477D02*
X176153762Y-113536858D01*
X176153762Y-113536858D02*
X176058524Y-113441619D01*
X176058524Y-113441619D02*
X176010905Y-113346381D01*
X176010905Y-113346381D02*
X175963286Y-113155905D01*
X175963286Y-113155905D02*
X175963286Y-113013048D01*
X175963286Y-113013048D02*
X176010905Y-112822572D01*
X176010905Y-112822572D02*
X176058524Y-112727334D01*
X176058524Y-112727334D02*
X176153762Y-112632096D01*
X176153762Y-112632096D02*
X176296619Y-112584477D01*
X176296619Y-112584477D02*
X176391857Y-112584477D01*
X176391857Y-112584477D02*
X176534714Y-112632096D01*
X176534714Y-112632096D02*
X176582333Y-112679715D01*
X176963286Y-112679715D02*
X177010905Y-112632096D01*
X177010905Y-112632096D02*
X177106143Y-112584477D01*
X177106143Y-112584477D02*
X177344238Y-112584477D01*
X177344238Y-112584477D02*
X177439476Y-112632096D01*
X177439476Y-112632096D02*
X177487095Y-112679715D01*
X177487095Y-112679715D02*
X177534714Y-112774953D01*
X177534714Y-112774953D02*
X177534714Y-112870191D01*
X177534714Y-112870191D02*
X177487095Y-113013048D01*
X177487095Y-113013048D02*
X176915667Y-113584477D01*
X176915667Y-113584477D02*
X177534714Y-113584477D01*
X187845666Y-106996477D02*
X187845666Y-107710762D01*
X187845666Y-107710762D02*
X187798047Y-107853619D01*
X187798047Y-107853619D02*
X187702809Y-107948858D01*
X187702809Y-107948858D02*
X187559952Y-107996477D01*
X187559952Y-107996477D02*
X187464714Y-107996477D01*
X188274238Y-107091715D02*
X188321857Y-107044096D01*
X188321857Y-107044096D02*
X188417095Y-106996477D01*
X188417095Y-106996477D02*
X188655190Y-106996477D01*
X188655190Y-106996477D02*
X188750428Y-107044096D01*
X188750428Y-107044096D02*
X188798047Y-107091715D01*
X188798047Y-107091715D02*
X188845666Y-107186953D01*
X188845666Y-107186953D02*
X188845666Y-107282191D01*
X188845666Y-107282191D02*
X188798047Y-107425048D01*
X188798047Y-107425048D02*
X188226619Y-107996477D01*
X188226619Y-107996477D02*
X188845666Y-107996477D01*
X181281333Y-112695477D02*
X180948000Y-112219286D01*
X180709905Y-112695477D02*
X180709905Y-111695477D01*
X180709905Y-111695477D02*
X181090857Y-111695477D01*
X181090857Y-111695477D02*
X181186095Y-111743096D01*
X181186095Y-111743096D02*
X181233714Y-111790715D01*
X181233714Y-111790715D02*
X181281333Y-111885953D01*
X181281333Y-111885953D02*
X181281333Y-112028810D01*
X181281333Y-112028810D02*
X181233714Y-112124048D01*
X181233714Y-112124048D02*
X181186095Y-112171667D01*
X181186095Y-112171667D02*
X181090857Y-112219286D01*
X181090857Y-112219286D02*
X180709905Y-112219286D01*
X182138476Y-112028810D02*
X182138476Y-112695477D01*
X181900381Y-111647858D02*
X181662286Y-112362143D01*
X181662286Y-112362143D02*
X182281333Y-112362143D01*
X166676333Y-110949238D02*
X166628714Y-110996858D01*
X166628714Y-110996858D02*
X166485857Y-111044477D01*
X166485857Y-111044477D02*
X166390619Y-111044477D01*
X166390619Y-111044477D02*
X166247762Y-110996858D01*
X166247762Y-110996858D02*
X166152524Y-110901619D01*
X166152524Y-110901619D02*
X166104905Y-110806381D01*
X166104905Y-110806381D02*
X166057286Y-110615905D01*
X166057286Y-110615905D02*
X166057286Y-110473048D01*
X166057286Y-110473048D02*
X166104905Y-110282572D01*
X166104905Y-110282572D02*
X166152524Y-110187334D01*
X166152524Y-110187334D02*
X166247762Y-110092096D01*
X166247762Y-110092096D02*
X166390619Y-110044477D01*
X166390619Y-110044477D02*
X166485857Y-110044477D01*
X166485857Y-110044477D02*
X166628714Y-110092096D01*
X166628714Y-110092096D02*
X166676333Y-110139715D01*
X167533476Y-110377810D02*
X167533476Y-111044477D01*
X167295381Y-109996858D02*
X167057286Y-110711143D01*
X167057286Y-110711143D02*
X167676333Y-110711143D01*
X182145666Y-98850477D02*
X182145666Y-99564762D01*
X182145666Y-99564762D02*
X182098047Y-99707619D01*
X182098047Y-99707619D02*
X182002809Y-99802858D01*
X182002809Y-99802858D02*
X181859952Y-99850477D01*
X181859952Y-99850477D02*
X181764714Y-99850477D01*
X182526619Y-98850477D02*
X183145666Y-98850477D01*
X183145666Y-98850477D02*
X182812333Y-99231429D01*
X182812333Y-99231429D02*
X182955190Y-99231429D01*
X182955190Y-99231429D02*
X183050428Y-99279048D01*
X183050428Y-99279048D02*
X183098047Y-99326667D01*
X183098047Y-99326667D02*
X183145666Y-99421905D01*
X183145666Y-99421905D02*
X183145666Y-99660000D01*
X183145666Y-99660000D02*
X183098047Y-99755238D01*
X183098047Y-99755238D02*
X183050428Y-99802858D01*
X183050428Y-99802858D02*
X182955190Y-99850477D01*
X182955190Y-99850477D02*
X182669476Y-99850477D01*
X182669476Y-99850477D02*
X182574238Y-99802858D01*
X182574238Y-99802858D02*
X182526619Y-99755238D01*
X154436761Y-128546477D02*
X154103428Y-128070286D01*
X153865333Y-128546477D02*
X153865333Y-127546477D01*
X153865333Y-127546477D02*
X154246285Y-127546477D01*
X154246285Y-127546477D02*
X154341523Y-127594096D01*
X154341523Y-127594096D02*
X154389142Y-127641715D01*
X154389142Y-127641715D02*
X154436761Y-127736953D01*
X154436761Y-127736953D02*
X154436761Y-127879810D01*
X154436761Y-127879810D02*
X154389142Y-127975048D01*
X154389142Y-127975048D02*
X154341523Y-128022667D01*
X154341523Y-128022667D02*
X154246285Y-128070286D01*
X154246285Y-128070286D02*
X153865333Y-128070286D01*
X154722476Y-127546477D02*
X155055809Y-128546477D01*
X155055809Y-128546477D02*
X155389142Y-127546477D01*
X156246285Y-128546477D02*
X155674857Y-128546477D01*
X155960571Y-128546477D02*
X155960571Y-127546477D01*
X155960571Y-127546477D02*
X155865333Y-127689334D01*
X155865333Y-127689334D02*
X155770095Y-127784572D01*
X155770095Y-127784572D02*
X155674857Y-127832191D01*
X173460642Y-81252738D02*
X173413023Y-81300358D01*
X173413023Y-81300358D02*
X173270166Y-81347977D01*
X173270166Y-81347977D02*
X173174928Y-81347977D01*
X173174928Y-81347977D02*
X173032071Y-81300358D01*
X173032071Y-81300358D02*
X172936833Y-81205119D01*
X172936833Y-81205119D02*
X172889214Y-81109881D01*
X172889214Y-81109881D02*
X172841595Y-80919405D01*
X172841595Y-80919405D02*
X172841595Y-80776548D01*
X172841595Y-80776548D02*
X172889214Y-80586072D01*
X172889214Y-80586072D02*
X172936833Y-80490834D01*
X172936833Y-80490834D02*
X173032071Y-80395596D01*
X173032071Y-80395596D02*
X173174928Y-80347977D01*
X173174928Y-80347977D02*
X173270166Y-80347977D01*
X173270166Y-80347977D02*
X173413023Y-80395596D01*
X173413023Y-80395596D02*
X173460642Y-80443215D01*
X174413023Y-81347977D02*
X173841595Y-81347977D01*
X174127309Y-81347977D02*
X174127309Y-80347977D01*
X174127309Y-80347977D02*
X174032071Y-80490834D01*
X174032071Y-80490834D02*
X173936833Y-80586072D01*
X173936833Y-80586072D02*
X173841595Y-80633691D01*
X174746357Y-80347977D02*
X175365404Y-80347977D01*
X175365404Y-80347977D02*
X175032071Y-80728929D01*
X175032071Y-80728929D02*
X175174928Y-80728929D01*
X175174928Y-80728929D02*
X175270166Y-80776548D01*
X175270166Y-80776548D02*
X175317785Y-80824167D01*
X175317785Y-80824167D02*
X175365404Y-80919405D01*
X175365404Y-80919405D02*
X175365404Y-81157500D01*
X175365404Y-81157500D02*
X175317785Y-81252738D01*
X175317785Y-81252738D02*
X175270166Y-81300358D01*
X175270166Y-81300358D02*
X175174928Y-81347977D01*
X175174928Y-81347977D02*
X174889214Y-81347977D01*
X174889214Y-81347977D02*
X174793976Y-81300358D01*
X174793976Y-81300358D02*
X174746357Y-81252738D01*
X154182761Y-112798477D02*
X153849428Y-112322286D01*
X153611333Y-112798477D02*
X153611333Y-111798477D01*
X153611333Y-111798477D02*
X153992285Y-111798477D01*
X153992285Y-111798477D02*
X154087523Y-111846096D01*
X154087523Y-111846096D02*
X154135142Y-111893715D01*
X154135142Y-111893715D02*
X154182761Y-111988953D01*
X154182761Y-111988953D02*
X154182761Y-112131810D01*
X154182761Y-112131810D02*
X154135142Y-112227048D01*
X154135142Y-112227048D02*
X154087523Y-112274667D01*
X154087523Y-112274667D02*
X153992285Y-112322286D01*
X153992285Y-112322286D02*
X153611333Y-112322286D01*
X154468476Y-111798477D02*
X154801809Y-112798477D01*
X154801809Y-112798477D02*
X155135142Y-111798477D01*
X155373238Y-111798477D02*
X155992285Y-111798477D01*
X155992285Y-111798477D02*
X155658952Y-112179429D01*
X155658952Y-112179429D02*
X155801809Y-112179429D01*
X155801809Y-112179429D02*
X155897047Y-112227048D01*
X155897047Y-112227048D02*
X155944666Y-112274667D01*
X155944666Y-112274667D02*
X155992285Y-112369905D01*
X155992285Y-112369905D02*
X155992285Y-112608000D01*
X155992285Y-112608000D02*
X155944666Y-112703238D01*
X155944666Y-112703238D02*
X155897047Y-112750858D01*
X155897047Y-112750858D02*
X155801809Y-112798477D01*
X155801809Y-112798477D02*
X155516095Y-112798477D01*
X155516095Y-112798477D02*
X155420857Y-112750858D01*
X155420857Y-112750858D02*
X155373238Y-112703238D01*
X178487333Y-98979477D02*
X178154000Y-98503286D01*
X177915905Y-98979477D02*
X177915905Y-97979477D01*
X177915905Y-97979477D02*
X178296857Y-97979477D01*
X178296857Y-97979477D02*
X178392095Y-98027096D01*
X178392095Y-98027096D02*
X178439714Y-98074715D01*
X178439714Y-98074715D02*
X178487333Y-98169953D01*
X178487333Y-98169953D02*
X178487333Y-98312810D01*
X178487333Y-98312810D02*
X178439714Y-98408048D01*
X178439714Y-98408048D02*
X178392095Y-98455667D01*
X178392095Y-98455667D02*
X178296857Y-98503286D01*
X178296857Y-98503286D02*
X177915905Y-98503286D01*
X178820667Y-97979477D02*
X179439714Y-97979477D01*
X179439714Y-97979477D02*
X179106381Y-98360429D01*
X179106381Y-98360429D02*
X179249238Y-98360429D01*
X179249238Y-98360429D02*
X179344476Y-98408048D01*
X179344476Y-98408048D02*
X179392095Y-98455667D01*
X179392095Y-98455667D02*
X179439714Y-98550905D01*
X179439714Y-98550905D02*
X179439714Y-98789000D01*
X179439714Y-98789000D02*
X179392095Y-98884238D01*
X179392095Y-98884238D02*
X179344476Y-98931858D01*
X179344476Y-98931858D02*
X179249238Y-98979477D01*
X179249238Y-98979477D02*
X178963524Y-98979477D01*
X178963524Y-98979477D02*
X178868286Y-98931858D01*
X178868286Y-98931858D02*
X178820667Y-98884238D01*
X184369095Y-94963477D02*
X184369095Y-95773000D01*
X184369095Y-95773000D02*
X184416714Y-95868238D01*
X184416714Y-95868238D02*
X184464333Y-95915858D01*
X184464333Y-95915858D02*
X184559571Y-95963477D01*
X184559571Y-95963477D02*
X184750047Y-95963477D01*
X184750047Y-95963477D02*
X184845285Y-95915858D01*
X184845285Y-95915858D02*
X184892904Y-95868238D01*
X184892904Y-95868238D02*
X184940523Y-95773000D01*
X184940523Y-95773000D02*
X184940523Y-94963477D01*
X185892904Y-94963477D02*
X185416714Y-94963477D01*
X185416714Y-94963477D02*
X185369095Y-95439667D01*
X185369095Y-95439667D02*
X185416714Y-95392048D01*
X185416714Y-95392048D02*
X185511952Y-95344429D01*
X185511952Y-95344429D02*
X185750047Y-95344429D01*
X185750047Y-95344429D02*
X185845285Y-95392048D01*
X185845285Y-95392048D02*
X185892904Y-95439667D01*
X185892904Y-95439667D02*
X185940523Y-95534905D01*
X185940523Y-95534905D02*
X185940523Y-95773000D01*
X185940523Y-95773000D02*
X185892904Y-95868238D01*
X185892904Y-95868238D02*
X185845285Y-95915858D01*
X185845285Y-95915858D02*
X185750047Y-95963477D01*
X185750047Y-95963477D02*
X185511952Y-95963477D01*
X185511952Y-95963477D02*
X185416714Y-95915858D01*
X185416714Y-95915858D02*
X185369095Y-95868238D01*
X203835095Y-70304819D02*
X203835095Y-69304819D01*
X203835095Y-69781009D02*
X204406523Y-69781009D01*
X204406523Y-70304819D02*
X204406523Y-69304819D01*
X204835095Y-69400057D02*
X204882714Y-69352438D01*
X204882714Y-69352438D02*
X204977952Y-69304819D01*
X204977952Y-69304819D02*
X205216047Y-69304819D01*
X205216047Y-69304819D02*
X205311285Y-69352438D01*
X205311285Y-69352438D02*
X205358904Y-69400057D01*
X205358904Y-69400057D02*
X205406523Y-69495295D01*
X205406523Y-69495295D02*
X205406523Y-69590533D01*
X205406523Y-69590533D02*
X205358904Y-69733390D01*
X205358904Y-69733390D02*
X204787476Y-70304819D01*
X204787476Y-70304819D02*
X205406523Y-70304819D01*
X195791142Y-78593238D02*
X195743523Y-78640858D01*
X195743523Y-78640858D02*
X195600666Y-78688477D01*
X195600666Y-78688477D02*
X195505428Y-78688477D01*
X195505428Y-78688477D02*
X195362571Y-78640858D01*
X195362571Y-78640858D02*
X195267333Y-78545619D01*
X195267333Y-78545619D02*
X195219714Y-78450381D01*
X195219714Y-78450381D02*
X195172095Y-78259905D01*
X195172095Y-78259905D02*
X195172095Y-78117048D01*
X195172095Y-78117048D02*
X195219714Y-77926572D01*
X195219714Y-77926572D02*
X195267333Y-77831334D01*
X195267333Y-77831334D02*
X195362571Y-77736096D01*
X195362571Y-77736096D02*
X195505428Y-77688477D01*
X195505428Y-77688477D02*
X195600666Y-77688477D01*
X195600666Y-77688477D02*
X195743523Y-77736096D01*
X195743523Y-77736096D02*
X195791142Y-77783715D01*
X196743523Y-78688477D02*
X196172095Y-78688477D01*
X196457809Y-78688477D02*
X196457809Y-77688477D01*
X196457809Y-77688477D02*
X196362571Y-77831334D01*
X196362571Y-77831334D02*
X196267333Y-77926572D01*
X196267333Y-77926572D02*
X196172095Y-77974191D01*
X197362571Y-77688477D02*
X197457809Y-77688477D01*
X197457809Y-77688477D02*
X197553047Y-77736096D01*
X197553047Y-77736096D02*
X197600666Y-77783715D01*
X197600666Y-77783715D02*
X197648285Y-77878953D01*
X197648285Y-77878953D02*
X197695904Y-78069429D01*
X197695904Y-78069429D02*
X197695904Y-78307524D01*
X197695904Y-78307524D02*
X197648285Y-78498000D01*
X197648285Y-78498000D02*
X197600666Y-78593238D01*
X197600666Y-78593238D02*
X197553047Y-78640858D01*
X197553047Y-78640858D02*
X197457809Y-78688477D01*
X197457809Y-78688477D02*
X197362571Y-78688477D01*
X197362571Y-78688477D02*
X197267333Y-78640858D01*
X197267333Y-78640858D02*
X197219714Y-78593238D01*
X197219714Y-78593238D02*
X197172095Y-78498000D01*
X197172095Y-78498000D02*
X197124476Y-78307524D01*
X197124476Y-78307524D02*
X197124476Y-78069429D01*
X197124476Y-78069429D02*
X197172095Y-77878953D01*
X197172095Y-77878953D02*
X197219714Y-77783715D01*
X197219714Y-77783715D02*
X197267333Y-77736096D01*
X197267333Y-77736096D02*
X197362571Y-77688477D01*
X172264333Y-128602238D02*
X172216714Y-128649858D01*
X172216714Y-128649858D02*
X172073857Y-128697477D01*
X172073857Y-128697477D02*
X171978619Y-128697477D01*
X171978619Y-128697477D02*
X171835762Y-128649858D01*
X171835762Y-128649858D02*
X171740524Y-128554619D01*
X171740524Y-128554619D02*
X171692905Y-128459381D01*
X171692905Y-128459381D02*
X171645286Y-128268905D01*
X171645286Y-128268905D02*
X171645286Y-128126048D01*
X171645286Y-128126048D02*
X171692905Y-127935572D01*
X171692905Y-127935572D02*
X171740524Y-127840334D01*
X171740524Y-127840334D02*
X171835762Y-127745096D01*
X171835762Y-127745096D02*
X171978619Y-127697477D01*
X171978619Y-127697477D02*
X172073857Y-127697477D01*
X172073857Y-127697477D02*
X172216714Y-127745096D01*
X172216714Y-127745096D02*
X172264333Y-127792715D01*
X173121476Y-127697477D02*
X172931000Y-127697477D01*
X172931000Y-127697477D02*
X172835762Y-127745096D01*
X172835762Y-127745096D02*
X172788143Y-127792715D01*
X172788143Y-127792715D02*
X172692905Y-127935572D01*
X172692905Y-127935572D02*
X172645286Y-128126048D01*
X172645286Y-128126048D02*
X172645286Y-128507000D01*
X172645286Y-128507000D02*
X172692905Y-128602238D01*
X172692905Y-128602238D02*
X172740524Y-128649858D01*
X172740524Y-128649858D02*
X172835762Y-128697477D01*
X172835762Y-128697477D02*
X173026238Y-128697477D01*
X173026238Y-128697477D02*
X173121476Y-128649858D01*
X173121476Y-128649858D02*
X173169095Y-128602238D01*
X173169095Y-128602238D02*
X173216714Y-128507000D01*
X173216714Y-128507000D02*
X173216714Y-128268905D01*
X173216714Y-128268905D02*
X173169095Y-128173667D01*
X173169095Y-128173667D02*
X173121476Y-128126048D01*
X173121476Y-128126048D02*
X173026238Y-128078429D01*
X173026238Y-128078429D02*
X172835762Y-128078429D01*
X172835762Y-128078429D02*
X172740524Y-128126048D01*
X172740524Y-128126048D02*
X172692905Y-128173667D01*
X172692905Y-128173667D02*
X172645286Y-128268905D01*
X175502580Y-125234324D02*
X175550200Y-125281943D01*
X175550200Y-125281943D02*
X175597819Y-125424800D01*
X175597819Y-125424800D02*
X175597819Y-125520038D01*
X175597819Y-125520038D02*
X175550200Y-125662895D01*
X175550200Y-125662895D02*
X175454961Y-125758133D01*
X175454961Y-125758133D02*
X175359723Y-125805752D01*
X175359723Y-125805752D02*
X175169247Y-125853371D01*
X175169247Y-125853371D02*
X175026390Y-125853371D01*
X175026390Y-125853371D02*
X174835914Y-125805752D01*
X174835914Y-125805752D02*
X174740676Y-125758133D01*
X174740676Y-125758133D02*
X174645438Y-125662895D01*
X174645438Y-125662895D02*
X174597819Y-125520038D01*
X174597819Y-125520038D02*
X174597819Y-125424800D01*
X174597819Y-125424800D02*
X174645438Y-125281943D01*
X174645438Y-125281943D02*
X174693057Y-125234324D01*
X174597819Y-124900990D02*
X174597819Y-124234324D01*
X174597819Y-124234324D02*
X175597819Y-124662895D01*
X167438333Y-128570477D02*
X167105000Y-128094286D01*
X166866905Y-128570477D02*
X166866905Y-127570477D01*
X166866905Y-127570477D02*
X167247857Y-127570477D01*
X167247857Y-127570477D02*
X167343095Y-127618096D01*
X167343095Y-127618096D02*
X167390714Y-127665715D01*
X167390714Y-127665715D02*
X167438333Y-127760953D01*
X167438333Y-127760953D02*
X167438333Y-127903810D01*
X167438333Y-127903810D02*
X167390714Y-127999048D01*
X167390714Y-127999048D02*
X167343095Y-128046667D01*
X167343095Y-128046667D02*
X167247857Y-128094286D01*
X167247857Y-128094286D02*
X166866905Y-128094286D01*
X168343095Y-127570477D02*
X167866905Y-127570477D01*
X167866905Y-127570477D02*
X167819286Y-128046667D01*
X167819286Y-128046667D02*
X167866905Y-127999048D01*
X167866905Y-127999048D02*
X167962143Y-127951429D01*
X167962143Y-127951429D02*
X168200238Y-127951429D01*
X168200238Y-127951429D02*
X168295476Y-127999048D01*
X168295476Y-127999048D02*
X168343095Y-128046667D01*
X168343095Y-128046667D02*
X168390714Y-128141905D01*
X168390714Y-128141905D02*
X168390714Y-128380000D01*
X168390714Y-128380000D02*
X168343095Y-128475238D01*
X168343095Y-128475238D02*
X168295476Y-128522858D01*
X168295476Y-128522858D02*
X168200238Y-128570477D01*
X168200238Y-128570477D02*
X167962143Y-128570477D01*
X167962143Y-128570477D02*
X167866905Y-128522858D01*
X167866905Y-128522858D02*
X167819286Y-128475238D01*
X197283333Y-84501477D02*
X196950000Y-84025286D01*
X196711905Y-84501477D02*
X196711905Y-83501477D01*
X196711905Y-83501477D02*
X197092857Y-83501477D01*
X197092857Y-83501477D02*
X197188095Y-83549096D01*
X197188095Y-83549096D02*
X197235714Y-83596715D01*
X197235714Y-83596715D02*
X197283333Y-83691953D01*
X197283333Y-83691953D02*
X197283333Y-83834810D01*
X197283333Y-83834810D02*
X197235714Y-83930048D01*
X197235714Y-83930048D02*
X197188095Y-83977667D01*
X197188095Y-83977667D02*
X197092857Y-84025286D01*
X197092857Y-84025286D02*
X196711905Y-84025286D01*
X197854762Y-83930048D02*
X197759524Y-83882429D01*
X197759524Y-83882429D02*
X197711905Y-83834810D01*
X197711905Y-83834810D02*
X197664286Y-83739572D01*
X197664286Y-83739572D02*
X197664286Y-83691953D01*
X197664286Y-83691953D02*
X197711905Y-83596715D01*
X197711905Y-83596715D02*
X197759524Y-83549096D01*
X197759524Y-83549096D02*
X197854762Y-83501477D01*
X197854762Y-83501477D02*
X198045238Y-83501477D01*
X198045238Y-83501477D02*
X198140476Y-83549096D01*
X198140476Y-83549096D02*
X198188095Y-83596715D01*
X198188095Y-83596715D02*
X198235714Y-83691953D01*
X198235714Y-83691953D02*
X198235714Y-83739572D01*
X198235714Y-83739572D02*
X198188095Y-83834810D01*
X198188095Y-83834810D02*
X198140476Y-83882429D01*
X198140476Y-83882429D02*
X198045238Y-83930048D01*
X198045238Y-83930048D02*
X197854762Y-83930048D01*
X197854762Y-83930048D02*
X197759524Y-83977667D01*
X197759524Y-83977667D02*
X197711905Y-84025286D01*
X197711905Y-84025286D02*
X197664286Y-84120524D01*
X197664286Y-84120524D02*
X197664286Y-84311000D01*
X197664286Y-84311000D02*
X197711905Y-84406238D01*
X197711905Y-84406238D02*
X197759524Y-84453858D01*
X197759524Y-84453858D02*
X197854762Y-84501477D01*
X197854762Y-84501477D02*
X198045238Y-84501477D01*
X198045238Y-84501477D02*
X198140476Y-84453858D01*
X198140476Y-84453858D02*
X198188095Y-84406238D01*
X198188095Y-84406238D02*
X198235714Y-84311000D01*
X198235714Y-84311000D02*
X198235714Y-84120524D01*
X198235714Y-84120524D02*
X198188095Y-84025286D01*
X198188095Y-84025286D02*
X198140476Y-83977667D01*
X198140476Y-83977667D02*
X198045238Y-83930048D01*
X176868142Y-70026238D02*
X176820523Y-70073858D01*
X176820523Y-70073858D02*
X176677666Y-70121477D01*
X176677666Y-70121477D02*
X176582428Y-70121477D01*
X176582428Y-70121477D02*
X176439571Y-70073858D01*
X176439571Y-70073858D02*
X176344333Y-69978619D01*
X176344333Y-69978619D02*
X176296714Y-69883381D01*
X176296714Y-69883381D02*
X176249095Y-69692905D01*
X176249095Y-69692905D02*
X176249095Y-69550048D01*
X176249095Y-69550048D02*
X176296714Y-69359572D01*
X176296714Y-69359572D02*
X176344333Y-69264334D01*
X176344333Y-69264334D02*
X176439571Y-69169096D01*
X176439571Y-69169096D02*
X176582428Y-69121477D01*
X176582428Y-69121477D02*
X176677666Y-69121477D01*
X176677666Y-69121477D02*
X176820523Y-69169096D01*
X176820523Y-69169096D02*
X176868142Y-69216715D01*
X177820523Y-70121477D02*
X177249095Y-70121477D01*
X177534809Y-70121477D02*
X177534809Y-69121477D01*
X177534809Y-69121477D02*
X177439571Y-69264334D01*
X177439571Y-69264334D02*
X177344333Y-69359572D01*
X177344333Y-69359572D02*
X177249095Y-69407191D01*
X178677666Y-69454810D02*
X178677666Y-70121477D01*
X178439571Y-69073858D02*
X178201476Y-69788143D01*
X178201476Y-69788143D02*
X178820523Y-69788143D01*
X155929095Y-76973477D02*
X156500523Y-76973477D01*
X156214809Y-77973477D02*
X156214809Y-76973477D01*
X156833857Y-77973477D02*
X156833857Y-76973477D01*
X156833857Y-76973477D02*
X157214809Y-76973477D01*
X157214809Y-76973477D02*
X157310047Y-77021096D01*
X157310047Y-77021096D02*
X157357666Y-77068715D01*
X157357666Y-77068715D02*
X157405285Y-77163953D01*
X157405285Y-77163953D02*
X157405285Y-77306810D01*
X157405285Y-77306810D02*
X157357666Y-77402048D01*
X157357666Y-77402048D02*
X157310047Y-77449667D01*
X157310047Y-77449667D02*
X157214809Y-77497286D01*
X157214809Y-77497286D02*
X156833857Y-77497286D01*
X158262428Y-77306810D02*
X158262428Y-77973477D01*
X158024333Y-76925858D02*
X157786238Y-77640143D01*
X157786238Y-77640143D02*
X158405285Y-77640143D01*
X207911666Y-98325477D02*
X207911666Y-99039762D01*
X207911666Y-99039762D02*
X207864047Y-99182619D01*
X207864047Y-99182619D02*
X207768809Y-99277858D01*
X207768809Y-99277858D02*
X207625952Y-99325477D01*
X207625952Y-99325477D02*
X207530714Y-99325477D01*
X208911666Y-99325477D02*
X208340238Y-99325477D01*
X208625952Y-99325477D02*
X208625952Y-98325477D01*
X208625952Y-98325477D02*
X208530714Y-98468334D01*
X208530714Y-98468334D02*
X208435476Y-98563572D01*
X208435476Y-98563572D02*
X208340238Y-98611191D01*
X205025666Y-83147819D02*
X205025666Y-83862104D01*
X205025666Y-83862104D02*
X204978047Y-84004961D01*
X204978047Y-84004961D02*
X204882809Y-84100200D01*
X204882809Y-84100200D02*
X204739952Y-84147819D01*
X204739952Y-84147819D02*
X204644714Y-84147819D01*
X205644714Y-83576390D02*
X205549476Y-83528771D01*
X205549476Y-83528771D02*
X205501857Y-83481152D01*
X205501857Y-83481152D02*
X205454238Y-83385914D01*
X205454238Y-83385914D02*
X205454238Y-83338295D01*
X205454238Y-83338295D02*
X205501857Y-83243057D01*
X205501857Y-83243057D02*
X205549476Y-83195438D01*
X205549476Y-83195438D02*
X205644714Y-83147819D01*
X205644714Y-83147819D02*
X205835190Y-83147819D01*
X205835190Y-83147819D02*
X205930428Y-83195438D01*
X205930428Y-83195438D02*
X205978047Y-83243057D01*
X205978047Y-83243057D02*
X206025666Y-83338295D01*
X206025666Y-83338295D02*
X206025666Y-83385914D01*
X206025666Y-83385914D02*
X205978047Y-83481152D01*
X205978047Y-83481152D02*
X205930428Y-83528771D01*
X205930428Y-83528771D02*
X205835190Y-83576390D01*
X205835190Y-83576390D02*
X205644714Y-83576390D01*
X205644714Y-83576390D02*
X205549476Y-83624009D01*
X205549476Y-83624009D02*
X205501857Y-83671628D01*
X205501857Y-83671628D02*
X205454238Y-83766866D01*
X205454238Y-83766866D02*
X205454238Y-83957342D01*
X205454238Y-83957342D02*
X205501857Y-84052580D01*
X205501857Y-84052580D02*
X205549476Y-84100200D01*
X205549476Y-84100200D02*
X205644714Y-84147819D01*
X205644714Y-84147819D02*
X205835190Y-84147819D01*
X205835190Y-84147819D02*
X205930428Y-84100200D01*
X205930428Y-84100200D02*
X205978047Y-84052580D01*
X205978047Y-84052580D02*
X206025666Y-83957342D01*
X206025666Y-83957342D02*
X206025666Y-83766866D01*
X206025666Y-83766866D02*
X205978047Y-83671628D01*
X205978047Y-83671628D02*
X205930428Y-83624009D01*
X205930428Y-83624009D02*
X205835190Y-83576390D01*
X181821142Y-70151477D02*
X181487809Y-69675286D01*
X181249714Y-70151477D02*
X181249714Y-69151477D01*
X181249714Y-69151477D02*
X181630666Y-69151477D01*
X181630666Y-69151477D02*
X181725904Y-69199096D01*
X181725904Y-69199096D02*
X181773523Y-69246715D01*
X181773523Y-69246715D02*
X181821142Y-69341953D01*
X181821142Y-69341953D02*
X181821142Y-69484810D01*
X181821142Y-69484810D02*
X181773523Y-69580048D01*
X181773523Y-69580048D02*
X181725904Y-69627667D01*
X181725904Y-69627667D02*
X181630666Y-69675286D01*
X181630666Y-69675286D02*
X181249714Y-69675286D01*
X182773523Y-70151477D02*
X182202095Y-70151477D01*
X182487809Y-70151477D02*
X182487809Y-69151477D01*
X182487809Y-69151477D02*
X182392571Y-69294334D01*
X182392571Y-69294334D02*
X182297333Y-69389572D01*
X182297333Y-69389572D02*
X182202095Y-69437191D01*
X183106857Y-69151477D02*
X183773523Y-69151477D01*
X183773523Y-69151477D02*
X183344952Y-70151477D01*
X168677095Y-112210477D02*
X168677095Y-113020000D01*
X168677095Y-113020000D02*
X168724714Y-113115238D01*
X168724714Y-113115238D02*
X168772333Y-113162858D01*
X168772333Y-113162858D02*
X168867571Y-113210477D01*
X168867571Y-113210477D02*
X169058047Y-113210477D01*
X169058047Y-113210477D02*
X169153285Y-113162858D01*
X169153285Y-113162858D02*
X169200904Y-113115238D01*
X169200904Y-113115238D02*
X169248523Y-113020000D01*
X169248523Y-113020000D02*
X169248523Y-112210477D01*
X169677095Y-112305715D02*
X169724714Y-112258096D01*
X169724714Y-112258096D02*
X169819952Y-112210477D01*
X169819952Y-112210477D02*
X170058047Y-112210477D01*
X170058047Y-112210477D02*
X170153285Y-112258096D01*
X170153285Y-112258096D02*
X170200904Y-112305715D01*
X170200904Y-112305715D02*
X170248523Y-112400953D01*
X170248523Y-112400953D02*
X170248523Y-112496191D01*
X170248523Y-112496191D02*
X170200904Y-112639048D01*
X170200904Y-112639048D02*
X169629476Y-113210477D01*
X169629476Y-113210477D02*
X170248523Y-113210477D01*
X151341142Y-84533238D02*
X151293523Y-84580858D01*
X151293523Y-84580858D02*
X151150666Y-84628477D01*
X151150666Y-84628477D02*
X151055428Y-84628477D01*
X151055428Y-84628477D02*
X150912571Y-84580858D01*
X150912571Y-84580858D02*
X150817333Y-84485619D01*
X150817333Y-84485619D02*
X150769714Y-84390381D01*
X150769714Y-84390381D02*
X150722095Y-84199905D01*
X150722095Y-84199905D02*
X150722095Y-84057048D01*
X150722095Y-84057048D02*
X150769714Y-83866572D01*
X150769714Y-83866572D02*
X150817333Y-83771334D01*
X150817333Y-83771334D02*
X150912571Y-83676096D01*
X150912571Y-83676096D02*
X151055428Y-83628477D01*
X151055428Y-83628477D02*
X151150666Y-83628477D01*
X151150666Y-83628477D02*
X151293523Y-83676096D01*
X151293523Y-83676096D02*
X151341142Y-83723715D01*
X152293523Y-84628477D02*
X151722095Y-84628477D01*
X152007809Y-84628477D02*
X152007809Y-83628477D01*
X152007809Y-83628477D02*
X151912571Y-83771334D01*
X151912571Y-83771334D02*
X151817333Y-83866572D01*
X151817333Y-83866572D02*
X151722095Y-83914191D01*
X152674476Y-83723715D02*
X152722095Y-83676096D01*
X152722095Y-83676096D02*
X152817333Y-83628477D01*
X152817333Y-83628477D02*
X153055428Y-83628477D01*
X153055428Y-83628477D02*
X153150666Y-83676096D01*
X153150666Y-83676096D02*
X153198285Y-83723715D01*
X153198285Y-83723715D02*
X153245904Y-83818953D01*
X153245904Y-83818953D02*
X153245904Y-83914191D01*
X153245904Y-83914191D02*
X153198285Y-84057048D01*
X153198285Y-84057048D02*
X152626857Y-84628477D01*
X152626857Y-84628477D02*
X153245904Y-84628477D01*
X151015666Y-72762477D02*
X151015666Y-73476762D01*
X151015666Y-73476762D02*
X150968047Y-73619619D01*
X150968047Y-73619619D02*
X150872809Y-73714858D01*
X150872809Y-73714858D02*
X150729952Y-73762477D01*
X150729952Y-73762477D02*
X150634714Y-73762477D01*
X151920428Y-72762477D02*
X151729952Y-72762477D01*
X151729952Y-72762477D02*
X151634714Y-72810096D01*
X151634714Y-72810096D02*
X151587095Y-72857715D01*
X151587095Y-72857715D02*
X151491857Y-73000572D01*
X151491857Y-73000572D02*
X151444238Y-73191048D01*
X151444238Y-73191048D02*
X151444238Y-73572000D01*
X151444238Y-73572000D02*
X151491857Y-73667238D01*
X151491857Y-73667238D02*
X151539476Y-73714858D01*
X151539476Y-73714858D02*
X151634714Y-73762477D01*
X151634714Y-73762477D02*
X151825190Y-73762477D01*
X151825190Y-73762477D02*
X151920428Y-73714858D01*
X151920428Y-73714858D02*
X151968047Y-73667238D01*
X151968047Y-73667238D02*
X152015666Y-73572000D01*
X152015666Y-73572000D02*
X152015666Y-73333905D01*
X152015666Y-73333905D02*
X151968047Y-73238667D01*
X151968047Y-73238667D02*
X151920428Y-73191048D01*
X151920428Y-73191048D02*
X151825190Y-73143429D01*
X151825190Y-73143429D02*
X151634714Y-73143429D01*
X151634714Y-73143429D02*
X151539476Y-73191048D01*
X151539476Y-73191048D02*
X151491857Y-73238667D01*
X151491857Y-73238667D02*
X151444238Y-73333905D01*
X148134333Y-78945238D02*
X148086714Y-78992858D01*
X148086714Y-78992858D02*
X147943857Y-79040477D01*
X147943857Y-79040477D02*
X147848619Y-79040477D01*
X147848619Y-79040477D02*
X147705762Y-78992858D01*
X147705762Y-78992858D02*
X147610524Y-78897619D01*
X147610524Y-78897619D02*
X147562905Y-78802381D01*
X147562905Y-78802381D02*
X147515286Y-78611905D01*
X147515286Y-78611905D02*
X147515286Y-78469048D01*
X147515286Y-78469048D02*
X147562905Y-78278572D01*
X147562905Y-78278572D02*
X147610524Y-78183334D01*
X147610524Y-78183334D02*
X147705762Y-78088096D01*
X147705762Y-78088096D02*
X147848619Y-78040477D01*
X147848619Y-78040477D02*
X147943857Y-78040477D01*
X147943857Y-78040477D02*
X148086714Y-78088096D01*
X148086714Y-78088096D02*
X148134333Y-78135715D01*
X148610524Y-79040477D02*
X148801000Y-79040477D01*
X148801000Y-79040477D02*
X148896238Y-78992858D01*
X148896238Y-78992858D02*
X148943857Y-78945238D01*
X148943857Y-78945238D02*
X149039095Y-78802381D01*
X149039095Y-78802381D02*
X149086714Y-78611905D01*
X149086714Y-78611905D02*
X149086714Y-78230953D01*
X149086714Y-78230953D02*
X149039095Y-78135715D01*
X149039095Y-78135715D02*
X148991476Y-78088096D01*
X148991476Y-78088096D02*
X148896238Y-78040477D01*
X148896238Y-78040477D02*
X148705762Y-78040477D01*
X148705762Y-78040477D02*
X148610524Y-78088096D01*
X148610524Y-78088096D02*
X148562905Y-78135715D01*
X148562905Y-78135715D02*
X148515286Y-78230953D01*
X148515286Y-78230953D02*
X148515286Y-78469048D01*
X148515286Y-78469048D02*
X148562905Y-78564286D01*
X148562905Y-78564286D02*
X148610524Y-78611905D01*
X148610524Y-78611905D02*
X148705762Y-78659524D01*
X148705762Y-78659524D02*
X148896238Y-78659524D01*
X148896238Y-78659524D02*
X148991476Y-78611905D01*
X148991476Y-78611905D02*
X149039095Y-78564286D01*
X149039095Y-78564286D02*
X149086714Y-78469048D01*
X184583333Y-112600238D02*
X184535714Y-112647858D01*
X184535714Y-112647858D02*
X184392857Y-112695477D01*
X184392857Y-112695477D02*
X184297619Y-112695477D01*
X184297619Y-112695477D02*
X184154762Y-112647858D01*
X184154762Y-112647858D02*
X184059524Y-112552619D01*
X184059524Y-112552619D02*
X184011905Y-112457381D01*
X184011905Y-112457381D02*
X183964286Y-112266905D01*
X183964286Y-112266905D02*
X183964286Y-112124048D01*
X183964286Y-112124048D02*
X184011905Y-111933572D01*
X184011905Y-111933572D02*
X184059524Y-111838334D01*
X184059524Y-111838334D02*
X184154762Y-111743096D01*
X184154762Y-111743096D02*
X184297619Y-111695477D01*
X184297619Y-111695477D02*
X184392857Y-111695477D01*
X184392857Y-111695477D02*
X184535714Y-111743096D01*
X184535714Y-111743096D02*
X184583333Y-111790715D01*
X184916667Y-111695477D02*
X185535714Y-111695477D01*
X185535714Y-111695477D02*
X185202381Y-112076429D01*
X185202381Y-112076429D02*
X185345238Y-112076429D01*
X185345238Y-112076429D02*
X185440476Y-112124048D01*
X185440476Y-112124048D02*
X185488095Y-112171667D01*
X185488095Y-112171667D02*
X185535714Y-112266905D01*
X185535714Y-112266905D02*
X185535714Y-112505000D01*
X185535714Y-112505000D02*
X185488095Y-112600238D01*
X185488095Y-112600238D02*
X185440476Y-112647858D01*
X185440476Y-112647858D02*
X185345238Y-112695477D01*
X185345238Y-112695477D02*
X185059524Y-112695477D01*
X185059524Y-112695477D02*
X184964286Y-112647858D01*
X184964286Y-112647858D02*
X184916667Y-112600238D01*
X169264095Y-88149477D02*
X169835523Y-88149477D01*
X169549809Y-89149477D02*
X169549809Y-88149477D01*
X170168857Y-89149477D02*
X170168857Y-88149477D01*
X170168857Y-88149477D02*
X170549809Y-88149477D01*
X170549809Y-88149477D02*
X170645047Y-88197096D01*
X170645047Y-88197096D02*
X170692666Y-88244715D01*
X170692666Y-88244715D02*
X170740285Y-88339953D01*
X170740285Y-88339953D02*
X170740285Y-88482810D01*
X170740285Y-88482810D02*
X170692666Y-88578048D01*
X170692666Y-88578048D02*
X170645047Y-88625667D01*
X170645047Y-88625667D02*
X170549809Y-88673286D01*
X170549809Y-88673286D02*
X170168857Y-88673286D01*
X171073619Y-88149477D02*
X171692666Y-88149477D01*
X171692666Y-88149477D02*
X171359333Y-88530429D01*
X171359333Y-88530429D02*
X171502190Y-88530429D01*
X171502190Y-88530429D02*
X171597428Y-88578048D01*
X171597428Y-88578048D02*
X171645047Y-88625667D01*
X171645047Y-88625667D02*
X171692666Y-88720905D01*
X171692666Y-88720905D02*
X171692666Y-88959000D01*
X171692666Y-88959000D02*
X171645047Y-89054238D01*
X171645047Y-89054238D02*
X171597428Y-89101858D01*
X171597428Y-89101858D02*
X171502190Y-89149477D01*
X171502190Y-89149477D02*
X171216476Y-89149477D01*
X171216476Y-89149477D02*
X171121238Y-89101858D01*
X171121238Y-89101858D02*
X171073619Y-89054238D01*
X153902642Y-88978238D02*
X153855023Y-89025858D01*
X153855023Y-89025858D02*
X153712166Y-89073477D01*
X153712166Y-89073477D02*
X153616928Y-89073477D01*
X153616928Y-89073477D02*
X153474071Y-89025858D01*
X153474071Y-89025858D02*
X153378833Y-88930619D01*
X153378833Y-88930619D02*
X153331214Y-88835381D01*
X153331214Y-88835381D02*
X153283595Y-88644905D01*
X153283595Y-88644905D02*
X153283595Y-88502048D01*
X153283595Y-88502048D02*
X153331214Y-88311572D01*
X153331214Y-88311572D02*
X153378833Y-88216334D01*
X153378833Y-88216334D02*
X153474071Y-88121096D01*
X153474071Y-88121096D02*
X153616928Y-88073477D01*
X153616928Y-88073477D02*
X153712166Y-88073477D01*
X153712166Y-88073477D02*
X153855023Y-88121096D01*
X153855023Y-88121096D02*
X153902642Y-88168715D01*
X154855023Y-89073477D02*
X154283595Y-89073477D01*
X154569309Y-89073477D02*
X154569309Y-88073477D01*
X154569309Y-88073477D02*
X154474071Y-88216334D01*
X154474071Y-88216334D02*
X154378833Y-88311572D01*
X154378833Y-88311572D02*
X154283595Y-88359191D01*
X155807404Y-89073477D02*
X155235976Y-89073477D01*
X155521690Y-89073477D02*
X155521690Y-88073477D01*
X155521690Y-88073477D02*
X155426452Y-88216334D01*
X155426452Y-88216334D02*
X155331214Y-88311572D01*
X155331214Y-88311572D02*
X155235976Y-88359191D01*
X185131095Y-72579477D02*
X185131095Y-73389000D01*
X185131095Y-73389000D02*
X185178714Y-73484238D01*
X185178714Y-73484238D02*
X185226333Y-73531858D01*
X185226333Y-73531858D02*
X185321571Y-73579477D01*
X185321571Y-73579477D02*
X185512047Y-73579477D01*
X185512047Y-73579477D02*
X185607285Y-73531858D01*
X185607285Y-73531858D02*
X185654904Y-73484238D01*
X185654904Y-73484238D02*
X185702523Y-73389000D01*
X185702523Y-73389000D02*
X185702523Y-72579477D01*
X186607285Y-72912810D02*
X186607285Y-73579477D01*
X186369190Y-72531858D02*
X186131095Y-73246143D01*
X186131095Y-73246143D02*
X186750142Y-73246143D01*
X186712095Y-100850477D02*
X186712095Y-101660000D01*
X186712095Y-101660000D02*
X186759714Y-101755238D01*
X186759714Y-101755238D02*
X186807333Y-101802858D01*
X186807333Y-101802858D02*
X186902571Y-101850477D01*
X186902571Y-101850477D02*
X187093047Y-101850477D01*
X187093047Y-101850477D02*
X187188285Y-101802858D01*
X187188285Y-101802858D02*
X187235904Y-101755238D01*
X187235904Y-101755238D02*
X187283523Y-101660000D01*
X187283523Y-101660000D02*
X187283523Y-100850477D01*
X188283523Y-101850477D02*
X187712095Y-101850477D01*
X187997809Y-101850477D02*
X187997809Y-100850477D01*
X187997809Y-100850477D02*
X187902571Y-100993334D01*
X187902571Y-100993334D02*
X187807333Y-101088572D01*
X187807333Y-101088572D02*
X187712095Y-101136191D01*
X155913142Y-94280477D02*
X155579809Y-93804286D01*
X155341714Y-94280477D02*
X155341714Y-93280477D01*
X155341714Y-93280477D02*
X155722666Y-93280477D01*
X155722666Y-93280477D02*
X155817904Y-93328096D01*
X155817904Y-93328096D02*
X155865523Y-93375715D01*
X155865523Y-93375715D02*
X155913142Y-93470953D01*
X155913142Y-93470953D02*
X155913142Y-93613810D01*
X155913142Y-93613810D02*
X155865523Y-93709048D01*
X155865523Y-93709048D02*
X155817904Y-93756667D01*
X155817904Y-93756667D02*
X155722666Y-93804286D01*
X155722666Y-93804286D02*
X155341714Y-93804286D01*
X156865523Y-94280477D02*
X156294095Y-94280477D01*
X156579809Y-94280477D02*
X156579809Y-93280477D01*
X156579809Y-93280477D02*
X156484571Y-93423334D01*
X156484571Y-93423334D02*
X156389333Y-93518572D01*
X156389333Y-93518572D02*
X156294095Y-93566191D01*
X157198857Y-93280477D02*
X157817904Y-93280477D01*
X157817904Y-93280477D02*
X157484571Y-93661429D01*
X157484571Y-93661429D02*
X157627428Y-93661429D01*
X157627428Y-93661429D02*
X157722666Y-93709048D01*
X157722666Y-93709048D02*
X157770285Y-93756667D01*
X157770285Y-93756667D02*
X157817904Y-93851905D01*
X157817904Y-93851905D02*
X157817904Y-94090000D01*
X157817904Y-94090000D02*
X157770285Y-94185238D01*
X157770285Y-94185238D02*
X157722666Y-94232858D01*
X157722666Y-94232858D02*
X157627428Y-94280477D01*
X157627428Y-94280477D02*
X157341714Y-94280477D01*
X157341714Y-94280477D02*
X157246476Y-94232858D01*
X157246476Y-94232858D02*
X157198857Y-94185238D01*
X188901333Y-71706238D02*
X188853714Y-71753858D01*
X188853714Y-71753858D02*
X188710857Y-71801477D01*
X188710857Y-71801477D02*
X188615619Y-71801477D01*
X188615619Y-71801477D02*
X188472762Y-71753858D01*
X188472762Y-71753858D02*
X188377524Y-71658619D01*
X188377524Y-71658619D02*
X188329905Y-71563381D01*
X188329905Y-71563381D02*
X188282286Y-71372905D01*
X188282286Y-71372905D02*
X188282286Y-71230048D01*
X188282286Y-71230048D02*
X188329905Y-71039572D01*
X188329905Y-71039572D02*
X188377524Y-70944334D01*
X188377524Y-70944334D02*
X188472762Y-70849096D01*
X188472762Y-70849096D02*
X188615619Y-70801477D01*
X188615619Y-70801477D02*
X188710857Y-70801477D01*
X188710857Y-70801477D02*
X188853714Y-70849096D01*
X188853714Y-70849096D02*
X188901333Y-70896715D01*
X189472762Y-71230048D02*
X189377524Y-71182429D01*
X189377524Y-71182429D02*
X189329905Y-71134810D01*
X189329905Y-71134810D02*
X189282286Y-71039572D01*
X189282286Y-71039572D02*
X189282286Y-70991953D01*
X189282286Y-70991953D02*
X189329905Y-70896715D01*
X189329905Y-70896715D02*
X189377524Y-70849096D01*
X189377524Y-70849096D02*
X189472762Y-70801477D01*
X189472762Y-70801477D02*
X189663238Y-70801477D01*
X189663238Y-70801477D02*
X189758476Y-70849096D01*
X189758476Y-70849096D02*
X189806095Y-70896715D01*
X189806095Y-70896715D02*
X189853714Y-70991953D01*
X189853714Y-70991953D02*
X189853714Y-71039572D01*
X189853714Y-71039572D02*
X189806095Y-71134810D01*
X189806095Y-71134810D02*
X189758476Y-71182429D01*
X189758476Y-71182429D02*
X189663238Y-71230048D01*
X189663238Y-71230048D02*
X189472762Y-71230048D01*
X189472762Y-71230048D02*
X189377524Y-71277667D01*
X189377524Y-71277667D02*
X189329905Y-71325286D01*
X189329905Y-71325286D02*
X189282286Y-71420524D01*
X189282286Y-71420524D02*
X189282286Y-71611000D01*
X189282286Y-71611000D02*
X189329905Y-71706238D01*
X189329905Y-71706238D02*
X189377524Y-71753858D01*
X189377524Y-71753858D02*
X189472762Y-71801477D01*
X189472762Y-71801477D02*
X189663238Y-71801477D01*
X189663238Y-71801477D02*
X189758476Y-71753858D01*
X189758476Y-71753858D02*
X189806095Y-71706238D01*
X189806095Y-71706238D02*
X189853714Y-71611000D01*
X189853714Y-71611000D02*
X189853714Y-71420524D01*
X189853714Y-71420524D02*
X189806095Y-71325286D01*
X189806095Y-71325286D02*
X189758476Y-71277667D01*
X189758476Y-71277667D02*
X189663238Y-71230048D01*
X191307333Y-100792738D02*
X191259714Y-100840358D01*
X191259714Y-100840358D02*
X191116857Y-100887977D01*
X191116857Y-100887977D02*
X191021619Y-100887977D01*
X191021619Y-100887977D02*
X190878762Y-100840358D01*
X190878762Y-100840358D02*
X190783524Y-100745119D01*
X190783524Y-100745119D02*
X190735905Y-100649881D01*
X190735905Y-100649881D02*
X190688286Y-100459405D01*
X190688286Y-100459405D02*
X190688286Y-100316548D01*
X190688286Y-100316548D02*
X190735905Y-100126072D01*
X190735905Y-100126072D02*
X190783524Y-100030834D01*
X190783524Y-100030834D02*
X190878762Y-99935596D01*
X190878762Y-99935596D02*
X191021619Y-99887977D01*
X191021619Y-99887977D02*
X191116857Y-99887977D01*
X191116857Y-99887977D02*
X191259714Y-99935596D01*
X191259714Y-99935596D02*
X191307333Y-99983215D01*
X192259714Y-100887977D02*
X191688286Y-100887977D01*
X191974000Y-100887977D02*
X191974000Y-99887977D01*
X191974000Y-99887977D02*
X191878762Y-100030834D01*
X191878762Y-100030834D02*
X191783524Y-100126072D01*
X191783524Y-100126072D02*
X191688286Y-100173691D01*
X159858095Y-82539477D02*
X159858095Y-83349000D01*
X159858095Y-83349000D02*
X159905714Y-83444238D01*
X159905714Y-83444238D02*
X159953333Y-83491858D01*
X159953333Y-83491858D02*
X160048571Y-83539477D01*
X160048571Y-83539477D02*
X160239047Y-83539477D01*
X160239047Y-83539477D02*
X160334285Y-83491858D01*
X160334285Y-83491858D02*
X160381904Y-83444238D01*
X160381904Y-83444238D02*
X160429523Y-83349000D01*
X160429523Y-83349000D02*
X160429523Y-82539477D01*
X160810476Y-82539477D02*
X161429523Y-82539477D01*
X161429523Y-82539477D02*
X161096190Y-82920429D01*
X161096190Y-82920429D02*
X161239047Y-82920429D01*
X161239047Y-82920429D02*
X161334285Y-82968048D01*
X161334285Y-82968048D02*
X161381904Y-83015667D01*
X161381904Y-83015667D02*
X161429523Y-83110905D01*
X161429523Y-83110905D02*
X161429523Y-83349000D01*
X161429523Y-83349000D02*
X161381904Y-83444238D01*
X161381904Y-83444238D02*
X161334285Y-83491858D01*
X161334285Y-83491858D02*
X161239047Y-83539477D01*
X161239047Y-83539477D02*
X160953333Y-83539477D01*
X160953333Y-83539477D02*
X160858095Y-83491858D01*
X160858095Y-83491858D02*
X160810476Y-83444238D01*
X172190642Y-69261477D02*
X171857309Y-68785286D01*
X171619214Y-69261477D02*
X171619214Y-68261477D01*
X171619214Y-68261477D02*
X172000166Y-68261477D01*
X172000166Y-68261477D02*
X172095404Y-68309096D01*
X172095404Y-68309096D02*
X172143023Y-68356715D01*
X172143023Y-68356715D02*
X172190642Y-68451953D01*
X172190642Y-68451953D02*
X172190642Y-68594810D01*
X172190642Y-68594810D02*
X172143023Y-68690048D01*
X172143023Y-68690048D02*
X172095404Y-68737667D01*
X172095404Y-68737667D02*
X172000166Y-68785286D01*
X172000166Y-68785286D02*
X171619214Y-68785286D01*
X173143023Y-69261477D02*
X172571595Y-69261477D01*
X172857309Y-69261477D02*
X172857309Y-68261477D01*
X172857309Y-68261477D02*
X172762071Y-68404334D01*
X172762071Y-68404334D02*
X172666833Y-68499572D01*
X172666833Y-68499572D02*
X172571595Y-68547191D01*
X174000166Y-68261477D02*
X173809690Y-68261477D01*
X173809690Y-68261477D02*
X173714452Y-68309096D01*
X173714452Y-68309096D02*
X173666833Y-68356715D01*
X173666833Y-68356715D02*
X173571595Y-68499572D01*
X173571595Y-68499572D02*
X173523976Y-68690048D01*
X173523976Y-68690048D02*
X173523976Y-69071000D01*
X173523976Y-69071000D02*
X173571595Y-69166238D01*
X173571595Y-69166238D02*
X173619214Y-69213858D01*
X173619214Y-69213858D02*
X173714452Y-69261477D01*
X173714452Y-69261477D02*
X173904928Y-69261477D01*
X173904928Y-69261477D02*
X174000166Y-69213858D01*
X174000166Y-69213858D02*
X174047785Y-69166238D01*
X174047785Y-69166238D02*
X174095404Y-69071000D01*
X174095404Y-69071000D02*
X174095404Y-68832905D01*
X174095404Y-68832905D02*
X174047785Y-68737667D01*
X174047785Y-68737667D02*
X174000166Y-68690048D01*
X174000166Y-68690048D02*
X173904928Y-68642429D01*
X173904928Y-68642429D02*
X173714452Y-68642429D01*
X173714452Y-68642429D02*
X173619214Y-68690048D01*
X173619214Y-68690048D02*
X173571595Y-68737667D01*
X173571595Y-68737667D02*
X173523976Y-68832905D01*
X195777819Y-99897752D02*
X194777819Y-99897752D01*
X194777819Y-99897752D02*
X194777819Y-99659657D01*
X194777819Y-99659657D02*
X194825438Y-99516800D01*
X194825438Y-99516800D02*
X194920676Y-99421562D01*
X194920676Y-99421562D02*
X195015914Y-99373943D01*
X195015914Y-99373943D02*
X195206390Y-99326324D01*
X195206390Y-99326324D02*
X195349247Y-99326324D01*
X195349247Y-99326324D02*
X195539723Y-99373943D01*
X195539723Y-99373943D02*
X195634961Y-99421562D01*
X195634961Y-99421562D02*
X195730200Y-99516800D01*
X195730200Y-99516800D02*
X195777819Y-99659657D01*
X195777819Y-99659657D02*
X195777819Y-99897752D01*
X195111152Y-98469181D02*
X195777819Y-98469181D01*
X194730200Y-98707276D02*
X195444485Y-98945371D01*
X195444485Y-98945371D02*
X195444485Y-98326324D01*
X177827333Y-88082477D02*
X177494000Y-87606286D01*
X177255905Y-88082477D02*
X177255905Y-87082477D01*
X177255905Y-87082477D02*
X177636857Y-87082477D01*
X177636857Y-87082477D02*
X177732095Y-87130096D01*
X177732095Y-87130096D02*
X177779714Y-87177715D01*
X177779714Y-87177715D02*
X177827333Y-87272953D01*
X177827333Y-87272953D02*
X177827333Y-87415810D01*
X177827333Y-87415810D02*
X177779714Y-87511048D01*
X177779714Y-87511048D02*
X177732095Y-87558667D01*
X177732095Y-87558667D02*
X177636857Y-87606286D01*
X177636857Y-87606286D02*
X177255905Y-87606286D01*
X178160667Y-87082477D02*
X178827333Y-87082477D01*
X178827333Y-87082477D02*
X178398762Y-88082477D01*
X191798667Y-61534858D02*
X191941524Y-61582477D01*
X191941524Y-61582477D02*
X192179619Y-61582477D01*
X192179619Y-61582477D02*
X192274857Y-61534858D01*
X192274857Y-61534858D02*
X192322476Y-61487238D01*
X192322476Y-61487238D02*
X192370095Y-61392000D01*
X192370095Y-61392000D02*
X192370095Y-61296762D01*
X192370095Y-61296762D02*
X192322476Y-61201524D01*
X192322476Y-61201524D02*
X192274857Y-61153905D01*
X192274857Y-61153905D02*
X192179619Y-61106286D01*
X192179619Y-61106286D02*
X191989143Y-61058667D01*
X191989143Y-61058667D02*
X191893905Y-61011048D01*
X191893905Y-61011048D02*
X191846286Y-60963429D01*
X191846286Y-60963429D02*
X191798667Y-60868191D01*
X191798667Y-60868191D02*
X191798667Y-60772953D01*
X191798667Y-60772953D02*
X191846286Y-60677715D01*
X191846286Y-60677715D02*
X191893905Y-60630096D01*
X191893905Y-60630096D02*
X191989143Y-60582477D01*
X191989143Y-60582477D02*
X192227238Y-60582477D01*
X192227238Y-60582477D02*
X192370095Y-60630096D01*
X192703429Y-60582477D02*
X192941524Y-61582477D01*
X192941524Y-61582477D02*
X193132000Y-60868191D01*
X193132000Y-60868191D02*
X193322476Y-61582477D01*
X193322476Y-61582477D02*
X193560572Y-60582477D01*
X194465333Y-61582477D02*
X193893905Y-61582477D01*
X194179619Y-61582477D02*
X194179619Y-60582477D01*
X194179619Y-60582477D02*
X194084381Y-60725334D01*
X194084381Y-60725334D02*
X193989143Y-60820572D01*
X193989143Y-60820572D02*
X193893905Y-60868191D01*
X190100666Y-115800477D02*
X190100666Y-116514762D01*
X190100666Y-116514762D02*
X190053047Y-116657619D01*
X190053047Y-116657619D02*
X189957809Y-116752858D01*
X189957809Y-116752858D02*
X189814952Y-116800477D01*
X189814952Y-116800477D02*
X189719714Y-116800477D01*
X191005428Y-116133810D02*
X191005428Y-116800477D01*
X190767333Y-115752858D02*
X190529238Y-116467143D01*
X190529238Y-116467143D02*
X191148285Y-116467143D01*
X197463642Y-71928477D02*
X197130309Y-71452286D01*
X196892214Y-71928477D02*
X196892214Y-70928477D01*
X196892214Y-70928477D02*
X197273166Y-70928477D01*
X197273166Y-70928477D02*
X197368404Y-70976096D01*
X197368404Y-70976096D02*
X197416023Y-71023715D01*
X197416023Y-71023715D02*
X197463642Y-71118953D01*
X197463642Y-71118953D02*
X197463642Y-71261810D01*
X197463642Y-71261810D02*
X197416023Y-71357048D01*
X197416023Y-71357048D02*
X197368404Y-71404667D01*
X197368404Y-71404667D02*
X197273166Y-71452286D01*
X197273166Y-71452286D02*
X196892214Y-71452286D01*
X198416023Y-71928477D02*
X197844595Y-71928477D01*
X198130309Y-71928477D02*
X198130309Y-70928477D01*
X198130309Y-70928477D02*
X198035071Y-71071334D01*
X198035071Y-71071334D02*
X197939833Y-71166572D01*
X197939833Y-71166572D02*
X197844595Y-71214191D01*
X199273166Y-71261810D02*
X199273166Y-71928477D01*
X199035071Y-70880858D02*
X198796976Y-71595143D01*
X198796976Y-71595143D02*
X199416023Y-71595143D01*
X173343905Y-90597477D02*
X173343905Y-89597477D01*
X173343905Y-89597477D02*
X173582000Y-89597477D01*
X173582000Y-89597477D02*
X173724857Y-89645096D01*
X173724857Y-89645096D02*
X173820095Y-89740334D01*
X173820095Y-89740334D02*
X173867714Y-89835572D01*
X173867714Y-89835572D02*
X173915333Y-90026048D01*
X173915333Y-90026048D02*
X173915333Y-90168905D01*
X173915333Y-90168905D02*
X173867714Y-90359381D01*
X173867714Y-90359381D02*
X173820095Y-90454619D01*
X173820095Y-90454619D02*
X173724857Y-90549858D01*
X173724857Y-90549858D02*
X173582000Y-90597477D01*
X173582000Y-90597477D02*
X173343905Y-90597477D01*
X174296286Y-89692715D02*
X174343905Y-89645096D01*
X174343905Y-89645096D02*
X174439143Y-89597477D01*
X174439143Y-89597477D02*
X174677238Y-89597477D01*
X174677238Y-89597477D02*
X174772476Y-89645096D01*
X174772476Y-89645096D02*
X174820095Y-89692715D01*
X174820095Y-89692715D02*
X174867714Y-89787953D01*
X174867714Y-89787953D02*
X174867714Y-89883191D01*
X174867714Y-89883191D02*
X174820095Y-90026048D01*
X174820095Y-90026048D02*
X174248667Y-90597477D01*
X174248667Y-90597477D02*
X174867714Y-90597477D01*
X203962095Y-121907819D02*
X203962095Y-120907819D01*
X203962095Y-121384009D02*
X204533523Y-121384009D01*
X204533523Y-121907819D02*
X204533523Y-120907819D01*
X205438285Y-121241152D02*
X205438285Y-121907819D01*
X205200190Y-120860200D02*
X204962095Y-121574485D01*
X204962095Y-121574485D02*
X205581142Y-121574485D01*
X174595666Y-100750477D02*
X174595666Y-101464762D01*
X174595666Y-101464762D02*
X174548047Y-101607619D01*
X174548047Y-101607619D02*
X174452809Y-101702858D01*
X174452809Y-101702858D02*
X174309952Y-101750477D01*
X174309952Y-101750477D02*
X174214714Y-101750477D01*
X175548047Y-100750477D02*
X175071857Y-100750477D01*
X175071857Y-100750477D02*
X175024238Y-101226667D01*
X175024238Y-101226667D02*
X175071857Y-101179048D01*
X175071857Y-101179048D02*
X175167095Y-101131429D01*
X175167095Y-101131429D02*
X175405190Y-101131429D01*
X175405190Y-101131429D02*
X175500428Y-101179048D01*
X175500428Y-101179048D02*
X175548047Y-101226667D01*
X175548047Y-101226667D02*
X175595666Y-101321905D01*
X175595666Y-101321905D02*
X175595666Y-101560000D01*
X175595666Y-101560000D02*
X175548047Y-101655238D01*
X175548047Y-101655238D02*
X175500428Y-101702858D01*
X175500428Y-101702858D02*
X175405190Y-101750477D01*
X175405190Y-101750477D02*
X175167095Y-101750477D01*
X175167095Y-101750477D02*
X175071857Y-101702858D01*
X175071857Y-101702858D02*
X175024238Y-101655238D01*
X193140095Y-102500477D02*
X193711523Y-102500477D01*
X193425809Y-103500477D02*
X193425809Y-102500477D01*
X194044857Y-103500477D02*
X194044857Y-102500477D01*
X194044857Y-102500477D02*
X194425809Y-102500477D01*
X194425809Y-102500477D02*
X194521047Y-102548096D01*
X194521047Y-102548096D02*
X194568666Y-102595715D01*
X194568666Y-102595715D02*
X194616285Y-102690953D01*
X194616285Y-102690953D02*
X194616285Y-102833810D01*
X194616285Y-102833810D02*
X194568666Y-102929048D01*
X194568666Y-102929048D02*
X194521047Y-102976667D01*
X194521047Y-102976667D02*
X194425809Y-103024286D01*
X194425809Y-103024286D02*
X194044857Y-103024286D01*
X195568666Y-103500477D02*
X194997238Y-103500477D01*
X195282952Y-103500477D02*
X195282952Y-102500477D01*
X195282952Y-102500477D02*
X195187714Y-102643334D01*
X195187714Y-102643334D02*
X195092476Y-102738572D01*
X195092476Y-102738572D02*
X194997238Y-102786191D01*
X169724333Y-102916477D02*
X169391000Y-102440286D01*
X169152905Y-102916477D02*
X169152905Y-101916477D01*
X169152905Y-101916477D02*
X169533857Y-101916477D01*
X169533857Y-101916477D02*
X169629095Y-101964096D01*
X169629095Y-101964096D02*
X169676714Y-102011715D01*
X169676714Y-102011715D02*
X169724333Y-102106953D01*
X169724333Y-102106953D02*
X169724333Y-102249810D01*
X169724333Y-102249810D02*
X169676714Y-102345048D01*
X169676714Y-102345048D02*
X169629095Y-102392667D01*
X169629095Y-102392667D02*
X169533857Y-102440286D01*
X169533857Y-102440286D02*
X169152905Y-102440286D01*
X170676714Y-102916477D02*
X170105286Y-102916477D01*
X170391000Y-102916477D02*
X170391000Y-101916477D01*
X170391000Y-101916477D02*
X170295762Y-102059334D01*
X170295762Y-102059334D02*
X170200524Y-102154572D01*
X170200524Y-102154572D02*
X170105286Y-102202191D01*
X176836333Y-92407238D02*
X176788714Y-92454858D01*
X176788714Y-92454858D02*
X176645857Y-92502477D01*
X176645857Y-92502477D02*
X176550619Y-92502477D01*
X176550619Y-92502477D02*
X176407762Y-92454858D01*
X176407762Y-92454858D02*
X176312524Y-92359619D01*
X176312524Y-92359619D02*
X176264905Y-92264381D01*
X176264905Y-92264381D02*
X176217286Y-92073905D01*
X176217286Y-92073905D02*
X176217286Y-91931048D01*
X176217286Y-91931048D02*
X176264905Y-91740572D01*
X176264905Y-91740572D02*
X176312524Y-91645334D01*
X176312524Y-91645334D02*
X176407762Y-91550096D01*
X176407762Y-91550096D02*
X176550619Y-91502477D01*
X176550619Y-91502477D02*
X176645857Y-91502477D01*
X176645857Y-91502477D02*
X176788714Y-91550096D01*
X176788714Y-91550096D02*
X176836333Y-91597715D01*
X177741095Y-91502477D02*
X177264905Y-91502477D01*
X177264905Y-91502477D02*
X177217286Y-91978667D01*
X177217286Y-91978667D02*
X177264905Y-91931048D01*
X177264905Y-91931048D02*
X177360143Y-91883429D01*
X177360143Y-91883429D02*
X177598238Y-91883429D01*
X177598238Y-91883429D02*
X177693476Y-91931048D01*
X177693476Y-91931048D02*
X177741095Y-91978667D01*
X177741095Y-91978667D02*
X177788714Y-92073905D01*
X177788714Y-92073905D02*
X177788714Y-92312000D01*
X177788714Y-92312000D02*
X177741095Y-92407238D01*
X177741095Y-92407238D02*
X177693476Y-92454858D01*
X177693476Y-92454858D02*
X177598238Y-92502477D01*
X177598238Y-92502477D02*
X177360143Y-92502477D01*
X177360143Y-92502477D02*
X177264905Y-92454858D01*
X177264905Y-92454858D02*
X177217286Y-92407238D01*
X168883095Y-96150477D02*
X169454523Y-96150477D01*
X169168809Y-97150477D02*
X169168809Y-96150477D01*
X169787857Y-97150477D02*
X169787857Y-96150477D01*
X169787857Y-96150477D02*
X170168809Y-96150477D01*
X170168809Y-96150477D02*
X170264047Y-96198096D01*
X170264047Y-96198096D02*
X170311666Y-96245715D01*
X170311666Y-96245715D02*
X170359285Y-96340953D01*
X170359285Y-96340953D02*
X170359285Y-96483810D01*
X170359285Y-96483810D02*
X170311666Y-96579048D01*
X170311666Y-96579048D02*
X170264047Y-96626667D01*
X170264047Y-96626667D02*
X170168809Y-96674286D01*
X170168809Y-96674286D02*
X169787857Y-96674286D01*
X171264047Y-96150477D02*
X170787857Y-96150477D01*
X170787857Y-96150477D02*
X170740238Y-96626667D01*
X170740238Y-96626667D02*
X170787857Y-96579048D01*
X170787857Y-96579048D02*
X170883095Y-96531429D01*
X170883095Y-96531429D02*
X171121190Y-96531429D01*
X171121190Y-96531429D02*
X171216428Y-96579048D01*
X171216428Y-96579048D02*
X171264047Y-96626667D01*
X171264047Y-96626667D02*
X171311666Y-96721905D01*
X171311666Y-96721905D02*
X171311666Y-96960000D01*
X171311666Y-96960000D02*
X171264047Y-97055238D01*
X171264047Y-97055238D02*
X171216428Y-97102858D01*
X171216428Y-97102858D02*
X171121190Y-97150477D01*
X171121190Y-97150477D02*
X170883095Y-97150477D01*
X170883095Y-97150477D02*
X170787857Y-97102858D01*
X170787857Y-97102858D02*
X170740238Y-97055238D01*
X152103142Y-79803477D02*
X151769809Y-79327286D01*
X151531714Y-79803477D02*
X151531714Y-78803477D01*
X151531714Y-78803477D02*
X151912666Y-78803477D01*
X151912666Y-78803477D02*
X152007904Y-78851096D01*
X152007904Y-78851096D02*
X152055523Y-78898715D01*
X152055523Y-78898715D02*
X152103142Y-78993953D01*
X152103142Y-78993953D02*
X152103142Y-79136810D01*
X152103142Y-79136810D02*
X152055523Y-79232048D01*
X152055523Y-79232048D02*
X152007904Y-79279667D01*
X152007904Y-79279667D02*
X151912666Y-79327286D01*
X151912666Y-79327286D02*
X151531714Y-79327286D01*
X153055523Y-79803477D02*
X152484095Y-79803477D01*
X152769809Y-79803477D02*
X152769809Y-78803477D01*
X152769809Y-78803477D02*
X152674571Y-78946334D01*
X152674571Y-78946334D02*
X152579333Y-79041572D01*
X152579333Y-79041572D02*
X152484095Y-79089191D01*
X153674571Y-78803477D02*
X153769809Y-78803477D01*
X153769809Y-78803477D02*
X153865047Y-78851096D01*
X153865047Y-78851096D02*
X153912666Y-78898715D01*
X153912666Y-78898715D02*
X153960285Y-78993953D01*
X153960285Y-78993953D02*
X154007904Y-79184429D01*
X154007904Y-79184429D02*
X154007904Y-79422524D01*
X154007904Y-79422524D02*
X153960285Y-79613000D01*
X153960285Y-79613000D02*
X153912666Y-79708238D01*
X153912666Y-79708238D02*
X153865047Y-79755858D01*
X153865047Y-79755858D02*
X153769809Y-79803477D01*
X153769809Y-79803477D02*
X153674571Y-79803477D01*
X153674571Y-79803477D02*
X153579333Y-79755858D01*
X153579333Y-79755858D02*
X153531714Y-79708238D01*
X153531714Y-79708238D02*
X153484095Y-79613000D01*
X153484095Y-79613000D02*
X153436476Y-79422524D01*
X153436476Y-79422524D02*
X153436476Y-79184429D01*
X153436476Y-79184429D02*
X153484095Y-78993953D01*
X153484095Y-78993953D02*
X153531714Y-78898715D01*
X153531714Y-78898715D02*
X153579333Y-78851096D01*
X153579333Y-78851096D02*
X153674571Y-78803477D01*
X169956333Y-93359477D02*
X169623000Y-92883286D01*
X169384905Y-93359477D02*
X169384905Y-92359477D01*
X169384905Y-92359477D02*
X169765857Y-92359477D01*
X169765857Y-92359477D02*
X169861095Y-92407096D01*
X169861095Y-92407096D02*
X169908714Y-92454715D01*
X169908714Y-92454715D02*
X169956333Y-92549953D01*
X169956333Y-92549953D02*
X169956333Y-92692810D01*
X169956333Y-92692810D02*
X169908714Y-92788048D01*
X169908714Y-92788048D02*
X169861095Y-92835667D01*
X169861095Y-92835667D02*
X169765857Y-92883286D01*
X169765857Y-92883286D02*
X169384905Y-92883286D01*
X170337286Y-92454715D02*
X170384905Y-92407096D01*
X170384905Y-92407096D02*
X170480143Y-92359477D01*
X170480143Y-92359477D02*
X170718238Y-92359477D01*
X170718238Y-92359477D02*
X170813476Y-92407096D01*
X170813476Y-92407096D02*
X170861095Y-92454715D01*
X170861095Y-92454715D02*
X170908714Y-92549953D01*
X170908714Y-92549953D02*
X170908714Y-92645191D01*
X170908714Y-92645191D02*
X170861095Y-92788048D01*
X170861095Y-92788048D02*
X170289667Y-93359477D01*
X170289667Y-93359477D02*
X170908714Y-93359477D01*
D12*
%TO.C,U6*%
X189167000Y-78565658D02*
X193287000Y-78565658D01*
X189167000Y-78660658D02*
X189167000Y-78565658D01*
X189167000Y-83685658D02*
X189167000Y-83590658D01*
X193287000Y-78565658D02*
X193287000Y-78660658D01*
X193287000Y-83590658D02*
X193287000Y-83685658D01*
X193287000Y-83685658D02*
X189167000Y-83685658D01*
X188627000Y-78655658D02*
X188387000Y-78325658D01*
X188867000Y-78325658D01*
X188627000Y-78655658D01*
G36*
X188627000Y-78655658D02*
G01*
X188387000Y-78325658D01*
X188867000Y-78325658D01*
X188627000Y-78655658D01*
G37*
%TO.C,J7*%
X159997000Y-64739658D02*
X169117000Y-64739658D01*
X159997000Y-80239658D02*
X159997000Y-64739658D01*
X161307000Y-66039658D02*
X167807000Y-66039658D01*
X161307000Y-78939658D02*
X161307000Y-66039658D01*
X167807000Y-66039658D02*
X167807000Y-70439658D01*
X167807000Y-70439658D02*
X169117000Y-70439658D01*
X167807000Y-74539658D02*
X167807000Y-78939658D01*
X167807000Y-78939658D02*
X161307000Y-78939658D01*
X169117000Y-64739658D02*
X169117000Y-80239658D01*
X169117000Y-74539658D02*
X167807000Y-74539658D01*
X169117000Y-80239658D02*
X159997000Y-80239658D01*
X169507000Y-75029658D02*
X170507000Y-75529658D01*
X170507000Y-74529658D02*
X169507000Y-75029658D01*
X170507000Y-75529658D02*
X170507000Y-74529658D01*
%TO.C,R6*%
X181277000Y-93036722D02*
X181277000Y-92582594D01*
X182747000Y-93036722D02*
X182747000Y-92582594D01*
%TO.C,R11*%
X146698500Y-88264594D02*
X146698500Y-88718722D01*
X148168500Y-88264594D02*
X148168500Y-88718722D01*
%TO.C,RV2*%
X164497000Y-104217658D02*
X164497000Y-104917658D01*
X164997000Y-105817658D02*
X164997000Y-106217658D01*
X165197000Y-104217658D02*
X164497000Y-104217658D01*
X166097000Y-104417658D02*
X168997000Y-104417658D01*
X166097000Y-107617658D02*
X168997000Y-107617658D01*
X168997000Y-104417658D02*
X168997000Y-105017658D01*
X168997000Y-107617658D02*
X168997000Y-107017658D01*
%TO.C,D1*%
X193474000Y-107271658D02*
X193474000Y-111281658D01*
X195474000Y-107271658D02*
X193474000Y-107271658D01*
X195474000Y-107271658D02*
X195474000Y-111281658D01*
%TO.C,D3*%
X170288000Y-83485658D02*
X170288000Y-79475658D01*
X170288000Y-83485658D02*
X172288000Y-83485658D01*
X172288000Y-83485658D02*
X172288000Y-79475658D01*
%TO.C,SW2*%
X178329000Y-64500658D02*
X178329000Y-66000658D01*
X179579000Y-68500658D02*
X184079000Y-68500658D01*
X184079000Y-62000658D02*
X179579000Y-62000658D01*
X185329000Y-66000658D02*
X185329000Y-64500658D01*
%TO.C,R12*%
X149619436Y-92074658D02*
X150073564Y-92074658D01*
X149619436Y-93544658D02*
X150073564Y-93544658D01*
%TO.C,R9*%
X152518936Y-76834658D02*
X152973064Y-76834658D01*
X152518936Y-78304658D02*
X152973064Y-78304658D01*
%TO.C,TP2*%
X189638000Y-106079658D02*
X191038000Y-106079658D01*
X189638000Y-107479658D02*
X189638000Y-106079658D01*
X191038000Y-106079658D02*
X191038000Y-107479658D01*
X191038000Y-107479658D02*
X189638000Y-107479658D01*
%TO.C,R15*%
X191994500Y-74786594D02*
X191994500Y-75240722D01*
X193464500Y-74786594D02*
X193464500Y-75240722D01*
%TO.C,C2*%
X175699000Y-115634406D02*
X175699000Y-116156910D01*
X177169000Y-115634406D02*
X177169000Y-116156910D01*
%TO.C,J2*%
X186764000Y-109631658D02*
X186764000Y-113631658D01*
X187634000Y-108601658D02*
X187634000Y-109201658D01*
X187634000Y-109201658D02*
X189234000Y-109201658D01*
X188434000Y-113621658D02*
X188684000Y-113091658D01*
X188434000Y-113621658D02*
X190974000Y-113621658D01*
X188434000Y-114621658D02*
X188434000Y-113621658D01*
X188684000Y-113091658D02*
X190724000Y-113091658D01*
X188684000Y-114621658D02*
X188684000Y-113621658D01*
X189234000Y-109201658D02*
X189234000Y-108601658D01*
X190174000Y-108601658D02*
X190174000Y-109201658D01*
X190174000Y-109201658D02*
X191774000Y-109201658D01*
X190724000Y-113091658D02*
X190974000Y-113621658D01*
X190724000Y-114621658D02*
X190724000Y-113621658D01*
X190974000Y-113621658D02*
X190974000Y-114621658D01*
X191774000Y-109201658D02*
X191774000Y-108601658D01*
X187054000Y-108601658D02*
X192354000Y-108601658D01*
X192354000Y-114621658D01*
X187054000Y-114621658D01*
X187054000Y-108601658D01*
%TO.C,R4*%
X180739000Y-109168594D02*
X180739000Y-109622722D01*
X182209000Y-109168594D02*
X182209000Y-109622722D01*
%TO.C,C4*%
X170279252Y-109600658D02*
X169756748Y-109600658D01*
X170279252Y-111070658D02*
X169756748Y-111070658D01*
%TO.C,J3*%
X180409000Y-105825658D02*
X180409000Y-106425658D01*
X181209000Y-101405658D02*
X181209000Y-100405658D01*
X181459000Y-100405658D02*
X181459000Y-101405658D01*
X181459000Y-101935658D02*
X181209000Y-101405658D01*
X182009000Y-105825658D02*
X180409000Y-105825658D01*
X182009000Y-106425658D02*
X182009000Y-105825658D01*
X182949000Y-105825658D02*
X182949000Y-106425658D01*
X183499000Y-100405658D02*
X183499000Y-101405658D01*
X183499000Y-101935658D02*
X181459000Y-101935658D01*
X183749000Y-100405658D02*
X183749000Y-101405658D01*
X183749000Y-101405658D02*
X181209000Y-101405658D01*
X183749000Y-101405658D02*
X183499000Y-101935658D01*
X184549000Y-105825658D02*
X182949000Y-105825658D01*
X184549000Y-106425658D02*
X184549000Y-105825658D01*
X185419000Y-105395658D02*
X185419000Y-101395658D01*
X185129000Y-106425658D02*
X179829000Y-106425658D01*
X179829000Y-100405658D01*
X185129000Y-100405658D01*
X185129000Y-106425658D01*
%TO.C,RV1*%
X147972000Y-115281658D02*
X151717000Y-115281658D01*
X147972000Y-125201658D02*
X147972000Y-115281658D01*
X151717000Y-125201658D02*
X147972000Y-125201658D01*
X156447000Y-115281658D02*
X160192000Y-115281658D01*
X160192000Y-115281658D02*
X160192000Y-117045658D01*
X160192000Y-118437658D02*
X160192000Y-119545658D01*
X160192000Y-120937658D02*
X160192000Y-122045658D01*
X160192000Y-123437658D02*
X160192000Y-125201658D01*
X160192000Y-125201658D02*
X156447000Y-125201658D01*
%TO.C,C13*%
X173601000Y-77562406D02*
X173601000Y-78084910D01*
X175071000Y-77562406D02*
X175071000Y-78084910D01*
%TO.C,RV3*%
X147718000Y-99533658D02*
X151463000Y-99533658D01*
X147718000Y-109453658D02*
X147718000Y-99533658D01*
X151463000Y-109453658D02*
X147718000Y-109453658D01*
X156193000Y-99533658D02*
X159938000Y-99533658D01*
X159938000Y-99533658D02*
X159938000Y-101297658D01*
X159938000Y-102689658D02*
X159938000Y-103797658D01*
X159938000Y-105189658D02*
X159938000Y-106297658D01*
X159938000Y-107689658D02*
X159938000Y-109453658D01*
X159938000Y-109453658D02*
X156193000Y-109453658D01*
%TO.C,R3*%
X174784936Y-97574658D02*
X175239064Y-97574658D01*
X174784936Y-99044658D02*
X175239064Y-99044658D01*
%TO.C,U5*%
X184531748Y-96398658D02*
X185866000Y-96398658D01*
X185866000Y-98618658D02*
X184396000Y-98618658D01*
X184241000Y-96388658D02*
X184101000Y-96198658D01*
X184381000Y-96198658D01*
X184241000Y-96388658D01*
G36*
X184241000Y-96388658D02*
G01*
X184101000Y-96198658D01*
X184381000Y-96198658D01*
X184241000Y-96388658D01*
G37*
%TO.C,C10*%
X196695252Y-75818658D02*
X196172748Y-75818658D01*
X196695252Y-77288658D02*
X196172748Y-77288658D01*
%TO.C,C6*%
X172172748Y-125660658D02*
X172695252Y-125660658D01*
X172172748Y-127130658D02*
X172695252Y-127130658D01*
%TO.C,C7*%
X182813000Y-125067658D02*
G75*
G02*
X176273000Y-125067658I-3270000J0D01*
G01*
X176273000Y-125067658D02*
G75*
G02*
X182813000Y-125067658I3270000J0D01*
G01*
%TO.C,R5*%
X167661064Y-125660658D02*
X167206936Y-125660658D01*
X167661064Y-127130658D02*
X167206936Y-127130658D01*
%TO.C,R8*%
X196588000Y-80771594D02*
X196588000Y-81225722D01*
X198058000Y-80771594D02*
X198058000Y-81225722D01*
%TO.C,C14*%
X177249748Y-70611658D02*
X177772252Y-70611658D01*
X177249748Y-72081658D02*
X177772252Y-72081658D01*
%TO.C,TP4*%
X156491000Y-78266658D02*
X157891000Y-78266658D01*
X156491000Y-79666658D02*
X156491000Y-78266658D01*
X157891000Y-78266658D02*
X157891000Y-79666658D01*
X157891000Y-79666658D02*
X156491000Y-79666658D01*
%TO.C,J1*%
X199621000Y-108370658D02*
X199621000Y-109420658D01*
X199821000Y-100020658D02*
X201721000Y-100020658D01*
X199821000Y-102720658D02*
X199821000Y-100020658D01*
X199821000Y-109220658D02*
X199821000Y-106620658D01*
X200671000Y-109420658D02*
X199621000Y-109420658D01*
X205721000Y-100020658D02*
X214521000Y-100020658D01*
X214521000Y-100020658D02*
X214521000Y-109220658D01*
X214521000Y-109220658D02*
X199821000Y-109220658D01*
%TO.C,J8*%
X191351000Y-86725658D02*
X206851000Y-86725658D01*
X191351000Y-95845658D02*
X191351000Y-86725658D01*
X192651000Y-88035658D02*
X197051000Y-88035658D01*
X192651000Y-94535658D02*
X192651000Y-88035658D01*
X197051000Y-88035658D02*
X197051000Y-86725658D01*
X201141000Y-85335658D02*
X201641000Y-86335658D01*
X201151000Y-86725658D02*
X201151000Y-88035658D01*
X201151000Y-88035658D02*
X205551000Y-88035658D01*
X201641000Y-86335658D02*
X202141000Y-85335658D01*
X202141000Y-85335658D02*
X201141000Y-85335658D01*
X205551000Y-88035658D02*
X205551000Y-94535658D01*
X205551000Y-94535658D02*
X192651000Y-94535658D01*
X206851000Y-86725658D02*
X206851000Y-95845658D01*
X206851000Y-95845658D02*
X191351000Y-95845658D01*
%TO.C,R17*%
X182236936Y-70611658D02*
X182691064Y-70611658D01*
X182236936Y-72081658D02*
X182691064Y-72081658D01*
%TO.C,U2*%
X166789000Y-113755658D02*
X166789000Y-124035658D01*
X166789000Y-124035658D02*
X172089000Y-124035658D01*
X168439000Y-113755658D02*
X166789000Y-113755658D01*
X172089000Y-113755658D02*
X170439000Y-113755658D01*
X172089000Y-124035658D02*
X172089000Y-113755658D01*
X170439000Y-113755658D02*
G75*
G02*
X168439000Y-113755658I-1000000J0D01*
G01*
%TO.C,C12*%
X148836000Y-84039406D02*
X148836000Y-84561910D01*
X150306000Y-84039406D02*
X150306000Y-84561910D01*
%TO.C,J6*%
X148009000Y-71617658D02*
X148009000Y-72217658D01*
X148809000Y-67197658D02*
X148809000Y-66197658D01*
X149059000Y-66197658D02*
X149059000Y-67197658D01*
X149059000Y-67727658D02*
X148809000Y-67197658D01*
X149609000Y-71617658D02*
X148009000Y-71617658D01*
X149609000Y-72217658D02*
X149609000Y-71617658D01*
X150549000Y-71617658D02*
X150549000Y-72217658D01*
X152149000Y-71617658D02*
X150549000Y-71617658D01*
X152149000Y-72217658D02*
X152149000Y-71617658D01*
X153089000Y-71617658D02*
X153089000Y-72217658D01*
X153639000Y-66197658D02*
X153639000Y-67197658D01*
X153639000Y-67727658D02*
X149059000Y-67727658D01*
X153889000Y-66197658D02*
X153889000Y-67197658D01*
X153889000Y-67197658D02*
X148809000Y-67197658D01*
X153889000Y-67197658D02*
X153639000Y-67727658D01*
X154689000Y-71617658D02*
X153089000Y-71617658D01*
X154689000Y-72217658D02*
X154689000Y-71617658D01*
X155559000Y-71187658D02*
X155559000Y-67187658D01*
X155269000Y-72217658D02*
X147429000Y-72217658D01*
X147429000Y-66197658D01*
X155269000Y-66197658D01*
X155269000Y-72217658D01*
%TO.C,C9*%
X147693000Y-75530406D02*
X147693000Y-76052910D01*
X149163000Y-75530406D02*
X149163000Y-76052910D01*
%TO.C,C3*%
X184239000Y-109134406D02*
X184239000Y-109656910D01*
X185709000Y-109134406D02*
X185709000Y-109656910D01*
%TO.C,TP3*%
X169826000Y-89442658D02*
X171226000Y-89442658D01*
X169826000Y-90842658D02*
X169826000Y-89442658D01*
X171226000Y-89442658D02*
X171226000Y-90842658D01*
X171226000Y-90842658D02*
X169826000Y-90842658D01*
%TO.C,C11*%
X150889500Y-88251906D02*
X150889500Y-88774410D01*
X152359500Y-88251906D02*
X152359500Y-88774410D01*
%TO.C,U4*%
X178908500Y-74207658D02*
X178908500Y-84487658D01*
X178908500Y-84487658D02*
X184208500Y-84487658D01*
X180558500Y-74207658D02*
X178908500Y-74207658D01*
X184208500Y-74207658D02*
X182558500Y-74207658D01*
X184208500Y-84487658D02*
X184208500Y-74207658D01*
X182558500Y-74207658D02*
G75*
G02*
X180558500Y-74207658I-1000000J0D01*
G01*
%TO.C,U1*%
X185914000Y-103523158D02*
X185964000Y-103523158D01*
X185914000Y-105343158D02*
X185914000Y-103523158D01*
X185964000Y-105343158D02*
X185914000Y-105343158D01*
X187864000Y-105343158D02*
X187084000Y-105343158D01*
X188984000Y-103523158D02*
X189034000Y-103523158D01*
X189034000Y-103523158D02*
X189034000Y-105343158D01*
X189034000Y-105343158D02*
X188984000Y-105343158D01*
X189314000Y-103223158D02*
X188984000Y-102983158D01*
X189314000Y-102743158D01*
X189314000Y-103223158D01*
G36*
X189314000Y-103223158D02*
G01*
X188984000Y-102983158D01*
X189314000Y-102743158D01*
X189314000Y-103223158D01*
G37*
%TO.C,R13*%
X153535000Y-92582594D02*
X153535000Y-93036722D01*
X155005000Y-92582594D02*
X155005000Y-93036722D01*
%TO.C,C8*%
X188333000Y-73752406D02*
X188333000Y-74274910D01*
X189803000Y-73752406D02*
X189803000Y-74274910D01*
%TO.C,C1*%
X190739000Y-103694410D02*
X190739000Y-103171906D01*
X192209000Y-103694410D02*
X192209000Y-103171906D01*
%TO.C,U3*%
X158560000Y-83929658D02*
X162680000Y-83929658D01*
X158560000Y-83994658D02*
X158560000Y-83929658D01*
X158560000Y-92799658D02*
X158560000Y-92734658D01*
X162680000Y-83929658D02*
X162680000Y-83994658D01*
X162680000Y-92734658D02*
X162680000Y-92799658D01*
X162680000Y-92799658D02*
X158560000Y-92799658D01*
X158020000Y-83994658D02*
X157780000Y-83664658D01*
X158260000Y-83664658D01*
X158020000Y-83994658D01*
G36*
X158020000Y-83994658D02*
G01*
X157780000Y-83664658D01*
X158260000Y-83664658D01*
X158020000Y-83994658D01*
G37*
%TO.C,R16*%
X172204000Y-71246594D02*
X172204000Y-71700722D01*
X173674000Y-71246594D02*
X173674000Y-71700722D01*
%TO.C,D4*%
X196323000Y-101519658D02*
X196323000Y-97509658D01*
X196323000Y-101519658D02*
X198323000Y-101519658D01*
X198323000Y-101519658D02*
X198323000Y-97509658D01*
%TO.C,R7*%
X178239064Y-88574658D02*
X177784936Y-88574658D01*
X178239064Y-90044658D02*
X177784936Y-90044658D01*
%TO.C,SW1*%
X189632000Y-64627658D02*
X189632000Y-66127658D01*
X190882000Y-68627658D02*
X195382000Y-68627658D01*
X195382000Y-62127658D02*
X190882000Y-62127658D01*
X196632000Y-66127658D02*
X196632000Y-64627658D01*
%TO.C,J4*%
X184434000Y-117645658D02*
X196434000Y-117645658D01*
X184434000Y-128645658D02*
X184434000Y-117645658D01*
X185934000Y-128645658D02*
X184434000Y-128645658D01*
X185934000Y-129345658D02*
X185934000Y-128645658D01*
X194934000Y-128645658D02*
X194934000Y-129345658D01*
X196434000Y-117645658D02*
X196434000Y-128645658D01*
X196434000Y-128645658D02*
X194934000Y-128645658D01*
%TO.C,R14*%
X194174936Y-70738658D02*
X194629064Y-70738658D01*
X194174936Y-72208658D02*
X194629064Y-72208658D01*
%TO.C,D2*%
X173012000Y-90949658D02*
X173012000Y-94959658D01*
X175012000Y-90949658D02*
X173012000Y-90949658D01*
X175012000Y-90949658D02*
X175012000Y-94959658D01*
%TO.C,J5*%
X171989000Y-103415658D02*
X171989000Y-107415658D01*
X172859000Y-102385658D02*
X172859000Y-102985658D01*
X172859000Y-102985658D02*
X174459000Y-102985658D01*
X173659000Y-107405658D02*
X173909000Y-106875658D01*
X173659000Y-107405658D02*
X176199000Y-107405658D01*
X173659000Y-108405658D02*
X173659000Y-107405658D01*
X173909000Y-106875658D02*
X175949000Y-106875658D01*
X173909000Y-108405658D02*
X173909000Y-107405658D01*
X174459000Y-102985658D02*
X174459000Y-102385658D01*
X175399000Y-102385658D02*
X175399000Y-102985658D01*
X175399000Y-102985658D02*
X176999000Y-102985658D01*
X175949000Y-106875658D02*
X176199000Y-107405658D01*
X175949000Y-108405658D02*
X175949000Y-107405658D01*
X176199000Y-107405658D02*
X176199000Y-108405658D01*
X176999000Y-102985658D02*
X176999000Y-102385658D01*
X172279000Y-102385658D02*
X177579000Y-102385658D01*
X177579000Y-108405658D01*
X172279000Y-108405658D01*
X172279000Y-102385658D01*
%TO.C,TP1*%
X193702000Y-103793658D02*
X195102000Y-103793658D01*
X193702000Y-105193658D02*
X193702000Y-103793658D01*
X195102000Y-103793658D02*
X195102000Y-105193658D01*
X195102000Y-105193658D02*
X193702000Y-105193658D01*
%TO.C,R1*%
X169536936Y-99821658D02*
X169991064Y-99821658D01*
X169536936Y-101291658D02*
X169991064Y-101291658D01*
%TO.C,C5*%
X177277000Y-95070910D02*
X177277000Y-94548406D01*
X178747000Y-95070910D02*
X178747000Y-94548406D01*
%TO.C,TP5*%
X169445000Y-97443658D02*
X170845000Y-97443658D01*
X169445000Y-98843658D02*
X169445000Y-97443658D01*
X170845000Y-97443658D02*
X170845000Y-98843658D01*
X170845000Y-98843658D02*
X169445000Y-98843658D01*
%TO.C,R10*%
X152518936Y-80263658D02*
X152973064Y-80263658D01*
X152518936Y-81733658D02*
X152973064Y-81733658D01*
%TO.C,R2*%
X169784936Y-94074658D02*
X170239064Y-94074658D01*
X169784936Y-95544658D02*
X170239064Y-95544658D01*
%TD*%
M02*
