M48
; DRILL file {KiCad 9.0.7} date 2026-03-12T09:45:35-0500
; FORMAT={-:-/ absolute / inch / decimal}
; #@! TF.CreationDate,2026-03-12T09:45:35-05:00
; #@! TF.GenerationSoftware,Kicad,Pcbnew,9.0.7
; #@! TF.FileFunction,Plated,1,2,PTH
FMAT,2
INCH
; #@! TA.AperFunction,Plated,PTH,ViaDrill
T1C0.0118
; #@! TA.AperFunction,Plated,PTH,ComponentDrill
T2C0.0157
; #@! TA.AperFunction,Plated,PTH,ComponentDrill
T3C0.0315
; #@! TA.AperFunction,Plated,PTH,ComponentDrill
T4C0.0394
; #@! TA.AperFunction,Plated,PTH,ComponentDrill
T5C0.0433
; #@! TA.AperFunction,Plated,PTH,ComponentDrill
T6C0.0469
; #@! TA.AperFunction,Plated,PTH,ComponentDrill
T7C0.0866
%
G90
G05
T1
X5.7586Y-2.7239
X5.8936Y-3.1739
X5.9186Y-2.9939
X6.0086Y-3.5739
X6.0536Y-3.3489
X6.1036Y-3.5289
X6.1664Y-3.3462
X6.2136Y-3.7789
X6.2836Y-3.4289
X6.2836Y-3.6089
X6.3336Y-3.4989
X6.3586Y-3.5489
X6.3686Y-3.4339
X6.4086Y-2.6639
X6.4836Y-3.3289
X6.4986Y-3.9489
X6.6236Y-2.8939
X6.6236Y-2.9489
X6.6236Y-3.4539
X6.6336Y-4.5789
X6.6786Y-3.3539
X6.7786Y-3.4539
X6.7936Y-2.9539
X6.8636Y-3.5089
X6.9036Y-3.2739
X6.9086Y-4.4439
X6.9986Y-3.5639
X7.0536Y-3.3989
X7.0674Y-3.8094
X7.0936Y-3.5839
X7.0986Y-3.5089
X7.1461Y-3.7504
X7.1686Y-3.1989
X7.1743Y-4.5133
X7.1986Y-3.7789
X7.2086Y-2.9239
X7.2286Y-3.4239
X7.2336Y-3.6389
X7.2386Y-3.2289
X7.2786Y-3.9139
X7.2986Y-2.8339
X7.3386Y-4.6002
X7.3436Y-4.0139
X7.3636Y-2.8889
X7.3636Y-3.2489
X7.3786Y-4.1139
X7.3836Y-3.8389
X7.3886Y-3.5889
X7.4086Y-3.0739
X7.4166Y-4.0051
X7.4816Y-3.1719
X7.4836Y-3.0489
X7.6136Y-4.9889
X7.7086Y-3.3639
X7.8336Y-3.1939
X7.8336Y-3.3839
T3
X6.5208Y-4.5309
X6.5208Y-4.6309
X6.5208Y-4.7309
X6.5208Y-4.8309
X6.8208Y-4.5309
X6.8208Y-4.6309
X6.8208Y-4.7309
X6.8208Y-4.8309
X6.998Y-2.9739
X6.998Y-3.0739
X6.998Y-3.1739
X6.998Y-3.2739
X7.0686Y-4.8747
X7.0686Y-4.9731
X7.298Y-2.9739
X7.298Y-3.0739
X7.298Y-3.1739
X7.298Y-3.2739
T4
X6.3318Y-4.0155
X6.3318Y-4.1139
X6.3318Y-4.2123
X6.3418Y-4.6355
X6.3418Y-4.7339
X6.3418Y-4.8323
X6.4286Y-2.7539
X6.4286Y-2.8539
X6.4286Y-2.9539
X6.5286Y-2.7539
X6.5286Y-2.8539
X6.5286Y-2.9539
X7.7386Y-3.5439
X7.7386Y-3.6439
X7.8386Y-3.5439
X7.8386Y-3.6439
X7.9386Y-3.5439
X7.9386Y-3.6439
T5
X7.0307Y-2.4803
X7.0307Y-2.6575
X7.2866Y-2.4803
X7.2866Y-2.6575
X7.4757Y-2.4853
X7.4757Y-2.6625
X7.7316Y-2.4853
X7.7316Y-2.6625
T6
X5.8586Y-2.7239
X5.9586Y-2.7239
X6.0586Y-2.7239
X6.837Y-4.1502
X6.937Y-4.1502
X7.1342Y-4.0707
X7.2342Y-4.0707
X7.4187Y-4.3949
X7.5187Y-4.3949
T7
X6.0562Y-3.9407
X6.0562Y-4.2872
X6.0662Y-4.5607
X6.0662Y-4.9072
T2
G00X7.3006Y-4.7183
M15
G01X7.3006Y-4.7577
M16
G05
G00X7.4777Y-4.9349
M15
G01X7.5171Y-4.9349
M16
G05
G00X7.6943Y-4.7577
M15
G01X7.6943Y-4.7183
M16
G05
T3
G00X7.399Y-4.7242
M15
G01X7.399Y-4.7518
M16
G05
G00X7.5958Y-4.7518
M15
G01X7.5958Y-4.7242
M16
G05
T4
G00X7.9024Y-4.1583
M15
G01X7.9024Y-4.0796
M16
G05
G00X8.0599Y-3.9339
M15
G01X7.9811Y-3.9339
M16
G05
G00X8.1386Y-4.1583
M15
G01X8.1386Y-4.0796
M16
G05
M30
