ISO-10303-21;
HEADER;
/* Generated by software containing ST-Developer
 * from STEP Tools, Inc. (www.steptools.com) 
 */

FILE_DESCRIPTION(
/* description */ (''),
/* implementation_level */ '2;1');

FILE_NAME(
/* name */ 'Bottom_Shell.stp',
/* time_stamp */ '2026-04-19T19:53:25-05:00',
/* author */ ('kjedr'),
/* organization */ (''),
/* preprocessor_version */ 'ST-DEVELOPER v20.1',
/* originating_system */ 'Autodesk Inventor 2027',
/* authorisation */ '');

FILE_SCHEMA (('AUTOMOTIVE_DESIGN { 1 0 10303 214 3 1 1 }'));
ENDSEC;

DATA;
#10=MECHANICAL_DESIGN_GEOMETRIC_PRESENTATION_REPRESENTATION('',(#16),#1693);
#11=GEOMETRICALLY_BOUNDED_WIREFRAME_SHAPE_REPRESENTATION('',(#12),#1692);
#12=GEOMETRIC_CURVE_SET('Sketch19',(#1689));
#13=SHAPE_REPRESENTATION_RELATIONSHIP('SRR','None',#1704,#15);
#14=SHAPE_REPRESENTATION_RELATIONSHIP('SRR','None',#1704,#11);
#15=ADVANCED_BREP_SHAPE_REPRESENTATION('',(#17),#1692);
#16=STYLED_ITEM('',(#1713),#17);
#17=MANIFOLD_SOLID_BREP('Solid1',#1032);
#18=CONICAL_SURFACE('',#1094,0.05,1.0471975511966);
#19=CYLINDRICAL_SURFACE('',#1066,0.045);
#20=CYLINDRICAL_SURFACE('',#1068,0.045);
#21=CYLINDRICAL_SURFACE('',#1070,0.045);
#22=CYLINDRICAL_SURFACE('',#1072,0.045);
#23=CYLINDRICAL_SURFACE('',#1078,0.045);
#24=CYLINDRICAL_SURFACE('',#1099,0.045);
#25=CYLINDRICAL_SURFACE('',#1102,0.045);
#26=CYLINDRICAL_SURFACE('',#1105,0.045);
#27=CYLINDRICAL_SURFACE('',#1108,0.045);
#28=CYLINDRICAL_SURFACE('',#1111,0.175);
#29=CYLINDRICAL_SURFACE('',#1115,0.175);
#30=CYLINDRICAL_SURFACE('',#1119,0.175);
#31=CYLINDRICAL_SURFACE('',#1123,0.175);
#32=FACE_BOUND('',#139,.T.);
#33=FACE_BOUND('',#140,.T.);
#34=FACE_BOUND('',#142,.T.);
#35=FACE_BOUND('',#143,.T.);
#36=FACE_BOUND('',#145,.T.);
#37=FACE_BOUND('',#155,.T.);
#38=FACE_BOUND('',#156,.T.);
#39=FACE_BOUND('',#159,.T.);
#40=FACE_BOUND('',#160,.T.);
#41=FACE_BOUND('',#167,.T.);
#42=FACE_BOUND('',#187,.T.);
#43=FACE_BOUND('',#190,.T.);
#44=FACE_BOUND('',#193,.T.);
#45=FACE_BOUND('',#196,.T.);
#46=FACE_BOUND('',#198,.T.);
#47=FACE_BOUND('',#202,.T.);
#48=FACE_BOUND('',#203,.T.);
#49=FACE_BOUND('',#204,.T.);
#50=FACE_BOUND('',#205,.T.);
#51=FACE_BOUND('',#206,.T.);
#52=FACE_BOUND('',#210,.T.);
#53=FACE_BOUND('',#211,.T.);
#54=FACE_BOUND('',#212,.T.);
#55=FACE_BOUND('',#213,.T.);
#56=FACE_BOUND('',#214,.T.);
#57=FACE_BOUND('',#215,.T.);
#58=CIRCLE('',#1055,0.045);
#59=CIRCLE('',#1056,0.045);
#60=CIRCLE('',#1058,0.045);
#61=CIRCLE('',#1059,0.045);
#62=CIRCLE('',#1061,0.223205080756886);
#63=CIRCLE('',#1067,0.045);
#64=CIRCLE('',#1069,0.045);
#65=CIRCLE('',#1071,0.045);
#66=CIRCLE('',#1073,0.045);
#67=CIRCLE('',#1079,0.045);
#68=CIRCLE('',#1080,0.045);
#69=CIRCLE('',#1095,0.05);
#70=CIRCLE('',#1100,0.045);
#71=CIRCLE('',#1101,0.045);
#72=CIRCLE('',#1103,0.045);
#73=CIRCLE('',#1104,0.045);
#74=CIRCLE('',#1106,0.045);
#75=CIRCLE('',#1107,0.045);
#76=CIRCLE('',#1109,0.045);
#77=CIRCLE('',#1110,0.045);
#78=CIRCLE('',#1112,0.175);
#79=CIRCLE('',#1113,0.175);
#80=CIRCLE('',#1116,0.175);
#81=CIRCLE('',#1117,0.175);
#82=CIRCLE('',#1120,0.175);
#83=CIRCLE('',#1121,0.175);
#84=CIRCLE('',#1124,0.175);
#85=CIRCLE('',#1125,0.175);
#86=FACE_OUTER_BOUND('',#138,.T.);
#87=FACE_OUTER_BOUND('',#141,.T.);
#88=FACE_OUTER_BOUND('',#144,.T.);
#89=FACE_OUTER_BOUND('',#146,.T.);
#90=FACE_OUTER_BOUND('',#147,.T.);
#91=FACE_OUTER_BOUND('',#148,.T.);
#92=FACE_OUTER_BOUND('',#149,.T.);
#93=FACE_OUTER_BOUND('',#150,.T.);
#94=FACE_OUTER_BOUND('',#151,.T.);
#95=FACE_OUTER_BOUND('',#152,.T.);
#96=FACE_OUTER_BOUND('',#153,.T.);
#97=FACE_OUTER_BOUND('',#154,.T.);
#98=FACE_OUTER_BOUND('',#157,.T.);
#99=FACE_OUTER_BOUND('',#158,.T.);
#100=FACE_OUTER_BOUND('',#161,.T.);
#101=FACE_OUTER_BOUND('',#162,.T.);
#102=FACE_OUTER_BOUND('',#163,.T.);
#103=FACE_OUTER_BOUND('',#164,.T.);
#104=FACE_OUTER_BOUND('',#165,.T.);
#105=FACE_OUTER_BOUND('',#166,.T.);
#106=FACE_OUTER_BOUND('',#168,.T.);
#107=FACE_OUTER_BOUND('',#169,.T.);
#108=FACE_OUTER_BOUND('',#170,.T.);
#109=FACE_OUTER_BOUND('',#171,.T.);
#110=FACE_OUTER_BOUND('',#172,.T.);
#111=FACE_OUTER_BOUND('',#173,.T.);
#112=FACE_OUTER_BOUND('',#174,.T.);
#113=FACE_OUTER_BOUND('',#175,.T.);
#114=FACE_OUTER_BOUND('',#176,.T.);
#115=FACE_OUTER_BOUND('',#177,.T.);
#116=FACE_OUTER_BOUND('',#178,.T.);
#117=FACE_OUTER_BOUND('',#179,.T.);
#118=FACE_OUTER_BOUND('',#180,.T.);
#119=FACE_OUTER_BOUND('',#181,.T.);
#120=FACE_OUTER_BOUND('',#182,.T.);
#121=FACE_OUTER_BOUND('',#183,.T.);
#122=FACE_OUTER_BOUND('',#184,.T.);
#123=FACE_OUTER_BOUND('',#185,.T.);
#124=FACE_OUTER_BOUND('',#186,.T.);
#125=FACE_OUTER_BOUND('',#188,.T.);
#126=FACE_OUTER_BOUND('',#189,.T.);
#127=FACE_OUTER_BOUND('',#191,.T.);
#128=FACE_OUTER_BOUND('',#192,.T.);
#129=FACE_OUTER_BOUND('',#194,.T.);
#130=FACE_OUTER_BOUND('',#195,.T.);
#131=FACE_OUTER_BOUND('',#197,.T.);
#132=FACE_OUTER_BOUND('',#199,.T.);
#133=FACE_OUTER_BOUND('',#200,.T.);
#134=FACE_OUTER_BOUND('',#201,.T.);
#135=FACE_OUTER_BOUND('',#207,.T.);
#136=FACE_OUTER_BOUND('',#208,.T.);
#137=FACE_OUTER_BOUND('',#209,.T.);
#138=EDGE_LOOP('',(#666,#667,#668,#669));
#139=EDGE_LOOP('',(#670));
#140=EDGE_LOOP('',(#671));
#141=EDGE_LOOP('',(#672,#673,#674,#675));
#142=EDGE_LOOP('',(#676));
#143=EDGE_LOOP('',(#677));
#144=EDGE_LOOP('',(#678,#679,#680,#681,#682,#683,#684,#685));
#145=EDGE_LOOP('',(#686));
#146=EDGE_LOOP('',(#687,#688,#689,#690));
#147=EDGE_LOOP('',(#691,#692,#693,#694));
#148=EDGE_LOOP('',(#695,#696,#697,#698));
#149=EDGE_LOOP('',(#699,#700,#701,#702,#703,#704,#705,#706));
#150=EDGE_LOOP('',(#707,#708,#709,#710));
#151=EDGE_LOOP('',(#711,#712,#713,#714));
#152=EDGE_LOOP('',(#715,#716,#717,#718));
#153=EDGE_LOOP('',(#719,#720,#721,#722));
#154=EDGE_LOOP('',(#723,#724,#725,#726));
#155=EDGE_LOOP('',(#727));
#156=EDGE_LOOP('',(#728));
#157=EDGE_LOOP('',(#729,#730,#731,#732));
#158=EDGE_LOOP('',(#733,#734,#735,#736));
#159=EDGE_LOOP('',(#737));
#160=EDGE_LOOP('',(#738));
#161=EDGE_LOOP('',(#739,#740,#741,#742));
#162=EDGE_LOOP('',(#743,#744,#745,#746));
#163=EDGE_LOOP('',(#747,#748,#749,#750));
#164=EDGE_LOOP('',(#751,#752,#753,#754));
#165=EDGE_LOOP('',(#755,#756,#757,#758));
#166=EDGE_LOOP('',(#759,#760,#761,#762));
#167=EDGE_LOOP('',(#763));
#168=EDGE_LOOP('',(#764,#765,#766,#767));
#169=EDGE_LOOP('',(#768,#769,#770,#771));
#170=EDGE_LOOP('',(#772,#773,#774,#775));
#171=EDGE_LOOP('',(#776,#777,#778,#779));
#172=EDGE_LOOP('',(#780,#781,#782,#783));
#173=EDGE_LOOP('',(#784,#785,#786,#787));
#174=EDGE_LOOP('',(#788,#789,#790,#791));
#175=EDGE_LOOP('',(#792,#793,#794,#795));
#176=EDGE_LOOP('',(#796,#797,#798,#799,#800,#801,#802,#803,#804,#805,#806,
#807));
#177=EDGE_LOOP('',(#808,#809,#810,#811));
#178=EDGE_LOOP('',(#812,#813,#814,#815));
#179=EDGE_LOOP('',(#816,#817,#818,#819));
#180=EDGE_LOOP('',(#820,#821,#822,#823,#824,#825,#826,#827));
#181=EDGE_LOOP('',(#828,#829,#830,#831));
#182=EDGE_LOOP('',(#832,#833,#834,#835));
#183=EDGE_LOOP('',(#836,#837,#838,#839));
#184=EDGE_LOOP('',(#840,#841,#842,#843));
#185=EDGE_LOOP('',(#844,#845,#846,#847));
#186=EDGE_LOOP('',(#848));
#187=EDGE_LOOP('',(#849));
#188=EDGE_LOOP('',(#850,#851,#852,#853));
#189=EDGE_LOOP('',(#854));
#190=EDGE_LOOP('',(#855));
#191=EDGE_LOOP('',(#856,#857,#858,#859));
#192=EDGE_LOOP('',(#860));
#193=EDGE_LOOP('',(#861));
#194=EDGE_LOOP('',(#862,#863,#864,#865));
#195=EDGE_LOOP('',(#866));
#196=EDGE_LOOP('',(#867));
#197=EDGE_LOOP('',(#868,#869,#870,#871));
#198=EDGE_LOOP('',(#872));
#199=EDGE_LOOP('',(#873,#874,#875,#876));
#200=EDGE_LOOP('',(#877,#878,#879,#880));
#201=EDGE_LOOP('',(#881,#882,#883,#884));
#202=EDGE_LOOP('',(#885,#886,#887,#888,#889,#890,#891,#892,#893,#894,#895,
#896,#897,#898,#899,#900));
#203=EDGE_LOOP('',(#901));
#204=EDGE_LOOP('',(#902));
#205=EDGE_LOOP('',(#903));
#206=EDGE_LOOP('',(#904));
#207=EDGE_LOOP('',(#905,#906,#907,#908,#909,#910,#911,#912,#913,#914,#915,
#916));
#208=EDGE_LOOP('',(#917,#918,#919,#920,#921,#922,#923,#924,#925,#926,#927,
#928));
#209=EDGE_LOOP('',(#929,#930,#931,#932));
#210=EDGE_LOOP('',(#933));
#211=EDGE_LOOP('',(#934,#935,#936,#937));
#212=EDGE_LOOP('',(#938));
#213=EDGE_LOOP('',(#939));
#214=EDGE_LOOP('',(#940));
#215=EDGE_LOOP('',(#941));
#216=LINE('',#1410,#326);
#217=LINE('',#1412,#327);
#218=LINE('',#1414,#328);
#219=LINE('',#1415,#329);
#220=LINE('',#1423,#330);
#221=LINE('',#1425,#331);
#222=LINE('',#1427,#332);
#223=LINE('',#1428,#333);
#224=LINE('',#1434,#334);
#225=LINE('',#1436,#335);
#226=LINE('',#1438,#336);
#227=LINE('',#1440,#337);
#228=LINE('',#1442,#338);
#229=LINE('',#1443,#339);
#230=LINE('',#1449,#340);
#231=LINE('',#1451,#341);
#232=LINE('',#1453,#342);
#233=LINE('',#1454,#343);
#234=LINE('',#1458,#344);
#235=LINE('',#1460,#345);
#236=LINE('',#1462,#346);
#237=LINE('',#1463,#347);
#238=LINE('',#1465,#348);
#239=LINE('',#1466,#349);
#240=LINE('',#1469,#350);
#241=LINE('',#1471,#351);
#242=LINE('',#1473,#352);
#243=LINE('',#1475,#353);
#244=LINE('',#1476,#354);
#245=LINE('',#1479,#355);
#246=LINE('',#1484,#356);
#247=LINE('',#1487,#357);
#248=LINE('',#1492,#358);
#249=LINE('',#1495,#359);
#250=LINE('',#1497,#360);
#251=LINE('',#1498,#361);
#252=LINE('',#1500,#362);
#253=LINE('',#1503,#363);
#254=LINE('',#1505,#364);
#255=LINE('',#1506,#365);
#256=LINE('',#1508,#366);
#257=LINE('',#1513,#367);
#258=LINE('',#1518,#368);
#259=LINE('',#1520,#369);
#260=LINE('',#1522,#370);
#261=LINE('',#1523,#371);
#262=LINE('',#1526,#372);
#263=LINE('',#1528,#373);
#264=LINE('',#1529,#374);
#265=LINE('',#1532,#375);
#266=LINE('',#1534,#376);
#267=LINE('',#1535,#377);
#268=LINE('',#1537,#378);
#269=LINE('',#1541,#379);
#270=LINE('',#1543,#380);
#271=LINE('',#1545,#381);
#272=LINE('',#1546,#382);
#273=LINE('',#1549,#383);
#274=LINE('',#1551,#384);
#275=LINE('',#1552,#385);
#276=LINE('',#1555,#386);
#277=LINE('',#1557,#387);
#278=LINE('',#1558,#388);
#279=LINE('',#1560,#389);
#280=LINE('',#1564,#390);
#281=LINE('',#1566,#391);
#282=LINE('',#1568,#392);
#283=LINE('',#1569,#393);
#284=LINE('',#1572,#394);
#285=LINE('',#1574,#395);
#286=LINE('',#1575,#396);
#287=LINE('',#1578,#397);
#288=LINE('',#1580,#398);
#289=LINE('',#1581,#399);
#290=LINE('',#1583,#400);
#291=LINE('',#1586,#401);
#292=LINE('',#1588,#402);
#293=LINE('',#1590,#403);
#294=LINE('',#1592,#404);
#295=LINE('',#1593,#405);
#296=LINE('',#1594,#406);
#297=LINE('',#1598,#407);
#298=LINE('',#1601,#408);
#299=LINE('',#1603,#409);
#300=LINE('',#1604,#410);
#301=LINE('',#1607,#411);
#302=LINE('',#1609,#412);
#303=LINE('',#1610,#413);
#304=LINE('',#1612,#414);
#305=LINE('',#1613,#415);
#306=LINE('',#1614,#416);
#307=LINE('',#1619,#417);
#308=LINE('',#1625,#418);
#309=LINE('',#1631,#419);
#310=LINE('',#1637,#420);
#311=LINE('',#1643,#421);
#312=LINE('',#1650,#422);
#313=LINE('',#1657,#423);
#314=LINE('',#1664,#424);
#315=LINE('',#1670,#425);
#316=LINE('',#1672,#426);
#317=LINE('',#1674,#427);
#318=LINE('',#1675,#428);
#319=LINE('',#1677,#429);
#320=LINE('',#1678,#430);
#321=LINE('',#1680,#431);
#322=LINE('',#1681,#432);
#323=LINE('',#1684,#433);
#324=LINE('',#1685,#434);
#325=LINE('',#1686,#435);
#326=VECTOR('',#1138,0.393700787401575);
#327=VECTOR('',#1139,0.393700787401575);
#328=VECTOR('',#1140,0.393700787401575);
#329=VECTOR('',#1141,0.393700787401575);
#330=VECTOR('',#1148,0.393700787401575);
#331=VECTOR('',#1149,0.393700787401575);
#332=VECTOR('',#1150,0.393700787401575);
#333=VECTOR('',#1151,0.393700787401575);
#334=VECTOR('',#1158,0.393700787401575);
#335=VECTOR('',#1159,0.393700787401575);
#336=VECTOR('',#1160,0.393700787401575);
#337=VECTOR('',#1161,0.393700787401575);
#338=VECTOR('',#1162,0.393700787401575);
#339=VECTOR('',#1163,0.393700787401575);
#340=VECTOR('',#1168,0.393700787401575);
#341=VECTOR('',#1169,0.393700787401575);
#342=VECTOR('',#1170,0.393700787401575);
#343=VECTOR('',#1171,0.393700787401575);
#344=VECTOR('',#1174,0.393700787401575);
#345=VECTOR('',#1175,0.393700787401575);
#346=VECTOR('',#1176,0.393700787401575);
#347=VECTOR('',#1177,0.393700787401575);
#348=VECTOR('',#1180,0.393700787401575);
#349=VECTOR('',#1181,0.393700787401575);
#350=VECTOR('',#1184,0.393700787401575);
#351=VECTOR('',#1185,0.393700787401575);
#352=VECTOR('',#1186,0.393700787401575);
#353=VECTOR('',#1187,0.393700787401575);
#354=VECTOR('',#1188,0.393700787401575);
#355=VECTOR('',#1191,0.045);
#356=VECTOR('',#1198,0.045);
#357=VECTOR('',#1201,0.045);
#358=VECTOR('',#1208,0.045);
#359=VECTOR('',#1211,0.393700787401575);
#360=VECTOR('',#1212,0.393700787401575);
#361=VECTOR('',#1213,0.393700787401575);
#362=VECTOR('',#1216,0.393700787401575);
#363=VECTOR('',#1219,0.393700787401575);
#364=VECTOR('',#1220,0.393700787401575);
#365=VECTOR('',#1221,0.393700787401575);
#366=VECTOR('',#1224,0.393700787401575);
#367=VECTOR('',#1229,0.045);
#368=VECTOR('',#1234,0.393700787401575);
#369=VECTOR('',#1235,0.393700787401575);
#370=VECTOR('',#1236,0.393700787401575);
#371=VECTOR('',#1237,0.393700787401575);
#372=VECTOR('',#1240,0.393700787401575);
#373=VECTOR('',#1241,0.393700787401575);
#374=VECTOR('',#1242,0.393700787401575);
#375=VECTOR('',#1245,0.393700787401575);
#376=VECTOR('',#1246,0.393700787401575);
#377=VECTOR('',#1247,0.393700787401575);
#378=VECTOR('',#1250,0.393700787401575);
#379=VECTOR('',#1253,0.393700787401575);
#380=VECTOR('',#1254,0.393700787401575);
#381=VECTOR('',#1255,0.393700787401575);
#382=VECTOR('',#1256,0.393700787401575);
#383=VECTOR('',#1259,0.393700787401575);
#384=VECTOR('',#1260,0.393700787401575);
#385=VECTOR('',#1261,0.393700787401575);
#386=VECTOR('',#1264,0.393700787401575);
#387=VECTOR('',#1265,0.393700787401575);
#388=VECTOR('',#1266,0.393700787401575);
#389=VECTOR('',#1269,0.393700787401575);
#390=VECTOR('',#1272,0.393700787401575);
#391=VECTOR('',#1273,0.393700787401575);
#392=VECTOR('',#1274,0.393700787401575);
#393=VECTOR('',#1275,0.393700787401575);
#394=VECTOR('',#1278,0.393700787401575);
#395=VECTOR('',#1279,0.393700787401575);
#396=VECTOR('',#1280,0.393700787401575);
#397=VECTOR('',#1283,0.393700787401575);
#398=VECTOR('',#1284,0.393700787401575);
#399=VECTOR('',#1285,0.393700787401575);
#400=VECTOR('',#1288,0.393700787401575);
#401=VECTOR('',#1291,0.393700787401575);
#402=VECTOR('',#1292,0.393700787401575);
#403=VECTOR('',#1293,0.393700787401575);
#404=VECTOR('',#1294,0.393700787401575);
#405=VECTOR('',#1295,0.393700787401575);
#406=VECTOR('',#1296,0.393700787401575);
#407=VECTOR('',#1301,0.05);
#408=VECTOR('',#1304,0.393700787401575);
#409=VECTOR('',#1305,0.393700787401575);
#410=VECTOR('',#1306,0.393700787401575);
#411=VECTOR('',#1309,0.393700787401575);
#412=VECTOR('',#1310,0.393700787401575);
#413=VECTOR('',#1311,0.393700787401575);
#414=VECTOR('',#1314,0.393700787401575);
#415=VECTOR('',#1315,0.393700787401575);
#416=VECTOR('',#1316,0.393700787401575);
#417=VECTOR('',#1321,0.045);
#418=VECTOR('',#1328,0.045);
#419=VECTOR('',#1335,0.045);
#420=VECTOR('',#1342,0.045);
#421=VECTOR('',#1349,0.175);
#422=VECTOR('',#1358,0.175);
#423=VECTOR('',#1367,0.175);
#424=VECTOR('',#1376,0.175);
#425=VECTOR('',#1383,0.393700787401575);
#426=VECTOR('',#1384,0.393700787401575);
#427=VECTOR('',#1385,0.393700787401575);
#428=VECTOR('',#1386,0.393700787401575);
#429=VECTOR('',#1389,0.393700787401575);
#430=VECTOR('',#1390,0.393700787401575);
#431=VECTOR('',#1393,0.393700787401575);
#432=VECTOR('',#1394,0.393700787401575);
#433=VECTOR('',#1399,0.393700787401575);
#434=VECTOR('',#1400,0.393700787401575);
#435=VECTOR('',#1401,0.393700787401575);
#436=VERTEX_POINT('',#1408);
#437=VERTEX_POINT('',#1409);
#438=VERTEX_POINT('',#1411);
#439=VERTEX_POINT('',#1413);
#440=VERTEX_POINT('',#1416);
#441=VERTEX_POINT('',#1418);
#442=VERTEX_POINT('',#1421);
#443=VERTEX_POINT('',#1422);
#444=VERTEX_POINT('',#1424);
#445=VERTEX_POINT('',#1426);
#446=VERTEX_POINT('',#1429);
#447=VERTEX_POINT('',#1431);
#448=VERTEX_POINT('',#1435);
#449=VERTEX_POINT('',#1437);
#450=VERTEX_POINT('',#1439);
#451=VERTEX_POINT('',#1441);
#452=VERTEX_POINT('',#1444);
#453=VERTEX_POINT('',#1447);
#454=VERTEX_POINT('',#1448);
#455=VERTEX_POINT('',#1450);
#456=VERTEX_POINT('',#1452);
#457=VERTEX_POINT('',#1456);
#458=VERTEX_POINT('',#1457);
#459=VERTEX_POINT('',#1459);
#460=VERTEX_POINT('',#1461);
#461=VERTEX_POINT('',#1468);
#462=VERTEX_POINT('',#1470);
#463=VERTEX_POINT('',#1472);
#464=VERTEX_POINT('',#1474);
#465=VERTEX_POINT('',#1478);
#466=VERTEX_POINT('',#1482);
#467=VERTEX_POINT('',#1486);
#468=VERTEX_POINT('',#1490);
#469=VERTEX_POINT('',#1494);
#470=VERTEX_POINT('',#1496);
#471=VERTEX_POINT('',#1502);
#472=VERTEX_POINT('',#1504);
#473=VERTEX_POINT('',#1510);
#474=VERTEX_POINT('',#1512);
#475=VERTEX_POINT('',#1516);
#476=VERTEX_POINT('',#1517);
#477=VERTEX_POINT('',#1519);
#478=VERTEX_POINT('',#1521);
#479=VERTEX_POINT('',#1525);
#480=VERTEX_POINT('',#1527);
#481=VERTEX_POINT('',#1531);
#482=VERTEX_POINT('',#1533);
#483=VERTEX_POINT('',#1539);
#484=VERTEX_POINT('',#1540);
#485=VERTEX_POINT('',#1542);
#486=VERTEX_POINT('',#1544);
#487=VERTEX_POINT('',#1548);
#488=VERTEX_POINT('',#1550);
#489=VERTEX_POINT('',#1554);
#490=VERTEX_POINT('',#1556);
#491=VERTEX_POINT('',#1562);
#492=VERTEX_POINT('',#1563);
#493=VERTEX_POINT('',#1565);
#494=VERTEX_POINT('',#1567);
#495=VERTEX_POINT('',#1571);
#496=VERTEX_POINT('',#1573);
#497=VERTEX_POINT('',#1577);
#498=VERTEX_POINT('',#1579);
#499=VERTEX_POINT('',#1585);
#500=VERTEX_POINT('',#1587);
#501=VERTEX_POINT('',#1589);
#502=VERTEX_POINT('',#1591);
#503=VERTEX_POINT('',#1596);
#504=VERTEX_POINT('',#1600);
#505=VERTEX_POINT('',#1602);
#506=VERTEX_POINT('',#1606);
#507=VERTEX_POINT('',#1608);
#508=VERTEX_POINT('',#1616);
#509=VERTEX_POINT('',#1618);
#510=VERTEX_POINT('',#1622);
#511=VERTEX_POINT('',#1624);
#512=VERTEX_POINT('',#1628);
#513=VERTEX_POINT('',#1630);
#514=VERTEX_POINT('',#1634);
#515=VERTEX_POINT('',#1636);
#516=VERTEX_POINT('',#1640);
#517=VERTEX_POINT('',#1642);
#518=VERTEX_POINT('',#1647);
#519=VERTEX_POINT('',#1649);
#520=VERTEX_POINT('',#1654);
#521=VERTEX_POINT('',#1656);
#522=VERTEX_POINT('',#1661);
#523=VERTEX_POINT('',#1663);
#524=VERTEX_POINT('',#1668);
#525=VERTEX_POINT('',#1669);
#526=VERTEX_POINT('',#1671);
#527=VERTEX_POINT('',#1673);
#528=EDGE_CURVE('',#436,#437,#216,.T.);
#529=EDGE_CURVE('',#438,#436,#217,.T.);
#530=EDGE_CURVE('',#439,#438,#218,.T.);
#531=EDGE_CURVE('',#437,#439,#219,.T.);
#532=EDGE_CURVE('',#440,#440,#58,.T.);
#533=EDGE_CURVE('',#441,#441,#59,.T.);
#534=EDGE_CURVE('',#442,#443,#220,.T.);
#535=EDGE_CURVE('',#444,#442,#221,.T.);
#536=EDGE_CURVE('',#445,#444,#222,.T.);
#537=EDGE_CURVE('',#445,#443,#223,.T.);
#538=EDGE_CURVE('',#446,#446,#60,.T.);
#539=EDGE_CURVE('',#447,#447,#61,.T.);
#540=EDGE_CURVE('',#443,#436,#224,.T.);
#541=EDGE_CURVE('',#448,#437,#225,.T.);
#542=EDGE_CURVE('',#449,#448,#226,.T.);
#543=EDGE_CURVE('',#450,#449,#227,.T.);
#544=EDGE_CURVE('',#450,#451,#228,.T.);
#545=EDGE_CURVE('',#442,#451,#229,.T.);
#546=EDGE_CURVE('',#452,#452,#62,.T.);
#547=EDGE_CURVE('',#453,#454,#230,.T.);
#548=EDGE_CURVE('',#455,#453,#231,.T.);
#549=EDGE_CURVE('',#456,#455,#232,.T.);
#550=EDGE_CURVE('',#454,#456,#233,.T.);
#551=EDGE_CURVE('',#457,#458,#234,.T.);
#552=EDGE_CURVE('',#459,#457,#235,.T.);
#553=EDGE_CURVE('',#460,#459,#236,.T.);
#554=EDGE_CURVE('',#460,#458,#237,.T.);
#555=EDGE_CURVE('',#458,#453,#238,.T.);
#556=EDGE_CURVE('',#455,#460,#239,.T.);
#557=EDGE_CURVE('',#461,#454,#240,.T.);
#558=EDGE_CURVE('',#461,#462,#241,.T.);
#559=EDGE_CURVE('',#462,#463,#242,.T.);
#560=EDGE_CURVE('',#464,#463,#243,.T.);
#561=EDGE_CURVE('',#457,#464,#244,.T.);
#562=EDGE_CURVE('',#446,#465,#245,.T.);
#563=EDGE_CURVE('',#465,#465,#63,.T.);
#564=EDGE_CURVE('',#466,#466,#64,.T.);
#565=EDGE_CURVE('',#466,#441,#246,.T.);
#566=EDGE_CURVE('',#447,#467,#247,.T.);
#567=EDGE_CURVE('',#467,#467,#65,.T.);
#568=EDGE_CURVE('',#468,#468,#66,.T.);
#569=EDGE_CURVE('',#468,#440,#248,.T.);
#570=EDGE_CURVE('',#449,#469,#249,.T.);
#571=EDGE_CURVE('',#470,#448,#250,.T.);
#572=EDGE_CURVE('',#469,#470,#251,.T.);
#573=EDGE_CURVE('',#439,#470,#252,.T.);
#574=EDGE_CURVE('',#471,#450,#253,.T.);
#575=EDGE_CURVE('',#471,#472,#254,.T.);
#576=EDGE_CURVE('',#451,#472,#255,.T.);
#577=EDGE_CURVE('',#472,#444,#256,.T.);
#578=EDGE_CURVE('',#473,#473,#67,.T.);
#579=EDGE_CURVE('',#473,#474,#257,.T.);
#580=EDGE_CURVE('',#474,#474,#68,.T.);
#581=EDGE_CURVE('',#475,#476,#258,.T.);
#582=EDGE_CURVE('',#475,#477,#259,.T.);
#583=EDGE_CURVE('',#478,#477,#260,.T.);
#584=EDGE_CURVE('',#476,#478,#261,.T.);
#585=EDGE_CURVE('',#476,#479,#262,.T.);
#586=EDGE_CURVE('',#480,#478,#263,.T.);
#587=EDGE_CURVE('',#479,#480,#264,.T.);
#588=EDGE_CURVE('',#481,#475,#265,.T.);
#589=EDGE_CURVE('',#481,#482,#266,.T.);
#590=EDGE_CURVE('',#477,#482,#267,.T.);
#591=EDGE_CURVE('',#482,#480,#268,.T.);
#592=EDGE_CURVE('',#483,#484,#269,.T.);
#593=EDGE_CURVE('',#483,#485,#270,.T.);
#594=EDGE_CURVE('',#485,#486,#271,.T.);
#595=EDGE_CURVE('',#484,#486,#272,.T.);
#596=EDGE_CURVE('',#487,#483,#273,.T.);
#597=EDGE_CURVE('',#487,#488,#274,.T.);
#598=EDGE_CURVE('',#488,#485,#275,.T.);
#599=EDGE_CURVE('',#489,#487,#276,.T.);
#600=EDGE_CURVE('',#490,#489,#277,.T.);
#601=EDGE_CURVE('',#490,#488,#278,.T.);
#602=EDGE_CURVE('',#486,#490,#279,.T.);
#603=EDGE_CURVE('',#491,#492,#280,.T.);
#604=EDGE_CURVE('',#491,#493,#281,.T.);
#605=EDGE_CURVE('',#493,#494,#282,.T.);
#606=EDGE_CURVE('',#492,#494,#283,.T.);
#607=EDGE_CURVE('',#495,#491,#284,.T.);
#608=EDGE_CURVE('',#495,#496,#285,.T.);
#609=EDGE_CURVE('',#496,#493,#286,.T.);
#610=EDGE_CURVE('',#497,#495,#287,.T.);
#611=EDGE_CURVE('',#498,#497,#288,.T.);
#612=EDGE_CURVE('',#498,#496,#289,.T.);
#613=EDGE_CURVE('',#494,#498,#290,.T.);
#614=EDGE_CURVE('',#499,#484,#291,.T.);
#615=EDGE_CURVE('',#499,#500,#292,.T.);
#616=EDGE_CURVE('',#501,#500,#293,.T.);
#617=EDGE_CURVE('',#502,#501,#294,.T.);
#618=EDGE_CURVE('',#497,#502,#295,.T.);
#619=EDGE_CURVE('',#489,#492,#296,.T.);
#620=EDGE_CURVE('',#503,#503,#69,.T.);
#621=EDGE_CURVE('',#503,#452,#297,.T.);
#622=EDGE_CURVE('',#504,#501,#298,.T.);
#623=EDGE_CURVE('',#505,#504,#299,.T.);
#624=EDGE_CURVE('',#502,#505,#300,.T.);
#625=EDGE_CURVE('',#500,#506,#301,.T.);
#626=EDGE_CURVE('',#507,#499,#302,.T.);
#627=EDGE_CURVE('',#507,#506,#303,.T.);
#628=EDGE_CURVE('',#506,#504,#304,.T.);
#629=EDGE_CURVE('',#479,#507,#305,.T.);
#630=EDGE_CURVE('',#505,#481,#306,.T.);
#631=EDGE_CURVE('',#508,#508,#70,.T.);
#632=EDGE_CURVE('',#508,#509,#307,.T.);
#633=EDGE_CURVE('',#509,#509,#71,.T.);
#634=EDGE_CURVE('',#510,#510,#72,.T.);
#635=EDGE_CURVE('',#510,#511,#308,.T.);
#636=EDGE_CURVE('',#511,#511,#73,.T.);
#637=EDGE_CURVE('',#512,#512,#74,.T.);
#638=EDGE_CURVE('',#512,#513,#309,.T.);
#639=EDGE_CURVE('',#513,#513,#75,.T.);
#640=EDGE_CURVE('',#514,#514,#76,.T.);
#641=EDGE_CURVE('',#514,#515,#310,.T.);
#642=EDGE_CURVE('',#515,#515,#77,.T.);
#643=EDGE_CURVE('',#516,#516,#78,.T.);
#644=EDGE_CURVE('',#516,#517,#311,.T.);
#645=EDGE_CURVE('',#517,#517,#79,.T.);
#646=EDGE_CURVE('',#518,#518,#80,.T.);
#647=EDGE_CURVE('',#518,#519,#312,.T.);
#648=EDGE_CURVE('',#519,#519,#81,.T.);
#649=EDGE_CURVE('',#520,#520,#82,.T.);
#650=EDGE_CURVE('',#520,#521,#313,.T.);
#651=EDGE_CURVE('',#521,#521,#83,.T.);
#652=EDGE_CURVE('',#522,#522,#84,.T.);
#653=EDGE_CURVE('',#522,#523,#314,.T.);
#654=EDGE_CURVE('',#523,#523,#85,.T.);
#655=EDGE_CURVE('',#524,#525,#315,.T.);
#656=EDGE_CURVE('',#524,#526,#316,.T.);
#657=EDGE_CURVE('',#526,#527,#317,.T.);
#658=EDGE_CURVE('',#525,#527,#318,.T.);
#659=EDGE_CURVE('',#464,#524,#319,.T.);
#660=EDGE_CURVE('',#463,#526,#320,.T.);
#661=EDGE_CURVE('',#525,#461,#321,.T.);
#662=EDGE_CURVE('',#527,#462,#322,.T.);
#663=EDGE_CURVE('',#456,#438,#323,.T.);
#664=EDGE_CURVE('',#459,#445,#324,.T.);
#665=EDGE_CURVE('',#469,#471,#325,.T.);
#666=ORIENTED_EDGE('',*,*,#528,.F.);
#667=ORIENTED_EDGE('',*,*,#529,.F.);
#668=ORIENTED_EDGE('',*,*,#530,.F.);
#669=ORIENTED_EDGE('',*,*,#531,.F.);
#670=ORIENTED_EDGE('',*,*,#532,.F.);
#671=ORIENTED_EDGE('',*,*,#533,.F.);
#672=ORIENTED_EDGE('',*,*,#534,.F.);
#673=ORIENTED_EDGE('',*,*,#535,.F.);
#674=ORIENTED_EDGE('',*,*,#536,.F.);
#675=ORIENTED_EDGE('',*,*,#537,.T.);
#676=ORIENTED_EDGE('',*,*,#538,.F.);
#677=ORIENTED_EDGE('',*,*,#539,.F.);
#678=ORIENTED_EDGE('',*,*,#540,.T.);
#679=ORIENTED_EDGE('',*,*,#528,.T.);
#680=ORIENTED_EDGE('',*,*,#541,.F.);
#681=ORIENTED_EDGE('',*,*,#542,.F.);
#682=ORIENTED_EDGE('',*,*,#543,.F.);
#683=ORIENTED_EDGE('',*,*,#544,.T.);
#684=ORIENTED_EDGE('',*,*,#545,.F.);
#685=ORIENTED_EDGE('',*,*,#534,.T.);
#686=ORIENTED_EDGE('',*,*,#546,.T.);
#687=ORIENTED_EDGE('',*,*,#547,.F.);
#688=ORIENTED_EDGE('',*,*,#548,.F.);
#689=ORIENTED_EDGE('',*,*,#549,.F.);
#690=ORIENTED_EDGE('',*,*,#550,.F.);
#691=ORIENTED_EDGE('',*,*,#551,.F.);
#692=ORIENTED_EDGE('',*,*,#552,.F.);
#693=ORIENTED_EDGE('',*,*,#553,.F.);
#694=ORIENTED_EDGE('',*,*,#554,.T.);
#695=ORIENTED_EDGE('',*,*,#555,.F.);
#696=ORIENTED_EDGE('',*,*,#554,.F.);
#697=ORIENTED_EDGE('',*,*,#556,.F.);
#698=ORIENTED_EDGE('',*,*,#548,.T.);
#699=ORIENTED_EDGE('',*,*,#551,.T.);
#700=ORIENTED_EDGE('',*,*,#555,.T.);
#701=ORIENTED_EDGE('',*,*,#547,.T.);
#702=ORIENTED_EDGE('',*,*,#557,.F.);
#703=ORIENTED_EDGE('',*,*,#558,.T.);
#704=ORIENTED_EDGE('',*,*,#559,.T.);
#705=ORIENTED_EDGE('',*,*,#560,.F.);
#706=ORIENTED_EDGE('',*,*,#561,.F.);
#707=ORIENTED_EDGE('',*,*,#538,.T.);
#708=ORIENTED_EDGE('',*,*,#562,.T.);
#709=ORIENTED_EDGE('',*,*,#563,.F.);
#710=ORIENTED_EDGE('',*,*,#562,.F.);
#711=ORIENTED_EDGE('',*,*,#564,.F.);
#712=ORIENTED_EDGE('',*,*,#565,.T.);
#713=ORIENTED_EDGE('',*,*,#533,.T.);
#714=ORIENTED_EDGE('',*,*,#565,.F.);
#715=ORIENTED_EDGE('',*,*,#539,.T.);
#716=ORIENTED_EDGE('',*,*,#566,.T.);
#717=ORIENTED_EDGE('',*,*,#567,.F.);
#718=ORIENTED_EDGE('',*,*,#566,.F.);
#719=ORIENTED_EDGE('',*,*,#568,.F.);
#720=ORIENTED_EDGE('',*,*,#569,.T.);
#721=ORIENTED_EDGE('',*,*,#532,.T.);
#722=ORIENTED_EDGE('',*,*,#569,.F.);
#723=ORIENTED_EDGE('',*,*,#570,.F.);
#724=ORIENTED_EDGE('',*,*,#542,.T.);
#725=ORIENTED_EDGE('',*,*,#571,.F.);
#726=ORIENTED_EDGE('',*,*,#572,.F.);
#727=ORIENTED_EDGE('',*,*,#564,.T.);
#728=ORIENTED_EDGE('',*,*,#568,.T.);
#729=ORIENTED_EDGE('',*,*,#531,.T.);
#730=ORIENTED_EDGE('',*,*,#573,.T.);
#731=ORIENTED_EDGE('',*,*,#571,.T.);
#732=ORIENTED_EDGE('',*,*,#541,.T.);
#733=ORIENTED_EDGE('',*,*,#574,.F.);
#734=ORIENTED_EDGE('',*,*,#575,.T.);
#735=ORIENTED_EDGE('',*,*,#576,.F.);
#736=ORIENTED_EDGE('',*,*,#544,.F.);
#737=ORIENTED_EDGE('',*,*,#563,.T.);
#738=ORIENTED_EDGE('',*,*,#567,.T.);
#739=ORIENTED_EDGE('',*,*,#535,.T.);
#740=ORIENTED_EDGE('',*,*,#545,.T.);
#741=ORIENTED_EDGE('',*,*,#576,.T.);
#742=ORIENTED_EDGE('',*,*,#577,.T.);
#743=ORIENTED_EDGE('',*,*,#578,.F.);
#744=ORIENTED_EDGE('',*,*,#579,.T.);
#745=ORIENTED_EDGE('',*,*,#580,.F.);
#746=ORIENTED_EDGE('',*,*,#579,.F.);
#747=ORIENTED_EDGE('',*,*,#581,.F.);
#748=ORIENTED_EDGE('',*,*,#582,.T.);
#749=ORIENTED_EDGE('',*,*,#583,.F.);
#750=ORIENTED_EDGE('',*,*,#584,.F.);
#751=ORIENTED_EDGE('',*,*,#585,.F.);
#752=ORIENTED_EDGE('',*,*,#584,.T.);
#753=ORIENTED_EDGE('',*,*,#586,.F.);
#754=ORIENTED_EDGE('',*,*,#587,.F.);
#755=ORIENTED_EDGE('',*,*,#588,.F.);
#756=ORIENTED_EDGE('',*,*,#589,.T.);
#757=ORIENTED_EDGE('',*,*,#590,.F.);
#758=ORIENTED_EDGE('',*,*,#582,.F.);
#759=ORIENTED_EDGE('',*,*,#590,.T.);
#760=ORIENTED_EDGE('',*,*,#591,.T.);
#761=ORIENTED_EDGE('',*,*,#586,.T.);
#762=ORIENTED_EDGE('',*,*,#583,.T.);
#763=ORIENTED_EDGE('',*,*,#578,.T.);
#764=ORIENTED_EDGE('',*,*,#592,.F.);
#765=ORIENTED_EDGE('',*,*,#593,.T.);
#766=ORIENTED_EDGE('',*,*,#594,.T.);
#767=ORIENTED_EDGE('',*,*,#595,.F.);
#768=ORIENTED_EDGE('',*,*,#596,.F.);
#769=ORIENTED_EDGE('',*,*,#597,.T.);
#770=ORIENTED_EDGE('',*,*,#598,.T.);
#771=ORIENTED_EDGE('',*,*,#593,.F.);
#772=ORIENTED_EDGE('',*,*,#599,.F.);
#773=ORIENTED_EDGE('',*,*,#600,.F.);
#774=ORIENTED_EDGE('',*,*,#601,.T.);
#775=ORIENTED_EDGE('',*,*,#597,.F.);
#776=ORIENTED_EDGE('',*,*,#601,.F.);
#777=ORIENTED_EDGE('',*,*,#602,.F.);
#778=ORIENTED_EDGE('',*,*,#594,.F.);
#779=ORIENTED_EDGE('',*,*,#598,.F.);
#780=ORIENTED_EDGE('',*,*,#603,.F.);
#781=ORIENTED_EDGE('',*,*,#604,.T.);
#782=ORIENTED_EDGE('',*,*,#605,.T.);
#783=ORIENTED_EDGE('',*,*,#606,.F.);
#784=ORIENTED_EDGE('',*,*,#607,.F.);
#785=ORIENTED_EDGE('',*,*,#608,.T.);
#786=ORIENTED_EDGE('',*,*,#609,.T.);
#787=ORIENTED_EDGE('',*,*,#604,.F.);
#788=ORIENTED_EDGE('',*,*,#610,.F.);
#789=ORIENTED_EDGE('',*,*,#611,.F.);
#790=ORIENTED_EDGE('',*,*,#612,.T.);
#791=ORIENTED_EDGE('',*,*,#608,.F.);
#792=ORIENTED_EDGE('',*,*,#612,.F.);
#793=ORIENTED_EDGE('',*,*,#613,.F.);
#794=ORIENTED_EDGE('',*,*,#605,.F.);
#795=ORIENTED_EDGE('',*,*,#609,.F.);
#796=ORIENTED_EDGE('',*,*,#599,.T.);
#797=ORIENTED_EDGE('',*,*,#596,.T.);
#798=ORIENTED_EDGE('',*,*,#592,.T.);
#799=ORIENTED_EDGE('',*,*,#614,.F.);
#800=ORIENTED_EDGE('',*,*,#615,.T.);
#801=ORIENTED_EDGE('',*,*,#616,.F.);
#802=ORIENTED_EDGE('',*,*,#617,.F.);
#803=ORIENTED_EDGE('',*,*,#618,.F.);
#804=ORIENTED_EDGE('',*,*,#610,.T.);
#805=ORIENTED_EDGE('',*,*,#607,.T.);
#806=ORIENTED_EDGE('',*,*,#603,.T.);
#807=ORIENTED_EDGE('',*,*,#619,.F.);
#808=ORIENTED_EDGE('',*,*,#620,.F.);
#809=ORIENTED_EDGE('',*,*,#621,.T.);
#810=ORIENTED_EDGE('',*,*,#546,.F.);
#811=ORIENTED_EDGE('',*,*,#621,.F.);
#812=ORIENTED_EDGE('',*,*,#622,.F.);
#813=ORIENTED_EDGE('',*,*,#623,.F.);
#814=ORIENTED_EDGE('',*,*,#624,.F.);
#815=ORIENTED_EDGE('',*,*,#617,.T.);
#816=ORIENTED_EDGE('',*,*,#625,.F.);
#817=ORIENTED_EDGE('',*,*,#615,.F.);
#818=ORIENTED_EDGE('',*,*,#626,.F.);
#819=ORIENTED_EDGE('',*,*,#627,.T.);
#820=ORIENTED_EDGE('',*,*,#628,.F.);
#821=ORIENTED_EDGE('',*,*,#627,.F.);
#822=ORIENTED_EDGE('',*,*,#629,.F.);
#823=ORIENTED_EDGE('',*,*,#587,.T.);
#824=ORIENTED_EDGE('',*,*,#591,.F.);
#825=ORIENTED_EDGE('',*,*,#589,.F.);
#826=ORIENTED_EDGE('',*,*,#630,.F.);
#827=ORIENTED_EDGE('',*,*,#623,.T.);
#828=ORIENTED_EDGE('',*,*,#631,.F.);
#829=ORIENTED_EDGE('',*,*,#632,.T.);
#830=ORIENTED_EDGE('',*,*,#633,.F.);
#831=ORIENTED_EDGE('',*,*,#632,.F.);
#832=ORIENTED_EDGE('',*,*,#634,.F.);
#833=ORIENTED_EDGE('',*,*,#635,.T.);
#834=ORIENTED_EDGE('',*,*,#636,.F.);
#835=ORIENTED_EDGE('',*,*,#635,.F.);
#836=ORIENTED_EDGE('',*,*,#637,.F.);
#837=ORIENTED_EDGE('',*,*,#638,.T.);
#838=ORIENTED_EDGE('',*,*,#639,.F.);
#839=ORIENTED_EDGE('',*,*,#638,.F.);
#840=ORIENTED_EDGE('',*,*,#640,.F.);
#841=ORIENTED_EDGE('',*,*,#641,.T.);
#842=ORIENTED_EDGE('',*,*,#642,.F.);
#843=ORIENTED_EDGE('',*,*,#641,.F.);
#844=ORIENTED_EDGE('',*,*,#643,.F.);
#845=ORIENTED_EDGE('',*,*,#644,.T.);
#846=ORIENTED_EDGE('',*,*,#645,.F.);
#847=ORIENTED_EDGE('',*,*,#644,.F.);
#848=ORIENTED_EDGE('',*,*,#643,.T.);
#849=ORIENTED_EDGE('',*,*,#634,.T.);
#850=ORIENTED_EDGE('',*,*,#646,.F.);
#851=ORIENTED_EDGE('',*,*,#647,.T.);
#852=ORIENTED_EDGE('',*,*,#648,.F.);
#853=ORIENTED_EDGE('',*,*,#647,.F.);
#854=ORIENTED_EDGE('',*,*,#646,.T.);
#855=ORIENTED_EDGE('',*,*,#637,.T.);
#856=ORIENTED_EDGE('',*,*,#649,.F.);
#857=ORIENTED_EDGE('',*,*,#650,.T.);
#858=ORIENTED_EDGE('',*,*,#651,.F.);
#859=ORIENTED_EDGE('',*,*,#650,.F.);
#860=ORIENTED_EDGE('',*,*,#649,.T.);
#861=ORIENTED_EDGE('',*,*,#631,.T.);
#862=ORIENTED_EDGE('',*,*,#652,.F.);
#863=ORIENTED_EDGE('',*,*,#653,.T.);
#864=ORIENTED_EDGE('',*,*,#654,.F.);
#865=ORIENTED_EDGE('',*,*,#653,.F.);
#866=ORIENTED_EDGE('',*,*,#652,.T.);
#867=ORIENTED_EDGE('',*,*,#640,.T.);
#868=ORIENTED_EDGE('',*,*,#655,.F.);
#869=ORIENTED_EDGE('',*,*,#656,.T.);
#870=ORIENTED_EDGE('',*,*,#657,.T.);
#871=ORIENTED_EDGE('',*,*,#658,.F.);
#872=ORIENTED_EDGE('',*,*,#620,.T.);
#873=ORIENTED_EDGE('',*,*,#659,.F.);
#874=ORIENTED_EDGE('',*,*,#560,.T.);
#875=ORIENTED_EDGE('',*,*,#660,.T.);
#876=ORIENTED_EDGE('',*,*,#656,.F.);
#877=ORIENTED_EDGE('',*,*,#661,.F.);
#878=ORIENTED_EDGE('',*,*,#658,.T.);
#879=ORIENTED_EDGE('',*,*,#662,.T.);
#880=ORIENTED_EDGE('',*,*,#558,.F.);
#881=ORIENTED_EDGE('',*,*,#662,.F.);
#882=ORIENTED_EDGE('',*,*,#657,.F.);
#883=ORIENTED_EDGE('',*,*,#660,.F.);
#884=ORIENTED_EDGE('',*,*,#559,.F.);
#885=ORIENTED_EDGE('',*,*,#585,.T.);
#886=ORIENTED_EDGE('',*,*,#629,.T.);
#887=ORIENTED_EDGE('',*,*,#626,.T.);
#888=ORIENTED_EDGE('',*,*,#614,.T.);
#889=ORIENTED_EDGE('',*,*,#595,.T.);
#890=ORIENTED_EDGE('',*,*,#602,.T.);
#891=ORIENTED_EDGE('',*,*,#600,.T.);
#892=ORIENTED_EDGE('',*,*,#619,.T.);
#893=ORIENTED_EDGE('',*,*,#606,.T.);
#894=ORIENTED_EDGE('',*,*,#613,.T.);
#895=ORIENTED_EDGE('',*,*,#611,.T.);
#896=ORIENTED_EDGE('',*,*,#618,.T.);
#897=ORIENTED_EDGE('',*,*,#624,.T.);
#898=ORIENTED_EDGE('',*,*,#630,.T.);
#899=ORIENTED_EDGE('',*,*,#588,.T.);
#900=ORIENTED_EDGE('',*,*,#581,.T.);
#901=ORIENTED_EDGE('',*,*,#645,.T.);
#902=ORIENTED_EDGE('',*,*,#648,.T.);
#903=ORIENTED_EDGE('',*,*,#651,.T.);
#904=ORIENTED_EDGE('',*,*,#654,.T.);
#905=ORIENTED_EDGE('',*,*,#663,.F.);
#906=ORIENTED_EDGE('',*,*,#549,.T.);
#907=ORIENTED_EDGE('',*,*,#556,.T.);
#908=ORIENTED_EDGE('',*,*,#553,.T.);
#909=ORIENTED_EDGE('',*,*,#664,.T.);
#910=ORIENTED_EDGE('',*,*,#536,.T.);
#911=ORIENTED_EDGE('',*,*,#577,.F.);
#912=ORIENTED_EDGE('',*,*,#575,.F.);
#913=ORIENTED_EDGE('',*,*,#665,.F.);
#914=ORIENTED_EDGE('',*,*,#572,.T.);
#915=ORIENTED_EDGE('',*,*,#573,.F.);
#916=ORIENTED_EDGE('',*,*,#530,.T.);
#917=ORIENTED_EDGE('',*,*,#552,.T.);
#918=ORIENTED_EDGE('',*,*,#561,.T.);
#919=ORIENTED_EDGE('',*,*,#659,.T.);
#920=ORIENTED_EDGE('',*,*,#655,.T.);
#921=ORIENTED_EDGE('',*,*,#661,.T.);
#922=ORIENTED_EDGE('',*,*,#557,.T.);
#923=ORIENTED_EDGE('',*,*,#550,.T.);
#924=ORIENTED_EDGE('',*,*,#663,.T.);
#925=ORIENTED_EDGE('',*,*,#529,.T.);
#926=ORIENTED_EDGE('',*,*,#540,.F.);
#927=ORIENTED_EDGE('',*,*,#537,.F.);
#928=ORIENTED_EDGE('',*,*,#664,.F.);
#929=ORIENTED_EDGE('',*,*,#665,.T.);
#930=ORIENTED_EDGE('',*,*,#574,.T.);
#931=ORIENTED_EDGE('',*,*,#543,.T.);
#932=ORIENTED_EDGE('',*,*,#570,.T.);
#933=ORIENTED_EDGE('',*,*,#580,.T.);
#934=ORIENTED_EDGE('',*,*,#625,.T.);
#935=ORIENTED_EDGE('',*,*,#628,.T.);
#936=ORIENTED_EDGE('',*,*,#622,.T.);
#937=ORIENTED_EDGE('',*,*,#616,.T.);
#938=ORIENTED_EDGE('',*,*,#633,.T.);
#939=ORIENTED_EDGE('',*,*,#636,.T.);
#940=ORIENTED_EDGE('',*,*,#639,.T.);
#941=ORIENTED_EDGE('',*,*,#642,.T.);
#942=PLANE('',#1054);
#943=PLANE('',#1057);
#944=PLANE('',#1060);
#945=PLANE('',#1062);
#946=PLANE('',#1063);
#947=PLANE('',#1064);
#948=PLANE('',#1065);
#949=PLANE('',#1074);
#950=PLANE('',#1075);
#951=PLANE('',#1076);
#952=PLANE('',#1077);
#953=PLANE('',#1081);
#954=PLANE('',#1082);
#955=PLANE('',#1083);
#956=PLANE('',#1084);
#957=PLANE('',#1085);
#958=PLANE('',#1086);
#959=PLANE('',#1087);
#960=PLANE('',#1088);
#961=PLANE('',#1089);
#962=PLANE('',#1090);
#963=PLANE('',#1091);
#964=PLANE('',#1092);
#965=PLANE('',#1093);
#966=PLANE('',#1096);
#967=PLANE('',#1097);
#968=PLANE('',#1098);
#969=PLANE('',#1114);
#970=PLANE('',#1118);
#971=PLANE('',#1122);
#972=PLANE('',#1126);
#973=PLANE('',#1127);
#974=PLANE('',#1128);
#975=PLANE('',#1129);
#976=PLANE('',#1130);
#977=PLANE('',#1131);
#978=PLANE('',#1132);
#979=PLANE('',#1133);
#980=ADVANCED_FACE('',(#86,#32,#33),#942,.F.);
#981=ADVANCED_FACE('',(#87,#34,#35),#943,.F.);
#982=ADVANCED_FACE('',(#88,#36),#944,.T.);
#983=ADVANCED_FACE('',(#89),#945,.F.);
#984=ADVANCED_FACE('',(#90),#946,.F.);
#985=ADVANCED_FACE('',(#91),#947,.F.);
#986=ADVANCED_FACE('',(#92),#948,.F.);
#987=ADVANCED_FACE('',(#93),#19,.F.);
#988=ADVANCED_FACE('',(#94),#20,.F.);
#989=ADVANCED_FACE('',(#95),#21,.F.);
#990=ADVANCED_FACE('',(#96),#22,.F.);
#991=ADVANCED_FACE('',(#97,#37,#38),#949,.T.);
#992=ADVANCED_FACE('',(#98),#950,.T.);
#993=ADVANCED_FACE('',(#99,#39,#40),#951,.T.);
#994=ADVANCED_FACE('',(#100),#952,.T.);
#995=ADVANCED_FACE('',(#101),#23,.F.);
#996=ADVANCED_FACE('',(#102),#953,.T.);
#997=ADVANCED_FACE('',(#103),#954,.T.);
#998=ADVANCED_FACE('',(#104),#955,.T.);
#999=ADVANCED_FACE('',(#105,#41),#956,.T.);
#1000=ADVANCED_FACE('',(#106),#957,.F.);
#1001=ADVANCED_FACE('',(#107),#958,.F.);
#1002=ADVANCED_FACE('',(#108),#959,.F.);
#1003=ADVANCED_FACE('',(#109),#960,.F.);
#1004=ADVANCED_FACE('',(#110),#961,.F.);
#1005=ADVANCED_FACE('',(#111),#962,.F.);
#1006=ADVANCED_FACE('',(#112),#963,.F.);
#1007=ADVANCED_FACE('',(#113),#964,.F.);
#1008=ADVANCED_FACE('',(#114),#965,.F.);
#1009=ADVANCED_FACE('',(#115),#18,.F.);
#1010=ADVANCED_FACE('',(#116),#966,.F.);
#1011=ADVANCED_FACE('',(#117),#967,.F.);
#1012=ADVANCED_FACE('',(#118),#968,.F.);
#1013=ADVANCED_FACE('',(#119),#24,.F.);
#1014=ADVANCED_FACE('',(#120),#25,.F.);
#1015=ADVANCED_FACE('',(#121),#26,.F.);
#1016=ADVANCED_FACE('',(#122),#27,.F.);
#1017=ADVANCED_FACE('',(#123),#28,.T.);
#1018=ADVANCED_FACE('',(#124,#42),#969,.T.);
#1019=ADVANCED_FACE('',(#125),#29,.T.);
#1020=ADVANCED_FACE('',(#126,#43),#970,.T.);
#1021=ADVANCED_FACE('',(#127),#30,.T.);
#1022=ADVANCED_FACE('',(#128,#44),#971,.T.);
#1023=ADVANCED_FACE('',(#129),#31,.T.);
#1024=ADVANCED_FACE('',(#130,#45),#972,.T.);
#1025=ADVANCED_FACE('',(#131,#46),#973,.F.);
#1026=ADVANCED_FACE('',(#132),#974,.F.);
#1027=ADVANCED_FACE('',(#133),#975,.F.);
#1028=ADVANCED_FACE('',(#134,#47,#48,#49,#50,#51),#976,.F.);
#1029=ADVANCED_FACE('',(#135),#977,.T.);
#1030=ADVANCED_FACE('',(#136),#978,.T.);
#1031=ADVANCED_FACE('',(#137,#52,#53,#54,#55,#56,#57),#979,.F.);
#1032=CLOSED_SHELL('',(#980,#981,#982,#983,#984,#985,#986,#987,#988,#989,
#990,#991,#992,#993,#994,#995,#996,#997,#998,#999,#1000,#1001,#1002,#1003,
#1004,#1005,#1006,#1007,#1008,#1009,#1010,#1011,#1012,#1013,#1014,#1015,
#1016,#1017,#1018,#1019,#1020,#1021,#1022,#1023,#1024,#1025,#1026,#1027,
#1028,#1029,#1030,#1031));
#1033=DERIVED_UNIT_ELEMENT(#1035,1.);
#1034=DERIVED_UNIT_ELEMENT(#1698,-3.);
#1035=(
CONVERSION_BASED_UNIT('gram',#1037)
MASS_UNIT()
NAMED_UNIT(#1695)
);
#1036=(
MASS_UNIT()
NAMED_UNIT(*)
SI_UNIT(.KILO.,.GRAM.)
);
#1037=MASS_MEASURE_WITH_UNIT(MASS_MEASURE(0.001),#1036);
#1038=DERIVED_UNIT((#1033,#1034));
#1039=MEASURE_REPRESENTATION_ITEM('density measure',
POSITIVE_RATIO_MEASURE(1.),#1038);
#1040=PROPERTY_DEFINITION_REPRESENTATION(#1045,#1042);
#1041=PROPERTY_DEFINITION_REPRESENTATION(#1046,#1043);
#1042=REPRESENTATION('material name',(#1044),#1692);
#1043=REPRESENTATION('density',(#1039),#1692);
#1044=DESCRIPTIVE_REPRESENTATION_ITEM('Generic','Generic');
#1045=PROPERTY_DEFINITION('material property','material name',#1706);
#1046=PROPERTY_DEFINITION('material property','density of part',#1706);
#1047=DATE_TIME_ROLE('creation_date');
#1048=APPLIED_DATE_AND_TIME_ASSIGNMENT(#1049,#1047,(#1706));
#1049=DATE_AND_TIME(#1050,#1051);
#1050=CALENDAR_DATE(2026,3,3);
#1051=LOCAL_TIME(0,0,0.,#1052);
#1052=COORDINATED_UNIVERSAL_TIME_OFFSET(0,0,.BEHIND.);
#1053=AXIS2_PLACEMENT_3D('',#1406,#1134,#1135);
#1054=AXIS2_PLACEMENT_3D('',#1407,#1136,#1137);
#1055=AXIS2_PLACEMENT_3D('',#1417,#1142,#1143);
#1056=AXIS2_PLACEMENT_3D('',#1419,#1144,#1145);
#1057=AXIS2_PLACEMENT_3D('',#1420,#1146,#1147);
#1058=AXIS2_PLACEMENT_3D('',#1430,#1152,#1153);
#1059=AXIS2_PLACEMENT_3D('',#1432,#1154,#1155);
#1060=AXIS2_PLACEMENT_3D('',#1433,#1156,#1157);
#1061=AXIS2_PLACEMENT_3D('',#1445,#1164,#1165);
#1062=AXIS2_PLACEMENT_3D('',#1446,#1166,#1167);
#1063=AXIS2_PLACEMENT_3D('',#1455,#1172,#1173);
#1064=AXIS2_PLACEMENT_3D('',#1464,#1178,#1179);
#1065=AXIS2_PLACEMENT_3D('',#1467,#1182,#1183);
#1066=AXIS2_PLACEMENT_3D('',#1477,#1189,#1190);
#1067=AXIS2_PLACEMENT_3D('',#1480,#1192,#1193);
#1068=AXIS2_PLACEMENT_3D('',#1481,#1194,#1195);
#1069=AXIS2_PLACEMENT_3D('',#1483,#1196,#1197);
#1070=AXIS2_PLACEMENT_3D('',#1485,#1199,#1200);
#1071=AXIS2_PLACEMENT_3D('',#1488,#1202,#1203);
#1072=AXIS2_PLACEMENT_3D('',#1489,#1204,#1205);
#1073=AXIS2_PLACEMENT_3D('',#1491,#1206,#1207);
#1074=AXIS2_PLACEMENT_3D('',#1493,#1209,#1210);
#1075=AXIS2_PLACEMENT_3D('',#1499,#1214,#1215);
#1076=AXIS2_PLACEMENT_3D('',#1501,#1217,#1218);
#1077=AXIS2_PLACEMENT_3D('',#1507,#1222,#1223);
#1078=AXIS2_PLACEMENT_3D('',#1509,#1225,#1226);
#1079=AXIS2_PLACEMENT_3D('',#1511,#1227,#1228);
#1080=AXIS2_PLACEMENT_3D('',#1514,#1230,#1231);
#1081=AXIS2_PLACEMENT_3D('',#1515,#1232,#1233);
#1082=AXIS2_PLACEMENT_3D('',#1524,#1238,#1239);
#1083=AXIS2_PLACEMENT_3D('',#1530,#1243,#1244);
#1084=AXIS2_PLACEMENT_3D('',#1536,#1248,#1249);
#1085=AXIS2_PLACEMENT_3D('',#1538,#1251,#1252);
#1086=AXIS2_PLACEMENT_3D('',#1547,#1257,#1258);
#1087=AXIS2_PLACEMENT_3D('',#1553,#1262,#1263);
#1088=AXIS2_PLACEMENT_3D('',#1559,#1267,#1268);
#1089=AXIS2_PLACEMENT_3D('',#1561,#1270,#1271);
#1090=AXIS2_PLACEMENT_3D('',#1570,#1276,#1277);
#1091=AXIS2_PLACEMENT_3D('',#1576,#1281,#1282);
#1092=AXIS2_PLACEMENT_3D('',#1582,#1286,#1287);
#1093=AXIS2_PLACEMENT_3D('',#1584,#1289,#1290);
#1094=AXIS2_PLACEMENT_3D('',#1595,#1297,#1298);
#1095=AXIS2_PLACEMENT_3D('',#1597,#1299,#1300);
#1096=AXIS2_PLACEMENT_3D('',#1599,#1302,#1303);
#1097=AXIS2_PLACEMENT_3D('',#1605,#1307,#1308);
#1098=AXIS2_PLACEMENT_3D('',#1611,#1312,#1313);
#1099=AXIS2_PLACEMENT_3D('',#1615,#1317,#1318);
#1100=AXIS2_PLACEMENT_3D('',#1617,#1319,#1320);
#1101=AXIS2_PLACEMENT_3D('',#1620,#1322,#1323);
#1102=AXIS2_PLACEMENT_3D('',#1621,#1324,#1325);
#1103=AXIS2_PLACEMENT_3D('',#1623,#1326,#1327);
#1104=AXIS2_PLACEMENT_3D('',#1626,#1329,#1330);
#1105=AXIS2_PLACEMENT_3D('',#1627,#1331,#1332);
#1106=AXIS2_PLACEMENT_3D('',#1629,#1333,#1334);
#1107=AXIS2_PLACEMENT_3D('',#1632,#1336,#1337);
#1108=AXIS2_PLACEMENT_3D('',#1633,#1338,#1339);
#1109=AXIS2_PLACEMENT_3D('',#1635,#1340,#1341);
#1110=AXIS2_PLACEMENT_3D('',#1638,#1343,#1344);
#1111=AXIS2_PLACEMENT_3D('',#1639,#1345,#1346);
#1112=AXIS2_PLACEMENT_3D('',#1641,#1347,#1348);
#1113=AXIS2_PLACEMENT_3D('',#1644,#1350,#1351);
#1114=AXIS2_PLACEMENT_3D('',#1645,#1352,#1353);
#1115=AXIS2_PLACEMENT_3D('',#1646,#1354,#1355);
#1116=AXIS2_PLACEMENT_3D('',#1648,#1356,#1357);
#1117=AXIS2_PLACEMENT_3D('',#1651,#1359,#1360);
#1118=AXIS2_PLACEMENT_3D('',#1652,#1361,#1362);
#1119=AXIS2_PLACEMENT_3D('',#1653,#1363,#1364);
#1120=AXIS2_PLACEMENT_3D('',#1655,#1365,#1366);
#1121=AXIS2_PLACEMENT_3D('',#1658,#1368,#1369);
#1122=AXIS2_PLACEMENT_3D('',#1659,#1370,#1371);
#1123=AXIS2_PLACEMENT_3D('',#1660,#1372,#1373);
#1124=AXIS2_PLACEMENT_3D('',#1662,#1374,#1375);
#1125=AXIS2_PLACEMENT_3D('',#1665,#1377,#1378);
#1126=AXIS2_PLACEMENT_3D('',#1666,#1379,#1380);
#1127=AXIS2_PLACEMENT_3D('',#1667,#1381,#1382);
#1128=AXIS2_PLACEMENT_3D('',#1676,#1387,#1388);
#1129=AXIS2_PLACEMENT_3D('',#1679,#1391,#1392);
#1130=AXIS2_PLACEMENT_3D('',#1682,#1395,#1396);
#1131=AXIS2_PLACEMENT_3D('',#1683,#1397,#1398);
#1132=AXIS2_PLACEMENT_3D('',#1687,#1402,#1403);
#1133=AXIS2_PLACEMENT_3D('',#1688,#1404,#1405);
#1134=DIRECTION('axis',(0.,0.,1.));
#1135=DIRECTION('refdir',(1.,0.,0.));
#1136=DIRECTION('center_axis',(1.,0.,0.));
#1137=DIRECTION('ref_axis',(0.,0.,-1.));
#1138=DIRECTION('',(0.,0.,1.));
#1139=DIRECTION('',(0.,1.,0.));
#1140=DIRECTION('',(0.,0.,-1.));
#1141=DIRECTION('',(0.,-1.,0.));
#1142=DIRECTION('center_axis',(-1.,0.,0.));
#1143=DIRECTION('ref_axis',(0.,0.,-1.));
#1144=DIRECTION('center_axis',(-1.,0.,0.));
#1145=DIRECTION('ref_axis',(0.,0.,-1.));
#1146=DIRECTION('center_axis',(-1.,0.,-2.6225740739177E-16));
#1147=DIRECTION('ref_axis',(-2.6225740739177E-16,0.,1.));
#1148=DIRECTION('',(2.6225740739177E-16,1.15261918168069E-31,-1.));
#1149=DIRECTION('',(0.,1.,0.));
#1150=DIRECTION('',(-2.6225740739177E-16,0.,1.));
#1151=DIRECTION('',(0.,1.,0.));
#1152=DIRECTION('center_axis',(1.,0.,2.6225740739177E-16));
#1153=DIRECTION('ref_axis',(0.,0.,-1.));
#1154=DIRECTION('center_axis',(1.,0.,2.6225740739177E-16));
#1155=DIRECTION('ref_axis',(0.,0.,-1.));
#1156=DIRECTION('center_axis',(-4.39499190182593E-16,1.,0.));
#1157=DIRECTION('ref_axis',(-1.,-4.39499190182593E-16,0.));
#1158=DIRECTION('',(1.,4.39499190182593E-16,1.09188616140211E-16));
#1159=DIRECTION('',(-1.,0.,0.));
#1160=DIRECTION('',(0.,0.,1.));
#1161=DIRECTION('',(1.,0.,0.));
#1162=DIRECTION('',(0.,0.,1.));
#1163=DIRECTION('',(-1.,0.,0.));
#1164=DIRECTION('center_axis',(4.39499190182593E-16,-1.,0.));
#1165=DIRECTION('ref_axis',(1.,9.37942110817171E-16,0.));
#1166=DIRECTION('center_axis',(1.,0.,0.));
#1167=DIRECTION('ref_axis',(0.,0.,-1.));
#1168=DIRECTION('',(0.,0.,1.));
#1169=DIRECTION('',(0.,1.,0.));
#1170=DIRECTION('',(0.,0.,-1.));
#1171=DIRECTION('',(0.,-1.,0.));
#1172=DIRECTION('center_axis',(-1.,0.,0.));
#1173=DIRECTION('ref_axis',(0.,0.,1.));
#1174=DIRECTION('',(0.,0.,-1.));
#1175=DIRECTION('',(0.,1.,0.));
#1176=DIRECTION('',(0.,0.,1.));
#1177=DIRECTION('',(0.,1.,0.));
#1178=DIRECTION('center_axis',(9.71323731080626E-17,0.,-1.));
#1179=DIRECTION('ref_axis',(-1.,0.,-9.71323731080626E-17));
#1180=DIRECTION('',(1.,1.43622385718879E-15,9.71323731080626E-17));
#1181=DIRECTION('',(-1.,0.,-9.71323731080626E-17));
#1182=DIRECTION('center_axis',(1.43622385718879E-15,-1.,0.));
#1183=DIRECTION('ref_axis',(-1.,-1.43622385718879E-15,0.));
#1184=DIRECTION('',(-1.,-1.43622385718879E-15,0.));
#1185=DIRECTION('',(0.,0.,-1.));
#1186=DIRECTION('',(-1.,-1.43622385718879E-15,0.));
#1187=DIRECTION('',(0.,0.,-1.));
#1188=DIRECTION('',(-1.,-1.43622385718879E-15,0.));
#1189=DIRECTION('center_axis',(1.,-2.3311769545935E-16,0.));
#1190=DIRECTION('ref_axis',(0.,0.,-1.));
#1191=DIRECTION('',(-1.,2.3311769545935E-16,0.));
#1192=DIRECTION('center_axis',(1.,-7.2849279831047E-17,0.));
#1193=DIRECTION('ref_axis',(0.,0.,-1.));
#1194=DIRECTION('center_axis',(1.,-2.3311769545935E-16,0.));
#1195=DIRECTION('ref_axis',(0.,0.,-1.));
#1196=DIRECTION('center_axis',(-1.,2.3311769545935E-16,0.));
#1197=DIRECTION('ref_axis',(0.,0.,-1.));
#1198=DIRECTION('',(-1.,2.3311769545935E-16,0.));
#1199=DIRECTION('center_axis',(1.,-2.3311769545935E-16,0.));
#1200=DIRECTION('ref_axis',(0.,0.,-1.));
#1201=DIRECTION('',(-1.,2.3311769545935E-16,0.));
#1202=DIRECTION('center_axis',(1.,-7.2849279831047E-17,0.));
#1203=DIRECTION('ref_axis',(0.,0.,-1.));
#1204=DIRECTION('center_axis',(1.,-2.3311769545935E-16,0.));
#1205=DIRECTION('ref_axis',(0.,0.,-1.));
#1206=DIRECTION('center_axis',(-1.,2.3311769545935E-16,0.));
#1207=DIRECTION('ref_axis',(0.,0.,-1.));
#1208=DIRECTION('',(-1.,2.3311769545935E-16,0.));
#1209=DIRECTION('center_axis',(1.,-2.3311769545935E-16,0.));
#1210=DIRECTION('ref_axis',(2.3311769545935E-16,1.,0.));
#1211=DIRECTION('',(-2.3311769545935E-16,-1.,0.));
#1212=DIRECTION('',(2.3311769545935E-16,1.,0.));
#1213=DIRECTION('',(0.,0.,1.));
#1214=DIRECTION('center_axis',(0.,0.,1.));
#1215=DIRECTION('ref_axis',(1.,0.,0.));
#1216=DIRECTION('',(1.,-1.22464679914735E-16,0.));
#1217=DIRECTION('center_axis',(-1.,7.2849279831047E-17,0.));
#1218=DIRECTION('ref_axis',(-7.2849279831047E-17,-1.,0.));
#1219=DIRECTION('',(7.2849279831047E-17,1.,0.));
#1220=DIRECTION('',(0.,0.,1.));
#1221=DIRECTION('',(-7.2849279831047E-17,-1.,0.));
#1222=DIRECTION('center_axis',(0.,0.,1.));
#1223=DIRECTION('ref_axis',(1.,0.,0.));
#1224=DIRECTION('',(1.,-1.22464679914735E-16,0.));
#1225=DIRECTION('center_axis',(0.,0.,1.));
#1226=DIRECTION('ref_axis',(1.,0.,0.));
#1227=DIRECTION('center_axis',(0.,0.,-1.));
#1228=DIRECTION('ref_axis',(1.,0.,0.));
#1229=DIRECTION('',(0.,0.,-1.));
#1230=DIRECTION('center_axis',(0.,0.,1.));
#1231=DIRECTION('ref_axis',(1.,0.,0.));
#1232=DIRECTION('center_axis',(0.,1.,0.));
#1233=DIRECTION('ref_axis',(-1.,0.,0.));
#1234=DIRECTION('',(1.,0.,0.));
#1235=DIRECTION('',(0.,0.,1.));
#1236=DIRECTION('',(-1.,0.,0.));
#1237=DIRECTION('',(0.,0.,1.));
#1238=DIRECTION('center_axis',(1.,0.,0.));
#1239=DIRECTION('ref_axis',(0.,1.,0.));
#1240=DIRECTION('',(0.,-1.,0.));
#1241=DIRECTION('',(0.,1.,0.));
#1242=DIRECTION('',(0.,0.,1.));
#1243=DIRECTION('center_axis',(-1.,0.,0.));
#1244=DIRECTION('ref_axis',(0.,-1.,0.));
#1245=DIRECTION('',(0.,1.,0.));
#1246=DIRECTION('',(0.,0.,1.));
#1247=DIRECTION('',(0.,-1.,0.));
#1248=DIRECTION('center_axis',(0.,0.,1.));
#1249=DIRECTION('ref_axis',(1.,0.,0.));
#1250=DIRECTION('',(1.,0.,0.));
#1251=DIRECTION('center_axis',(1.,0.,0.));
#1252=DIRECTION('ref_axis',(0.,0.,1.));
#1253=DIRECTION('',(0.,0.,1.));
#1254=DIRECTION('',(0.,-1.,0.));
#1255=DIRECTION('',(0.,0.,1.));
#1256=DIRECTION('',(0.,-1.,0.));
#1257=DIRECTION('center_axis',(0.,0.,-1.));
#1258=DIRECTION('ref_axis',(1.,0.,0.));
#1259=DIRECTION('',(1.,0.,0.));
#1260=DIRECTION('',(0.,-1.,0.));
#1261=DIRECTION('',(1.,0.,0.));
#1262=DIRECTION('center_axis',(-1.,0.,0.));
#1263=DIRECTION('ref_axis',(0.,0.,-1.));
#1264=DIRECTION('',(0.,0.,-1.));
#1265=DIRECTION('',(0.,1.,0.));
#1266=DIRECTION('',(0.,0.,-1.));
#1267=DIRECTION('center_axis',(0.,-1.,0.));
#1268=DIRECTION('ref_axis',(0.,0.,-1.));
#1269=DIRECTION('',(-1.,0.,0.));
#1270=DIRECTION('center_axis',(1.,0.,0.));
#1271=DIRECTION('ref_axis',(0.,0.,1.));
#1272=DIRECTION('',(0.,0.,1.));
#1273=DIRECTION('',(0.,-1.,0.));
#1274=DIRECTION('',(0.,0.,1.));
#1275=DIRECTION('',(0.,-1.,0.));
#1276=DIRECTION('center_axis',(0.,0.,-1.));
#1277=DIRECTION('ref_axis',(1.,0.,0.));
#1278=DIRECTION('',(1.,0.,0.));
#1279=DIRECTION('',(0.,-1.,0.));
#1280=DIRECTION('',(1.,0.,0.));
#1281=DIRECTION('center_axis',(-1.,0.,0.));
#1282=DIRECTION('ref_axis',(0.,0.,-1.));
#1283=DIRECTION('',(0.,0.,-1.));
#1284=DIRECTION('',(0.,1.,0.));
#1285=DIRECTION('',(0.,0.,-1.));
#1286=DIRECTION('center_axis',(0.,-1.,0.));
#1287=DIRECTION('ref_axis',(0.,0.,-1.));
#1288=DIRECTION('',(-1.,0.,0.));
#1289=DIRECTION('center_axis',(0.,-1.,0.));
#1290=DIRECTION('ref_axis',(-1.,0.,0.));
#1291=DIRECTION('',(-1.,0.,0.));
#1292=DIRECTION('',(0.,0.,-1.));
#1293=DIRECTION('',(1.,0.,0.));
#1294=DIRECTION('',(0.,0.,-1.));
#1295=DIRECTION('',(-1.,0.,0.));
#1296=DIRECTION('',(-1.,0.,0.));
#1297=DIRECTION('center_axis',(-8.74191357972565E-16,1.,0.));
#1298=DIRECTION('ref_axis',(1.,9.37942110817171E-16,0.));
#1299=DIRECTION('center_axis',(-9.37942110817171E-16,1.,0.));
#1300=DIRECTION('ref_axis',(1.,9.37942110817171E-16,0.));
#1301=DIRECTION('',(-0.866025403784439,0.499999999999999,1.06057523872491E-16));
#1302=DIRECTION('center_axis',(-1.,0.,0.));
#1303=DIRECTION('ref_axis',(0.,1.,0.));
#1304=DIRECTION('',(0.,-1.,0.));
#1305=DIRECTION('',(0.,0.,-1.));
#1306=DIRECTION('',(0.,1.,0.));
#1307=DIRECTION('center_axis',(1.,0.,0.));
#1308=DIRECTION('ref_axis',(0.,-1.,0.));
#1309=DIRECTION('',(0.,1.,0.));
#1310=DIRECTION('',(0.,-1.,0.));
#1311=DIRECTION('',(0.,0.,-1.));
#1312=DIRECTION('center_axis',(0.,1.,0.));
#1313=DIRECTION('ref_axis',(1.,0.,0.));
#1314=DIRECTION('',(-1.,0.,0.));
#1315=DIRECTION('',(1.,0.,0.));
#1316=DIRECTION('',(1.,0.,0.));
#1317=DIRECTION('center_axis',(0.,0.,1.));
#1318=DIRECTION('ref_axis',(1.,0.,0.));
#1319=DIRECTION('center_axis',(0.,0.,-1.));
#1320=DIRECTION('ref_axis',(1.,0.,0.));
#1321=DIRECTION('',(0.,0.,-1.));
#1322=DIRECTION('center_axis',(0.,0.,1.));
#1323=DIRECTION('ref_axis',(1.,0.,0.));
#1324=DIRECTION('center_axis',(0.,0.,1.));
#1325=DIRECTION('ref_axis',(1.,0.,0.));
#1326=DIRECTION('center_axis',(0.,0.,-1.));
#1327=DIRECTION('ref_axis',(1.,0.,0.));
#1328=DIRECTION('',(0.,0.,-1.));
#1329=DIRECTION('center_axis',(0.,0.,1.));
#1330=DIRECTION('ref_axis',(1.,0.,0.));
#1331=DIRECTION('center_axis',(0.,0.,1.));
#1332=DIRECTION('ref_axis',(1.,0.,0.));
#1333=DIRECTION('center_axis',(0.,0.,-1.));
#1334=DIRECTION('ref_axis',(1.,0.,0.));
#1335=DIRECTION('',(0.,0.,-1.));
#1336=DIRECTION('center_axis',(0.,0.,1.));
#1337=DIRECTION('ref_axis',(1.,0.,0.));
#1338=DIRECTION('center_axis',(0.,0.,1.));
#1339=DIRECTION('ref_axis',(1.,0.,0.));
#1340=DIRECTION('center_axis',(0.,0.,-1.));
#1341=DIRECTION('ref_axis',(1.,0.,0.));
#1342=DIRECTION('',(0.,0.,-1.));
#1343=DIRECTION('center_axis',(0.,0.,1.));
#1344=DIRECTION('ref_axis',(1.,0.,0.));
#1345=DIRECTION('center_axis',(0.,0.,1.));
#1346=DIRECTION('ref_axis',(1.,0.,0.));
#1347=DIRECTION('center_axis',(0.,0.,1.));
#1348=DIRECTION('ref_axis',(1.,0.,0.));
#1349=DIRECTION('',(0.,0.,-1.));
#1350=DIRECTION('center_axis',(0.,0.,-1.));
#1351=DIRECTION('ref_axis',(1.,0.,0.));
#1352=DIRECTION('center_axis',(0.,0.,1.));
#1353=DIRECTION('ref_axis',(1.,0.,0.));
#1354=DIRECTION('center_axis',(0.,0.,1.));
#1355=DIRECTION('ref_axis',(1.,0.,0.));
#1356=DIRECTION('center_axis',(0.,0.,1.));
#1357=DIRECTION('ref_axis',(1.,0.,0.));
#1358=DIRECTION('',(0.,0.,-1.));
#1359=DIRECTION('center_axis',(0.,0.,-1.));
#1360=DIRECTION('ref_axis',(1.,0.,0.));
#1361=DIRECTION('center_axis',(0.,0.,1.));
#1362=DIRECTION('ref_axis',(1.,0.,0.));
#1363=DIRECTION('center_axis',(0.,0.,1.));
#1364=DIRECTION('ref_axis',(1.,0.,0.));
#1365=DIRECTION('center_axis',(0.,0.,1.));
#1366=DIRECTION('ref_axis',(1.,0.,0.));
#1367=DIRECTION('',(0.,0.,-1.));
#1368=DIRECTION('center_axis',(0.,0.,-1.));
#1369=DIRECTION('ref_axis',(1.,0.,0.));
#1370=DIRECTION('center_axis',(0.,0.,1.));
#1371=DIRECTION('ref_axis',(1.,0.,0.));
#1372=DIRECTION('center_axis',(0.,0.,1.));
#1373=DIRECTION('ref_axis',(1.,0.,0.));
#1374=DIRECTION('center_axis',(0.,0.,1.));
#1375=DIRECTION('ref_axis',(1.,0.,0.));
#1376=DIRECTION('',(0.,0.,-1.));
#1377=DIRECTION('center_axis',(0.,0.,-1.));
#1378=DIRECTION('ref_axis',(1.,0.,0.));
#1379=DIRECTION('center_axis',(0.,0.,1.));
#1380=DIRECTION('ref_axis',(1.,0.,0.));
#1381=DIRECTION('center_axis',(-9.37942110817171E-16,1.,0.));
#1382=DIRECTION('ref_axis',(1.,9.37942110817171E-16,0.));
#1383=DIRECTION('',(1.,9.37942110817171E-16,0.));
#1384=DIRECTION('',(0.,0.,-1.));
#1385=DIRECTION('',(1.,9.37942110817171E-16,0.));
#1386=DIRECTION('',(0.,0.,-1.));
#1387=DIRECTION('center_axis',(-1.,-1.22838958059938E-15,0.));
#1388=DIRECTION('ref_axis',(-1.22838958059938E-15,1.,0.));
#1389=DIRECTION('',(-1.22838958059938E-15,1.,0.));
#1390=DIRECTION('',(-1.22838958059938E-15,1.,0.));
#1391=DIRECTION('center_axis',(1.,1.32635930175148E-15,0.));
#1392=DIRECTION('ref_axis',(1.32635930175148E-15,-1.,0.));
#1393=DIRECTION('',(1.32635930175148E-15,-1.,0.));
#1394=DIRECTION('',(1.32635930175148E-15,-1.,0.));
#1395=DIRECTION('center_axis',(0.,0.,-1.));
#1396=DIRECTION('ref_axis',(-1.,0.,0.));
#1397=DIRECTION('center_axis',(0.,-1.,0.));
#1398=DIRECTION('ref_axis',(1.,0.,0.));
#1399=DIRECTION('',(1.,0.,0.));
#1400=DIRECTION('',(-1.,0.,-1.09188616140211E-16));
#1401=DIRECTION('',(-1.,1.22464679914735E-16,0.));
#1402=DIRECTION('center_axis',(0.,0.,1.));
#1403=DIRECTION('ref_axis',(1.,0.,0.));
#1404=DIRECTION('center_axis',(0.,0.,1.));
#1405=DIRECTION('ref_axis',(1.,0.,0.));
#1406=CARTESIAN_POINT('',(0.,0.,0.));
#1407=CARTESIAN_POINT('Origin',(3.1925,0.,1.15));
#1408=CARTESIAN_POINT('',(3.1925,6.,0.9));
#1409=CARTESIAN_POINT('',(3.1925,6.,1.15));
#1410=CARTESIAN_POINT('',(3.1925,6.,0.575));
#1411=CARTESIAN_POINT('',(3.1925,0.,0.9));
#1412=CARTESIAN_POINT('',(3.1925,0.,0.9));
#1413=CARTESIAN_POINT('',(3.1925,0.,1.15));
#1414=CARTESIAN_POINT('',(3.1925,0.,0.575));
#1415=CARTESIAN_POINT('',(3.1925,1.5,1.15));
#1416=CARTESIAN_POINT('',(3.1925,5.5,1.07));
#1417=CARTESIAN_POINT('Origin',(3.1925,5.5,1.025));
#1418=CARTESIAN_POINT('',(3.1925,0.5,1.07));
#1419=CARTESIAN_POINT('Origin',(3.1925,0.5,1.025));
#1420=CARTESIAN_POINT('Origin',(-0.0100000000000001,0.,0.9));
#1421=CARTESIAN_POINT('',(-0.0100000000000002,6.,1.15));
#1422=CARTESIAN_POINT('',(-0.0100000000000001,6.,0.9));
#1423=CARTESIAN_POINT('',(-0.0100000000000005,6.,0.449999999999999));
#1424=CARTESIAN_POINT('',(-0.0100000000000002,0.,1.15));
#1425=CARTESIAN_POINT('',(-0.0100000000000002,1.5,1.15));
#1426=CARTESIAN_POINT('',(-0.0100000000000001,0.,0.9));
#1427=CARTESIAN_POINT('',(-0.01,0.,0.45));
#1428=CARTESIAN_POINT('',(-0.0100000000000001,0.,0.9));
#1429=CARTESIAN_POINT('',(-0.0100000000000005,0.5,1.07));
#1430=CARTESIAN_POINT('Origin',(-0.0100000000000005,0.5,1.025));
#1431=CARTESIAN_POINT('',(-0.00999999999999907,5.5,1.07));
#1432=CARTESIAN_POINT('Origin',(-0.00999999999999907,5.5,1.025));
#1433=CARTESIAN_POINT('Origin',(3.1825,6.,0.));
#1434=CARTESIAN_POINT('',(3.1875,6.,0.9));
#1435=CARTESIAN_POINT('',(3.3325,6.,1.15));
#1436=CARTESIAN_POINT('',(-0.150000000000001,6.,1.15));
#1437=CARTESIAN_POINT('',(3.3325,6.,0.));
#1438=CARTESIAN_POINT('',(3.3325,6.,0.));
#1439=CARTESIAN_POINT('',(-0.150000000000001,6.,0.));
#1440=CARTESIAN_POINT('',(-0.150000000000001,6.,0.));
#1441=CARTESIAN_POINT('',(-0.150000000000001,6.,1.15));
#1442=CARTESIAN_POINT('',(-0.150000000000001,6.,0.));
#1443=CARTESIAN_POINT('',(-0.150000000000001,6.,1.15));
#1444=CARTESIAN_POINT('',(0.18029793560622,6.,0.584594206854006));
#1445=CARTESIAN_POINT('Origin',(0.403503016363105,6.,0.584594206854006));
#1446=CARTESIAN_POINT('Origin',(2.5975,0.,0.9));
#1447=CARTESIAN_POINT('',(2.5975,0.100000000000003,0.3));
#1448=CARTESIAN_POINT('',(2.5975,0.100000000000003,0.9));
#1449=CARTESIAN_POINT('',(2.5975,0.100000000000003,0.9));
#1450=CARTESIAN_POINT('',(2.5975,0.,0.3));
#1451=CARTESIAN_POINT('',(2.5975,0.,0.3));
#1452=CARTESIAN_POINT('',(2.5975,0.,0.9));
#1453=CARTESIAN_POINT('',(2.5975,0.,0.45));
#1454=CARTESIAN_POINT('',(2.5975,1.5,0.9));
#1455=CARTESIAN_POINT('Origin',(2.1475,0.,0.3));
#1456=CARTESIAN_POINT('',(2.1475,0.100000000000003,0.9));
#1457=CARTESIAN_POINT('',(2.1475,0.100000000000003,0.3));
#1458=CARTESIAN_POINT('',(2.1475,0.100000000000003,0.6));
#1459=CARTESIAN_POINT('',(2.1475,0.,0.9));
#1460=CARTESIAN_POINT('',(2.1475,1.5,0.9));
#1461=CARTESIAN_POINT('',(2.1475,0.,0.3));
#1462=CARTESIAN_POINT('',(2.1475,0.,0.15));
#1463=CARTESIAN_POINT('',(2.1475,0.,0.3));
#1464=CARTESIAN_POINT('Origin',(2.5975,0.,0.3));
#1465=CARTESIAN_POINT('',(2.84,0.100000000000004,0.3));
#1466=CARTESIAN_POINT('',(1.29875,0.,0.3));
#1467=CARTESIAN_POINT('Origin',(3.0825,0.100000000000004,0.9));
#1468=CARTESIAN_POINT('',(3.0825,0.100000000000004,0.9));
#1469=CARTESIAN_POINT('',(2.336875,0.100000000000003,0.9));
#1470=CARTESIAN_POINT('',(3.0825,0.100000000000004,0.15));
#1471=CARTESIAN_POINT('',(3.0825,0.100000000000004,0.9));
#1472=CARTESIAN_POINT('',(0.100000000000005,0.0999999999999997,0.15));
#1473=CARTESIAN_POINT('',(0.100000000000005,0.0999999999999997,0.15));
#1474=CARTESIAN_POINT('',(0.100000000000005,0.0999999999999997,0.9));
#1475=CARTESIAN_POINT('',(0.100000000000005,0.0999999999999997,0.9));
#1476=CARTESIAN_POINT('',(2.336875,0.100000000000003,0.9));
#1477=CARTESIAN_POINT('Origin',(-3.69959117190613,0.500000000000001,1.025));
#1478=CARTESIAN_POINT('',(-0.150000000000003,0.500000000000001,1.07));
#1479=CARTESIAN_POINT('',(-3.69959117190613,0.500000000000001,1.07));
#1480=CARTESIAN_POINT('Origin',(-0.150000000000003,0.500000000000001,1.025));
#1481=CARTESIAN_POINT('Origin',(-3.69959117190613,0.500000000000001,1.025));
#1482=CARTESIAN_POINT('',(3.3325,0.5,1.07));
#1483=CARTESIAN_POINT('Origin',(3.3325,0.5,1.025));
#1484=CARTESIAN_POINT('',(-3.69959117190613,0.500000000000001,1.07));
#1485=CARTESIAN_POINT('Origin',(-3.69959117190612,5.5,1.025));
#1486=CARTESIAN_POINT('',(-0.150000000000001,5.5,1.07));
#1487=CARTESIAN_POINT('',(-3.69959117190612,5.5,1.07));
#1488=CARTESIAN_POINT('Origin',(-0.150000000000001,5.5,1.025));
#1489=CARTESIAN_POINT('Origin',(-3.69959117190612,5.5,1.025));
#1490=CARTESIAN_POINT('',(3.3325,5.5,1.07));
#1491=CARTESIAN_POINT('Origin',(3.3325,5.5,1.025));
#1492=CARTESIAN_POINT('',(-3.69959117190612,5.5,1.07));
#1493=CARTESIAN_POINT('Origin',(3.3325,0.,0.));
#1494=CARTESIAN_POINT('',(3.3325,-2.27529884976464E-16,0.));
#1495=CARTESIAN_POINT('',(3.3325,6.,0.));
#1496=CARTESIAN_POINT('',(3.3325,-2.27529884976464E-16,1.15));
#1497=CARTESIAN_POINT('',(3.3325,6.,1.15));
#1498=CARTESIAN_POINT('',(3.3325,-2.27529884976464E-16,0.));
#1499=CARTESIAN_POINT('Origin',(3.2575,3.,1.15));
#1500=CARTESIAN_POINT('',(3.3325,-2.27529884976464E-16,1.15));
#1501=CARTESIAN_POINT('Origin',(-0.150000000000001,6.,0.));
#1502=CARTESIAN_POINT('',(-0.150000000000002,1.98953362826601E-16,0.));
#1503=CARTESIAN_POINT('',(-0.150000000000002,0.,0.));
#1504=CARTESIAN_POINT('',(-0.150000000000002,0.,1.15));
#1505=CARTESIAN_POINT('',(-0.150000000000002,1.98953362826601E-16,0.));
#1506=CARTESIAN_POINT('',(-0.150000000000002,0.,1.15));
#1507=CARTESIAN_POINT('Origin',(-0.0750000000000009,3.,1.15));
#1508=CARTESIAN_POINT('',(3.3325,-2.27529884976464E-16,1.15));
#1509=CARTESIAN_POINT('Origin',(2.11308310712662,5.65380025982882,-6.55115364373038));
#1510=CARTESIAN_POINT('',(2.06808310712662,5.65380025982882,0.3));
#1511=CARTESIAN_POINT('Origin',(2.11308310712662,5.65380025982882,0.3));
#1512=CARTESIAN_POINT('',(2.06808310712662,5.65380025982882,0.));
#1513=CARTESIAN_POINT('',(2.06808310712662,5.65380025982882,-6.55115364373038));
#1514=CARTESIAN_POINT('Origin',(2.11308310712662,5.65380025982882,0.));
#1515=CARTESIAN_POINT('Origin',(2.26307542984923,5.77755476132885,0.15));
#1516=CARTESIAN_POINT('',(1.96257902905129,5.77755476132885,0.15));
#1517=CARTESIAN_POINT('',(2.26307542984923,5.77755476132885,0.15));
#1518=CARTESIAN_POINT('',(1.92716271492462,5.77755476132885,0.15));
#1519=CARTESIAN_POINT('',(1.96257902905129,5.77755476132885,0.3));
#1520=CARTESIAN_POINT('',(1.96257902905129,5.77755476132885,0.15));
#1521=CARTESIAN_POINT('',(2.26307542984923,5.77755476132885,0.3));
#1522=CARTESIAN_POINT('',(2.26307542984923,5.77755476132885,0.3));
#1523=CARTESIAN_POINT('',(2.26307542984923,5.77755476132885,0.15));
#1524=CARTESIAN_POINT('Origin',(2.26307542984923,5.51727115835244,0.15));
#1525=CARTESIAN_POINT('',(2.26307542984923,5.51727115835244,0.15));
#1526=CARTESIAN_POINT('',(2.26307542984923,4.25863557917622,0.15));
#1527=CARTESIAN_POINT('',(2.26307542984923,5.51727115835244,0.3));
#1528=CARTESIAN_POINT('',(2.26307542984923,5.51727115835244,0.3));
#1529=CARTESIAN_POINT('',(2.26307542984923,5.51727115835244,0.15));
#1530=CARTESIAN_POINT('Origin',(1.96257902905129,5.77755476132885,0.15));
#1531=CARTESIAN_POINT('',(1.96257902905129,5.51727115835244,0.15));
#1532=CARTESIAN_POINT('',(1.96257902905129,4.38877738066443,0.15));
#1533=CARTESIAN_POINT('',(1.96257902905129,5.51727115835244,0.3));
#1534=CARTESIAN_POINT('',(1.96257902905129,5.51727115835244,0.15));
#1535=CARTESIAN_POINT('',(1.96257902905129,5.77755476132885,0.3));
#1536=CARTESIAN_POINT('Origin',(2.11282722945026,5.64741295984064,0.3));
#1537=CARTESIAN_POINT('',(0.419715625400014,5.51727115835244,0.3));
#1538=CARTESIAN_POINT('Origin',(2.38415681273359,3.59070043963563,0.113666626570798));
#1539=CARTESIAN_POINT('',(2.38415681273359,3.59070043963563,0.113666626570798));
#1540=CARTESIAN_POINT('',(2.38415681273359,3.59070043963563,0.15));
#1541=CARTESIAN_POINT('',(2.38415681273359,3.59070043963563,0.131833313285399));
#1542=CARTESIAN_POINT('',(2.38415681273359,3.49070043963563,0.113666626570798));
#1543=CARTESIAN_POINT('',(2.38415681273359,3.59070043963563,0.113666626570798));
#1544=CARTESIAN_POINT('',(2.38415681273359,3.49070043963563,0.15));
#1545=CARTESIAN_POINT('',(2.38415681273359,3.49070043963563,0.15));
#1546=CARTESIAN_POINT('',(2.38415681273359,3.29535021981782,0.15));
#1547=CARTESIAN_POINT('Origin',(2.22122083682563,3.59070043963563,0.113666626570798));
#1548=CARTESIAN_POINT('',(2.22122083682563,3.59070043963563,0.113666626570798));
#1549=CARTESIAN_POINT('',(2.49969463550727,3.59070043963563,0.113666626570798));
#1550=CARTESIAN_POINT('',(2.22122083682563,3.49070043963563,0.113666626570798));
#1551=CARTESIAN_POINT('',(2.22122083682563,3.59070043963563,0.113666626570798));
#1552=CARTESIAN_POINT('',(2.38415681273359,3.49070043963563,0.113666626570798));
#1553=CARTESIAN_POINT('Origin',(2.22122083682563,3.59070043963563,0.15));
#1554=CARTESIAN_POINT('',(2.22122083682563,3.59070043963563,0.15));
#1555=CARTESIAN_POINT('',(2.22122083682563,3.59070043963563,0.15));
#1556=CARTESIAN_POINT('',(2.22122083682563,3.49070043963563,0.15));
#1557=CARTESIAN_POINT('',(2.22122083682563,3.29535021981782,0.15));
#1558=CARTESIAN_POINT('',(2.22122083682563,3.49070043963563,0.113666626570798));
#1559=CARTESIAN_POINT('Origin',(2.30268882477961,3.49070043963563,0.131833313285399));
#1560=CARTESIAN_POINT('',(1.94696941238981,3.49070043963563,0.15));
#1561=CARTESIAN_POINT('Origin',(0.864086073122306,3.59070043963563,0.113666626570798));
#1562=CARTESIAN_POINT('',(0.864086073122306,3.59070043963563,0.113666626570798));
#1563=CARTESIAN_POINT('',(0.864086073122306,3.59070043963563,0.15));
#1564=CARTESIAN_POINT('',(0.864086073122306,3.59070043963563,0.131833313285399));
#1565=CARTESIAN_POINT('',(0.864086073122306,3.49070043963563,0.113666626570798));
#1566=CARTESIAN_POINT('',(0.864086073122306,3.59070043963563,0.113666626570798));
#1567=CARTESIAN_POINT('',(0.864086073122306,3.49070043963563,0.15));
#1568=CARTESIAN_POINT('',(0.864086073122306,3.49070043963563,0.15));
#1569=CARTESIAN_POINT('',(0.864086073122306,3.29535021981782,0.15));
#1570=CARTESIAN_POINT('Origin',(0.732096417019529,3.59070043963563,0.113666626570798));
#1571=CARTESIAN_POINT('',(0.732096417019529,3.59070043963563,0.113666626570798));
#1572=CARTESIAN_POINT('',(1.75513242560422,3.59070043963563,0.113666626570798));
#1573=CARTESIAN_POINT('',(0.732096417019529,3.49070043963563,0.113666626570798));
#1574=CARTESIAN_POINT('',(0.732096417019529,3.59070043963563,0.113666626570798));
#1575=CARTESIAN_POINT('',(0.864086073122306,3.49070043963563,0.113666626570798));
#1576=CARTESIAN_POINT('Origin',(0.732096417019529,3.59070043963563,0.15));
#1577=CARTESIAN_POINT('',(0.732096417019529,3.59070043963563,0.15));
#1578=CARTESIAN_POINT('',(0.732096417019529,3.59070043963563,0.15));
#1579=CARTESIAN_POINT('',(0.732096417019529,3.49070043963563,0.15));
#1580=CARTESIAN_POINT('',(0.732096417019529,3.29535021981782,0.15));
#1581=CARTESIAN_POINT('',(0.732096417019529,3.49070043963563,0.113666626570798));
#1582=CARTESIAN_POINT('Origin',(0.798091245070917,3.49070043963563,0.131833313285399));
#1583=CARTESIAN_POINT('',(1.19467062253546,3.49070043963563,0.15));
#1584=CARTESIAN_POINT('Origin',(2.77816843418891,3.59070043963563,0.15));
#1585=CARTESIAN_POINT('',(2.77816843418891,3.59070043963563,0.15));
#1586=CARTESIAN_POINT('',(2.18470921709445,3.59070043963563,0.15));
#1587=CARTESIAN_POINT('',(2.77816843418891,3.59070043963563,0.));
#1588=CARTESIAN_POINT('',(2.77816843418891,3.59070043963563,0.15));
#1589=CARTESIAN_POINT('',(0.419715625400014,3.59070043963563,0.));
#1590=CARTESIAN_POINT('',(2.18470921709445,3.59070043963563,0.));
#1591=CARTESIAN_POINT('',(0.419715625400014,3.59070043963563,0.15));
#1592=CARTESIAN_POINT('',(0.419715625400014,3.59070043963563,0.15));
#1593=CARTESIAN_POINT('',(2.18470921709445,3.59070043963563,0.15));
#1594=CARTESIAN_POINT('',(2.18470921709445,3.59070043963563,0.15));
#1595=CARTESIAN_POINT('Origin',(0.403503016363105,5.9,0.584594206854006));
#1596=CARTESIAN_POINT('',(0.353503016363105,5.9,0.584594206854006));
#1597=CARTESIAN_POINT('Origin',(0.403503016363105,5.9,0.584594206854006));
#1598=CARTESIAN_POINT('',(0.353503016363105,5.9,0.584594206854006));
#1599=CARTESIAN_POINT('Origin',(0.419715625400014,3.59070043963563,0.15));
#1600=CARTESIAN_POINT('',(0.419715625400014,5.51727115835244,0.));
#1601=CARTESIAN_POINT('',(0.419715625400014,3.29535021981782,0.));
#1602=CARTESIAN_POINT('',(0.419715625400014,5.51727115835244,0.15));
#1603=CARTESIAN_POINT('',(0.419715625400014,5.51727115835244,0.15));
#1604=CARTESIAN_POINT('',(0.419715625400014,3.29535021981782,0.15));
#1605=CARTESIAN_POINT('Origin',(2.77816843418891,5.51727115835244,0.15));
#1606=CARTESIAN_POINT('',(2.77816843418891,5.51727115835244,0.));
#1607=CARTESIAN_POINT('',(2.77816843418891,4.25863557917622,0.));
#1608=CARTESIAN_POINT('',(2.77816843418891,5.51727115835244,0.15));
#1609=CARTESIAN_POINT('',(2.77816843418891,4.25863557917622,0.15));
#1610=CARTESIAN_POINT('',(2.77816843418891,5.51727115835244,0.15));
#1611=CARTESIAN_POINT('Origin',(0.419715625400014,5.51727115835244,0.15));
#1612=CARTESIAN_POINT('',(1.00548281270001,5.51727115835244,0.));
#1613=CARTESIAN_POINT('',(1.00548281270001,5.51727115835244,0.15));
#1614=CARTESIAN_POINT('',(1.00548281270001,5.51727115835244,0.15));
#1615=CARTESIAN_POINT('Origin',(0.378761811023617,0.756921259842526,0.125));
#1616=CARTESIAN_POINT('',(0.333761811023617,0.756921259842526,0.25));
#1617=CARTESIAN_POINT('Origin',(0.378761811023617,0.756921259842526,0.25));
#1618=CARTESIAN_POINT('',(0.333761811023617,0.756921259842526,0.));
#1619=CARTESIAN_POINT('',(0.333761811023617,0.756921259842526,0.125));
#1620=CARTESIAN_POINT('Origin',(0.378761811023617,0.756921259842526,0.));
#1621=CARTESIAN_POINT('Origin',(2.80476181102362,0.756921259842526,0.125));
#1622=CARTESIAN_POINT('',(2.75976181102362,0.756921259842526,0.25));
#1623=CARTESIAN_POINT('Origin',(2.80476181102362,0.756921259842526,0.25));
#1624=CARTESIAN_POINT('',(2.75976181102362,0.756921259842526,0.));
#1625=CARTESIAN_POINT('',(2.75976181102362,0.756921259842526,0.125));
#1626=CARTESIAN_POINT('Origin',(2.80476181102362,0.756921259842526,0.));
#1627=CARTESIAN_POINT('Origin',(2.80476181102362,3.14692125984253,0.125));
#1628=CARTESIAN_POINT('',(2.75976181102362,3.14692125984253,0.25));
#1629=CARTESIAN_POINT('Origin',(2.80476181102362,3.14692125984253,0.25));
#1630=CARTESIAN_POINT('',(2.75976181102362,3.14692125984253,0.));
#1631=CARTESIAN_POINT('',(2.75976181102362,3.14692125984253,0.125));
#1632=CARTESIAN_POINT('Origin',(2.80476181102362,3.14692125984253,0.));
#1633=CARTESIAN_POINT('Origin',(0.378761811023617,3.14692125984253,0.125));
#1634=CARTESIAN_POINT('',(0.333761811023617,3.14692125984253,0.25));
#1635=CARTESIAN_POINT('Origin',(0.378761811023617,3.14692125984253,0.25));
#1636=CARTESIAN_POINT('',(0.333761811023617,3.14692125984253,0.));
#1637=CARTESIAN_POINT('',(0.333761811023617,3.14692125984253,0.125));
#1638=CARTESIAN_POINT('Origin',(0.378761811023617,3.14692125984253,0.));
#1639=CARTESIAN_POINT('Origin',(2.80476181102362,0.756921259842526,0.15));
#1640=CARTESIAN_POINT('',(2.62976181102362,0.756921259842526,0.25));
#1641=CARTESIAN_POINT('Origin',(2.80476181102362,0.756921259842526,0.25));
#1642=CARTESIAN_POINT('',(2.62976181102362,0.756921259842526,0.15));
#1643=CARTESIAN_POINT('',(2.62976181102362,0.756921259842526,0.15));
#1644=CARTESIAN_POINT('Origin',(2.80476181102362,0.756921259842526,0.15));
#1645=CARTESIAN_POINT('Origin',(2.80476181102362,0.756921259842526,0.25));
#1646=CARTESIAN_POINT('Origin',(2.80476181102362,3.14692125984253,0.15));
#1647=CARTESIAN_POINT('',(2.62976181102362,3.14692125984253,0.25));
#1648=CARTESIAN_POINT('Origin',(2.80476181102362,3.14692125984253,0.25));
#1649=CARTESIAN_POINT('',(2.62976181102362,3.14692125984253,0.15));
#1650=CARTESIAN_POINT('',(2.62976181102362,3.14692125984253,0.15));
#1651=CARTESIAN_POINT('Origin',(2.80476181102362,3.14692125984253,0.15));
#1652=CARTESIAN_POINT('Origin',(2.80476181102362,3.14692125984253,0.25));
#1653=CARTESIAN_POINT('Origin',(0.378761811023617,0.756921259842526,0.15));
#1654=CARTESIAN_POINT('',(0.203761811023617,0.756921259842526,0.25));
#1655=CARTESIAN_POINT('Origin',(0.378761811023617,0.756921259842526,0.25));
#1656=CARTESIAN_POINT('',(0.203761811023617,0.756921259842526,0.15));
#1657=CARTESIAN_POINT('',(0.203761811023617,0.756921259842526,0.15));
#1658=CARTESIAN_POINT('Origin',(0.378761811023617,0.756921259842526,0.15));
#1659=CARTESIAN_POINT('Origin',(0.378761811023617,0.756921259842526,0.25));
#1660=CARTESIAN_POINT('Origin',(0.378761811023617,3.14692125984253,0.15));
#1661=CARTESIAN_POINT('',(0.203761811023617,3.14692125984253,0.25));
#1662=CARTESIAN_POINT('Origin',(0.378761811023617,3.14692125984253,0.25));
#1663=CARTESIAN_POINT('',(0.203761811023617,3.14692125984253,0.15));
#1664=CARTESIAN_POINT('',(0.203761811023617,3.14692125984253,0.15));
#1665=CARTESIAN_POINT('Origin',(0.378761811023617,3.14692125984253,0.15));
#1666=CARTESIAN_POINT('Origin',(0.378761811023617,3.14692125984253,0.25));
#1667=CARTESIAN_POINT('Origin',(0.0999999999999984,5.9,0.9));
#1668=CARTESIAN_POINT('',(0.0999999999999983,5.9,0.9));
#1669=CARTESIAN_POINT('',(3.08249999999999,5.9,0.9));
#1670=CARTESIAN_POINT('',(0.845624999999996,5.9,0.9));
#1671=CARTESIAN_POINT('',(0.0999999999999984,5.9,0.15));
#1672=CARTESIAN_POINT('',(0.0999999999999983,5.9,0.9));
#1673=CARTESIAN_POINT('',(3.08249999999999,5.9,0.15));
#1674=CARTESIAN_POINT('',(3.08249999999999,5.9,0.15));
#1675=CARTESIAN_POINT('',(3.08249999999999,5.9,0.9));
#1676=CARTESIAN_POINT('Origin',(0.100000000000005,0.0999999999999998,0.9));
#1677=CARTESIAN_POINT('',(0.100000000000004,1.55,0.9));
#1678=CARTESIAN_POINT('',(0.0999999999999983,5.9,0.15));
#1679=CARTESIAN_POINT('Origin',(3.08249999999999,5.9,0.9));
#1680=CARTESIAN_POINT('',(3.08249999999999,4.45,0.9));
#1681=CARTESIAN_POINT('',(3.0825,0.100000000000004,0.15));
#1682=CARTESIAN_POINT('Origin',(1.59125,3.,0.15));
#1683=CARTESIAN_POINT('Origin',(0.,0.,0.));
#1684=CARTESIAN_POINT('',(0.,0.,0.9));
#1685=CARTESIAN_POINT('',(-4.9134877263095E-17,0.,0.9));
#1686=CARTESIAN_POINT('',(3.3325,-2.27529884976464E-16,0.));
#1687=CARTESIAN_POINT('Origin',(1.59125,3.,0.9));
#1688=CARTESIAN_POINT('Origin',(1.59125,3.,0.));
#1689=CARTESIAN_POINT('',(0.,0.,0.15));
#1690=UNCERTAINTY_MEASURE_WITH_UNIT(LENGTH_MEASURE(0.000393700787401575),
#1696,'DISTANCE_ACCURACY_VALUE',
'Maximum model space distance between geometric entities at asserted c
onnectivities');
#1691=UNCERTAINTY_MEASURE_WITH_UNIT(LENGTH_MEASURE(0.000393700787401575),
#1696,'DISTANCE_ACCURACY_VALUE',
'Maximum model space distance between geometric entities at asserted c
onnectivities');
#1692=(
GEOMETRIC_REPRESENTATION_CONTEXT(3)
GLOBAL_UNCERTAINTY_ASSIGNED_CONTEXT((#1690))
GLOBAL_UNIT_ASSIGNED_CONTEXT((#1696,#1700,#1701))
REPRESENTATION_CONTEXT('','3D')
);
#1693=(
GEOMETRIC_REPRESENTATION_CONTEXT(3)
GLOBAL_UNCERTAINTY_ASSIGNED_CONTEXT((#1691))
GLOBAL_UNIT_ASSIGNED_CONTEXT((#1696,#1700,#1701))
REPRESENTATION_CONTEXT('','3D')
);
#1694=DIMENSIONAL_EXPONENTS(1.,0.,0.,0.,0.,0.,0.);
#1695=DIMENSIONAL_EXPONENTS(0.,1.,0.,0.,0.,0.,0.);
#1696=(
CONVERSION_BASED_UNIT('inch',#1699)
LENGTH_UNIT()
NAMED_UNIT(#1694)
);
#1697=(
LENGTH_UNIT()
NAMED_UNIT(*)
SI_UNIT(.MILLI.,.METRE.)
);
#1698=(
LENGTH_UNIT()
NAMED_UNIT(*)
SI_UNIT(.CENTI.,.METRE.)
);
#1699=LENGTH_MEASURE_WITH_UNIT(LENGTH_MEASURE(25.4),#1697);
#1700=(
NAMED_UNIT(*)
PLANE_ANGLE_UNIT()
SI_UNIT($,.RADIAN.)
);
#1701=(
NAMED_UNIT(*)
SI_UNIT($,.STERADIAN.)
SOLID_ANGLE_UNIT()
);
#1702=SHAPE_DEFINITION_REPRESENTATION(#1703,#1704);
#1703=PRODUCT_DEFINITION_SHAPE('',$,#1706);
#1704=SHAPE_REPRESENTATION('',(#1053),#1692);
#1705=PRODUCT_DEFINITION_CONTEXT('part definition',#1710,'design');
#1706=PRODUCT_DEFINITION('Bottom_Shell','Bottom_Shell',#1707,#1705);
#1707=PRODUCT_DEFINITION_FORMATION('',$,#1712);
#1708=PRODUCT_RELATED_PRODUCT_CATEGORY('Bottom_Shell','Bottom_Shell',(#1712));
#1709=APPLICATION_PROTOCOL_DEFINITION('international standard',
'automotive_design',2009,#1710);
#1710=APPLICATION_CONTEXT(
'Core Data for Automotive Mechanical Design Process');
#1711=PRODUCT_CONTEXT('part definition',#1710,'mechanical');
#1712=PRODUCT('Bottom_Shell','Bottom_Shell',$,(#1711));
#1713=PRESENTATION_STYLE_ASSIGNMENT((#1715));
#1714=PRESENTATION_STYLE_ASSIGNMENT((#1716));
#1715=SURFACE_STYLE_USAGE(.BOTH.,#1719);
#1716=SURFACE_STYLE_USAGE(.BOTH.,#1720);
#1717=SURFACE_STYLE_RENDERING_WITH_PROPERTIES($,#1727,(#1718));
#1718=SURFACE_STYLE_TRANSPARENT(0.);
#1719=SURFACE_SIDE_STYLE('',(#1721,#1717));
#1720=SURFACE_SIDE_STYLE('',(#1722));
#1721=SURFACE_STYLE_FILL_AREA(#1723);
#1722=SURFACE_STYLE_FILL_AREA(#1724);
#1723=FILL_AREA_STYLE('',(#1725));
#1724=FILL_AREA_STYLE('',(#1726));
#1725=FILL_AREA_STYLE_COLOUR('',#1727);
#1726=FILL_AREA_STYLE_COLOUR('',#1728);
#1727=COLOUR_RGB('',0.749019607843137,0.749019607843137,0.749019607843137);
#1728=COLOUR_RGB('',0.913725490196078,0.913725490196078,0.);
ENDSEC;
END-ISO-10303-21;
