%TF.GenerationSoftware,KiCad,Pcbnew,9.0.7*%
%TF.CreationDate,2026-03-25T19:08:48-05:00*%
%TF.ProjectId,Heterodyne_Board,48657465-726f-4647-996e-655f426f6172,rev?*%
%TF.SameCoordinates,Original*%
%TF.FileFunction,Legend,Bot*%
%TF.FilePolarity,Positive*%
%FSLAX46Y46*%
G04 Gerber Fmt 4.6, Leading zero omitted, Abs format (unit mm)*
G04 Created by KiCad (PCBNEW 9.0.7) date 2026-03-25 19:08:48*
%MOMM*%
%LPD*%
G01*
G04 APERTURE LIST*
%ADD10C,0.150000*%
%ADD11C,0.050000*%
G04 APERTURE END LIST*
D10*
X206203720Y-73066509D02*
X205870387Y-73066509D01*
X205727530Y-73590319D02*
X206203720Y-73590319D01*
X206203720Y-73590319D02*
X206203720Y-72590319D01*
X206203720Y-72590319D02*
X205727530Y-72590319D01*
X204727530Y-73495080D02*
X204775149Y-73542700D01*
X204775149Y-73542700D02*
X204918006Y-73590319D01*
X204918006Y-73590319D02*
X205013244Y-73590319D01*
X205013244Y-73590319D02*
X205156101Y-73542700D01*
X205156101Y-73542700D02*
X205251339Y-73447461D01*
X205251339Y-73447461D02*
X205298958Y-73352223D01*
X205298958Y-73352223D02*
X205346577Y-73161747D01*
X205346577Y-73161747D02*
X205346577Y-73018890D01*
X205346577Y-73018890D02*
X205298958Y-72828414D01*
X205298958Y-72828414D02*
X205251339Y-72733176D01*
X205251339Y-72733176D02*
X205156101Y-72637938D01*
X205156101Y-72637938D02*
X205013244Y-72590319D01*
X205013244Y-72590319D02*
X204918006Y-72590319D01*
X204918006Y-72590319D02*
X204775149Y-72637938D01*
X204775149Y-72637938D02*
X204727530Y-72685557D01*
X204298958Y-73066509D02*
X203965625Y-73066509D01*
X203822768Y-73590319D02*
X204298958Y-73590319D01*
X204298958Y-73590319D02*
X204298958Y-72590319D01*
X204298958Y-72590319D02*
X203822768Y-72590319D01*
X202965625Y-72923652D02*
X202965625Y-73590319D01*
X203203720Y-72542700D02*
X203441815Y-73256985D01*
X203441815Y-73256985D02*
X202822768Y-73256985D01*
X202013244Y-72923652D02*
X202013244Y-73590319D01*
X202251339Y-72542700D02*
X202489434Y-73256985D01*
X202489434Y-73256985D02*
X201870387Y-73256985D01*
X201013244Y-72590319D02*
X201489434Y-72590319D01*
X201489434Y-72590319D02*
X201537053Y-73066509D01*
X201537053Y-73066509D02*
X201489434Y-73018890D01*
X201489434Y-73018890D02*
X201394196Y-72971271D01*
X201394196Y-72971271D02*
X201156101Y-72971271D01*
X201156101Y-72971271D02*
X201060863Y-73018890D01*
X201060863Y-73018890D02*
X201013244Y-73066509D01*
X201013244Y-73066509D02*
X200965625Y-73161747D01*
X200965625Y-73161747D02*
X200965625Y-73399842D01*
X200965625Y-73399842D02*
X201013244Y-73495080D01*
X201013244Y-73495080D02*
X201060863Y-73542700D01*
X201060863Y-73542700D02*
X201156101Y-73590319D01*
X201156101Y-73590319D02*
X201394196Y-73590319D01*
X201394196Y-73590319D02*
X201489434Y-73542700D01*
X201489434Y-73542700D02*
X201537053Y-73495080D01*
X199251339Y-72637938D02*
X199346577Y-72590319D01*
X199346577Y-72590319D02*
X199489434Y-72590319D01*
X199489434Y-72590319D02*
X199632291Y-72637938D01*
X199632291Y-72637938D02*
X199727529Y-72733176D01*
X199727529Y-72733176D02*
X199775148Y-72828414D01*
X199775148Y-72828414D02*
X199822767Y-73018890D01*
X199822767Y-73018890D02*
X199822767Y-73161747D01*
X199822767Y-73161747D02*
X199775148Y-73352223D01*
X199775148Y-73352223D02*
X199727529Y-73447461D01*
X199727529Y-73447461D02*
X199632291Y-73542700D01*
X199632291Y-73542700D02*
X199489434Y-73590319D01*
X199489434Y-73590319D02*
X199394196Y-73590319D01*
X199394196Y-73590319D02*
X199251339Y-73542700D01*
X199251339Y-73542700D02*
X199203720Y-73495080D01*
X199203720Y-73495080D02*
X199203720Y-73161747D01*
X199203720Y-73161747D02*
X199394196Y-73161747D01*
X198203720Y-73590319D02*
X198537053Y-73114128D01*
X198775148Y-73590319D02*
X198775148Y-72590319D01*
X198775148Y-72590319D02*
X198394196Y-72590319D01*
X198394196Y-72590319D02*
X198298958Y-72637938D01*
X198298958Y-72637938D02*
X198251339Y-72685557D01*
X198251339Y-72685557D02*
X198203720Y-72780795D01*
X198203720Y-72780795D02*
X198203720Y-72923652D01*
X198203720Y-72923652D02*
X198251339Y-73018890D01*
X198251339Y-73018890D02*
X198298958Y-73066509D01*
X198298958Y-73066509D02*
X198394196Y-73114128D01*
X198394196Y-73114128D02*
X198775148Y-73114128D01*
X197584672Y-72590319D02*
X197394196Y-72590319D01*
X197394196Y-72590319D02*
X197298958Y-72637938D01*
X197298958Y-72637938D02*
X197203720Y-72733176D01*
X197203720Y-72733176D02*
X197156101Y-72923652D01*
X197156101Y-72923652D02*
X197156101Y-73256985D01*
X197156101Y-73256985D02*
X197203720Y-73447461D01*
X197203720Y-73447461D02*
X197298958Y-73542700D01*
X197298958Y-73542700D02*
X197394196Y-73590319D01*
X197394196Y-73590319D02*
X197584672Y-73590319D01*
X197584672Y-73590319D02*
X197679910Y-73542700D01*
X197679910Y-73542700D02*
X197775148Y-73447461D01*
X197775148Y-73447461D02*
X197822767Y-73256985D01*
X197822767Y-73256985D02*
X197822767Y-72923652D01*
X197822767Y-72923652D02*
X197775148Y-72733176D01*
X197775148Y-72733176D02*
X197679910Y-72637938D01*
X197679910Y-72637938D02*
X197584672Y-72590319D01*
X196727529Y-72590319D02*
X196727529Y-73399842D01*
X196727529Y-73399842D02*
X196679910Y-73495080D01*
X196679910Y-73495080D02*
X196632291Y-73542700D01*
X196632291Y-73542700D02*
X196537053Y-73590319D01*
X196537053Y-73590319D02*
X196346577Y-73590319D01*
X196346577Y-73590319D02*
X196251339Y-73542700D01*
X196251339Y-73542700D02*
X196203720Y-73495080D01*
X196203720Y-73495080D02*
X196156101Y-73399842D01*
X196156101Y-73399842D02*
X196156101Y-72590319D01*
X195679910Y-73590319D02*
X195679910Y-72590319D01*
X195679910Y-72590319D02*
X195298958Y-72590319D01*
X195298958Y-72590319D02*
X195203720Y-72637938D01*
X195203720Y-72637938D02*
X195156101Y-72685557D01*
X195156101Y-72685557D02*
X195108482Y-72780795D01*
X195108482Y-72780795D02*
X195108482Y-72923652D01*
X195108482Y-72923652D02*
X195156101Y-73018890D01*
X195156101Y-73018890D02*
X195203720Y-73066509D01*
X195203720Y-73066509D02*
X195298958Y-73114128D01*
X195298958Y-73114128D02*
X195679910Y-73114128D01*
X194013243Y-72590319D02*
X193394196Y-72590319D01*
X193394196Y-72590319D02*
X193727529Y-72971271D01*
X193727529Y-72971271D02*
X193584672Y-72971271D01*
X193584672Y-72971271D02*
X193489434Y-73018890D01*
X193489434Y-73018890D02*
X193441815Y-73066509D01*
X193441815Y-73066509D02*
X193394196Y-73161747D01*
X193394196Y-73161747D02*
X193394196Y-73399842D01*
X193394196Y-73399842D02*
X193441815Y-73495080D01*
X193441815Y-73495080D02*
X193489434Y-73542700D01*
X193489434Y-73542700D02*
X193584672Y-73590319D01*
X193584672Y-73590319D02*
X193870386Y-73590319D01*
X193870386Y-73590319D02*
X193965624Y-73542700D01*
X193965624Y-73542700D02*
X194013243Y-73495080D01*
X205870387Y-74676453D02*
X205727530Y-74724072D01*
X205727530Y-74724072D02*
X205679911Y-74771691D01*
X205679911Y-74771691D02*
X205632292Y-74866929D01*
X205632292Y-74866929D02*
X205632292Y-75009786D01*
X205632292Y-75009786D02*
X205679911Y-75105024D01*
X205679911Y-75105024D02*
X205727530Y-75152644D01*
X205727530Y-75152644D02*
X205822768Y-75200263D01*
X205822768Y-75200263D02*
X206203720Y-75200263D01*
X206203720Y-75200263D02*
X206203720Y-74200263D01*
X206203720Y-74200263D02*
X205870387Y-74200263D01*
X205870387Y-74200263D02*
X205775149Y-74247882D01*
X205775149Y-74247882D02*
X205727530Y-74295501D01*
X205727530Y-74295501D02*
X205679911Y-74390739D01*
X205679911Y-74390739D02*
X205679911Y-74485977D01*
X205679911Y-74485977D02*
X205727530Y-74581215D01*
X205727530Y-74581215D02*
X205775149Y-74628834D01*
X205775149Y-74628834D02*
X205870387Y-74676453D01*
X205870387Y-74676453D02*
X206203720Y-74676453D01*
X205251339Y-74914548D02*
X204775149Y-74914548D01*
X205346577Y-75200263D02*
X205013244Y-74200263D01*
X205013244Y-74200263D02*
X204679911Y-75200263D01*
X204489434Y-74200263D02*
X203918006Y-74200263D01*
X204203720Y-75200263D02*
X204203720Y-74200263D01*
X202822767Y-75200263D02*
X202822767Y-74200263D01*
X202822767Y-74676453D02*
X202251339Y-74676453D01*
X202251339Y-75200263D02*
X202251339Y-74200263D01*
X201775148Y-74676453D02*
X201441815Y-74676453D01*
X201298958Y-75200263D02*
X201775148Y-75200263D01*
X201775148Y-75200263D02*
X201775148Y-74200263D01*
X201775148Y-74200263D02*
X201298958Y-74200263D01*
X201013243Y-74200263D02*
X200441815Y-74200263D01*
X200727529Y-75200263D02*
X200727529Y-74200263D01*
X200108481Y-74676453D02*
X199775148Y-74676453D01*
X199632291Y-75200263D02*
X200108481Y-75200263D01*
X200108481Y-75200263D02*
X200108481Y-74200263D01*
X200108481Y-74200263D02*
X199632291Y-74200263D01*
X198632291Y-75200263D02*
X198965624Y-74724072D01*
X199203719Y-75200263D02*
X199203719Y-74200263D01*
X199203719Y-74200263D02*
X198822767Y-74200263D01*
X198822767Y-74200263D02*
X198727529Y-74247882D01*
X198727529Y-74247882D02*
X198679910Y-74295501D01*
X198679910Y-74295501D02*
X198632291Y-74390739D01*
X198632291Y-74390739D02*
X198632291Y-74533596D01*
X198632291Y-74533596D02*
X198679910Y-74628834D01*
X198679910Y-74628834D02*
X198727529Y-74676453D01*
X198727529Y-74676453D02*
X198822767Y-74724072D01*
X198822767Y-74724072D02*
X199203719Y-74724072D01*
X198013243Y-74200263D02*
X197822767Y-74200263D01*
X197822767Y-74200263D02*
X197727529Y-74247882D01*
X197727529Y-74247882D02*
X197632291Y-74343120D01*
X197632291Y-74343120D02*
X197584672Y-74533596D01*
X197584672Y-74533596D02*
X197584672Y-74866929D01*
X197584672Y-74866929D02*
X197632291Y-75057405D01*
X197632291Y-75057405D02*
X197727529Y-75152644D01*
X197727529Y-75152644D02*
X197822767Y-75200263D01*
X197822767Y-75200263D02*
X198013243Y-75200263D01*
X198013243Y-75200263D02*
X198108481Y-75152644D01*
X198108481Y-75152644D02*
X198203719Y-75057405D01*
X198203719Y-75057405D02*
X198251338Y-74866929D01*
X198251338Y-74866929D02*
X198251338Y-74533596D01*
X198251338Y-74533596D02*
X198203719Y-74343120D01*
X198203719Y-74343120D02*
X198108481Y-74247882D01*
X198108481Y-74247882D02*
X198013243Y-74200263D01*
X197156100Y-75200263D02*
X197156100Y-74200263D01*
X197156100Y-74200263D02*
X196918005Y-74200263D01*
X196918005Y-74200263D02*
X196775148Y-74247882D01*
X196775148Y-74247882D02*
X196679910Y-74343120D01*
X196679910Y-74343120D02*
X196632291Y-74438358D01*
X196632291Y-74438358D02*
X196584672Y-74628834D01*
X196584672Y-74628834D02*
X196584672Y-74771691D01*
X196584672Y-74771691D02*
X196632291Y-74962167D01*
X196632291Y-74962167D02*
X196679910Y-75057405D01*
X196679910Y-75057405D02*
X196775148Y-75152644D01*
X196775148Y-75152644D02*
X196918005Y-75200263D01*
X196918005Y-75200263D02*
X197156100Y-75200263D01*
X195965624Y-74724072D02*
X195965624Y-75200263D01*
X196298957Y-74200263D02*
X195965624Y-74724072D01*
X195965624Y-74724072D02*
X195632291Y-74200263D01*
X195298957Y-75200263D02*
X195298957Y-74200263D01*
X195298957Y-74200263D02*
X194727529Y-75200263D01*
X194727529Y-75200263D02*
X194727529Y-74200263D01*
X194251338Y-74676453D02*
X193918005Y-74676453D01*
X193775148Y-75200263D02*
X194251338Y-75200263D01*
X194251338Y-75200263D02*
X194251338Y-74200263D01*
X194251338Y-74200263D02*
X193775148Y-74200263D01*
X192251338Y-74676453D02*
X192108481Y-74724072D01*
X192108481Y-74724072D02*
X192060862Y-74771691D01*
X192060862Y-74771691D02*
X192013243Y-74866929D01*
X192013243Y-74866929D02*
X192013243Y-75009786D01*
X192013243Y-75009786D02*
X192060862Y-75105024D01*
X192060862Y-75105024D02*
X192108481Y-75152644D01*
X192108481Y-75152644D02*
X192203719Y-75200263D01*
X192203719Y-75200263D02*
X192584671Y-75200263D01*
X192584671Y-75200263D02*
X192584671Y-74200263D01*
X192584671Y-74200263D02*
X192251338Y-74200263D01*
X192251338Y-74200263D02*
X192156100Y-74247882D01*
X192156100Y-74247882D02*
X192108481Y-74295501D01*
X192108481Y-74295501D02*
X192060862Y-74390739D01*
X192060862Y-74390739D02*
X192060862Y-74485977D01*
X192060862Y-74485977D02*
X192108481Y-74581215D01*
X192108481Y-74581215D02*
X192156100Y-74628834D01*
X192156100Y-74628834D02*
X192251338Y-74676453D01*
X192251338Y-74676453D02*
X192584671Y-74676453D01*
X191394195Y-74200263D02*
X191203719Y-74200263D01*
X191203719Y-74200263D02*
X191108481Y-74247882D01*
X191108481Y-74247882D02*
X191013243Y-74343120D01*
X191013243Y-74343120D02*
X190965624Y-74533596D01*
X190965624Y-74533596D02*
X190965624Y-74866929D01*
X190965624Y-74866929D02*
X191013243Y-75057405D01*
X191013243Y-75057405D02*
X191108481Y-75152644D01*
X191108481Y-75152644D02*
X191203719Y-75200263D01*
X191203719Y-75200263D02*
X191394195Y-75200263D01*
X191394195Y-75200263D02*
X191489433Y-75152644D01*
X191489433Y-75152644D02*
X191584671Y-75057405D01*
X191584671Y-75057405D02*
X191632290Y-74866929D01*
X191632290Y-74866929D02*
X191632290Y-74533596D01*
X191632290Y-74533596D02*
X191584671Y-74343120D01*
X191584671Y-74343120D02*
X191489433Y-74247882D01*
X191489433Y-74247882D02*
X191394195Y-74200263D01*
X190584671Y-74914548D02*
X190108481Y-74914548D01*
X190679909Y-75200263D02*
X190346576Y-74200263D01*
X190346576Y-74200263D02*
X190013243Y-75200263D01*
X189108481Y-75200263D02*
X189441814Y-74724072D01*
X189679909Y-75200263D02*
X189679909Y-74200263D01*
X189679909Y-74200263D02*
X189298957Y-74200263D01*
X189298957Y-74200263D02*
X189203719Y-74247882D01*
X189203719Y-74247882D02*
X189156100Y-74295501D01*
X189156100Y-74295501D02*
X189108481Y-74390739D01*
X189108481Y-74390739D02*
X189108481Y-74533596D01*
X189108481Y-74533596D02*
X189156100Y-74628834D01*
X189156100Y-74628834D02*
X189203719Y-74676453D01*
X189203719Y-74676453D02*
X189298957Y-74724072D01*
X189298957Y-74724072D02*
X189679909Y-74724072D01*
X188679909Y-75200263D02*
X188679909Y-74200263D01*
X188679909Y-74200263D02*
X188441814Y-74200263D01*
X188441814Y-74200263D02*
X188298957Y-74247882D01*
X188298957Y-74247882D02*
X188203719Y-74343120D01*
X188203719Y-74343120D02*
X188156100Y-74438358D01*
X188156100Y-74438358D02*
X188108481Y-74628834D01*
X188108481Y-74628834D02*
X188108481Y-74771691D01*
X188108481Y-74771691D02*
X188156100Y-74962167D01*
X188156100Y-74962167D02*
X188203719Y-75057405D01*
X188203719Y-75057405D02*
X188298957Y-75152644D01*
X188298957Y-75152644D02*
X188441814Y-75200263D01*
X188441814Y-75200263D02*
X188679909Y-75200263D01*
X206251339Y-75905445D02*
X206203720Y-75857826D01*
X206203720Y-75857826D02*
X206108482Y-75810207D01*
X206108482Y-75810207D02*
X205870387Y-75810207D01*
X205870387Y-75810207D02*
X205775149Y-75857826D01*
X205775149Y-75857826D02*
X205727530Y-75905445D01*
X205727530Y-75905445D02*
X205679911Y-76000683D01*
X205679911Y-76000683D02*
X205679911Y-76095921D01*
X205679911Y-76095921D02*
X205727530Y-76238778D01*
X205727530Y-76238778D02*
X206298958Y-76810207D01*
X206298958Y-76810207D02*
X205679911Y-76810207D01*
X205060863Y-75810207D02*
X204965625Y-75810207D01*
X204965625Y-75810207D02*
X204870387Y-75857826D01*
X204870387Y-75857826D02*
X204822768Y-75905445D01*
X204822768Y-75905445D02*
X204775149Y-76000683D01*
X204775149Y-76000683D02*
X204727530Y-76191159D01*
X204727530Y-76191159D02*
X204727530Y-76429254D01*
X204727530Y-76429254D02*
X204775149Y-76619730D01*
X204775149Y-76619730D02*
X204822768Y-76714968D01*
X204822768Y-76714968D02*
X204870387Y-76762588D01*
X204870387Y-76762588D02*
X204965625Y-76810207D01*
X204965625Y-76810207D02*
X205060863Y-76810207D01*
X205060863Y-76810207D02*
X205156101Y-76762588D01*
X205156101Y-76762588D02*
X205203720Y-76714968D01*
X205203720Y-76714968D02*
X205251339Y-76619730D01*
X205251339Y-76619730D02*
X205298958Y-76429254D01*
X205298958Y-76429254D02*
X205298958Y-76191159D01*
X205298958Y-76191159D02*
X205251339Y-76000683D01*
X205251339Y-76000683D02*
X205203720Y-75905445D01*
X205203720Y-75905445D02*
X205156101Y-75857826D01*
X205156101Y-75857826D02*
X205060863Y-75810207D01*
X204346577Y-75905445D02*
X204298958Y-75857826D01*
X204298958Y-75857826D02*
X204203720Y-75810207D01*
X204203720Y-75810207D02*
X203965625Y-75810207D01*
X203965625Y-75810207D02*
X203870387Y-75857826D01*
X203870387Y-75857826D02*
X203822768Y-75905445D01*
X203822768Y-75905445D02*
X203775149Y-76000683D01*
X203775149Y-76000683D02*
X203775149Y-76095921D01*
X203775149Y-76095921D02*
X203822768Y-76238778D01*
X203822768Y-76238778D02*
X204394196Y-76810207D01*
X204394196Y-76810207D02*
X203775149Y-76810207D01*
X202918006Y-75810207D02*
X203108482Y-75810207D01*
X203108482Y-75810207D02*
X203203720Y-75857826D01*
X203203720Y-75857826D02*
X203251339Y-75905445D01*
X203251339Y-75905445D02*
X203346577Y-76048302D01*
X203346577Y-76048302D02*
X203394196Y-76238778D01*
X203394196Y-76238778D02*
X203394196Y-76619730D01*
X203394196Y-76619730D02*
X203346577Y-76714968D01*
X203346577Y-76714968D02*
X203298958Y-76762588D01*
X203298958Y-76762588D02*
X203203720Y-76810207D01*
X203203720Y-76810207D02*
X203013244Y-76810207D01*
X203013244Y-76810207D02*
X202918006Y-76762588D01*
X202918006Y-76762588D02*
X202870387Y-76714968D01*
X202870387Y-76714968D02*
X202822768Y-76619730D01*
X202822768Y-76619730D02*
X202822768Y-76381635D01*
X202822768Y-76381635D02*
X202870387Y-76286397D01*
X202870387Y-76286397D02*
X202918006Y-76238778D01*
X202918006Y-76238778D02*
X203013244Y-76191159D01*
X203013244Y-76191159D02*
X203203720Y-76191159D01*
X203203720Y-76191159D02*
X203298958Y-76238778D01*
X203298958Y-76238778D02*
X203346577Y-76286397D01*
X203346577Y-76286397D02*
X203394196Y-76381635D01*
X202394196Y-76429254D02*
X201632292Y-76429254D01*
X200965625Y-75810207D02*
X200870387Y-75810207D01*
X200870387Y-75810207D02*
X200775149Y-75857826D01*
X200775149Y-75857826D02*
X200727530Y-75905445D01*
X200727530Y-75905445D02*
X200679911Y-76000683D01*
X200679911Y-76000683D02*
X200632292Y-76191159D01*
X200632292Y-76191159D02*
X200632292Y-76429254D01*
X200632292Y-76429254D02*
X200679911Y-76619730D01*
X200679911Y-76619730D02*
X200727530Y-76714968D01*
X200727530Y-76714968D02*
X200775149Y-76762588D01*
X200775149Y-76762588D02*
X200870387Y-76810207D01*
X200870387Y-76810207D02*
X200965625Y-76810207D01*
X200965625Y-76810207D02*
X201060863Y-76762588D01*
X201060863Y-76762588D02*
X201108482Y-76714968D01*
X201108482Y-76714968D02*
X201156101Y-76619730D01*
X201156101Y-76619730D02*
X201203720Y-76429254D01*
X201203720Y-76429254D02*
X201203720Y-76191159D01*
X201203720Y-76191159D02*
X201156101Y-76000683D01*
X201156101Y-76000683D02*
X201108482Y-75905445D01*
X201108482Y-75905445D02*
X201060863Y-75857826D01*
X201060863Y-75857826D02*
X200965625Y-75810207D01*
X200298958Y-75810207D02*
X199679911Y-75810207D01*
X199679911Y-75810207D02*
X200013244Y-76191159D01*
X200013244Y-76191159D02*
X199870387Y-76191159D01*
X199870387Y-76191159D02*
X199775149Y-76238778D01*
X199775149Y-76238778D02*
X199727530Y-76286397D01*
X199727530Y-76286397D02*
X199679911Y-76381635D01*
X199679911Y-76381635D02*
X199679911Y-76619730D01*
X199679911Y-76619730D02*
X199727530Y-76714968D01*
X199727530Y-76714968D02*
X199775149Y-76762588D01*
X199775149Y-76762588D02*
X199870387Y-76810207D01*
X199870387Y-76810207D02*
X200156101Y-76810207D01*
X200156101Y-76810207D02*
X200251339Y-76762588D01*
X200251339Y-76762588D02*
X200298958Y-76714968D01*
X199251339Y-76429254D02*
X198489435Y-76429254D01*
X198060863Y-75905445D02*
X198013244Y-75857826D01*
X198013244Y-75857826D02*
X197918006Y-75810207D01*
X197918006Y-75810207D02*
X197679911Y-75810207D01*
X197679911Y-75810207D02*
X197584673Y-75857826D01*
X197584673Y-75857826D02*
X197537054Y-75905445D01*
X197537054Y-75905445D02*
X197489435Y-76000683D01*
X197489435Y-76000683D02*
X197489435Y-76095921D01*
X197489435Y-76095921D02*
X197537054Y-76238778D01*
X197537054Y-76238778D02*
X198108482Y-76810207D01*
X198108482Y-76810207D02*
X197489435Y-76810207D01*
X196632292Y-76143540D02*
X196632292Y-76810207D01*
X196870387Y-75762588D02*
X197108482Y-76476873D01*
X197108482Y-76476873D02*
X196489435Y-76476873D01*
X195060863Y-77191159D02*
X195108482Y-77143540D01*
X195108482Y-77143540D02*
X195203720Y-77000683D01*
X195203720Y-77000683D02*
X195251339Y-76905445D01*
X195251339Y-76905445D02*
X195298958Y-76762588D01*
X195298958Y-76762588D02*
X195346577Y-76524492D01*
X195346577Y-76524492D02*
X195346577Y-76334016D01*
X195346577Y-76334016D02*
X195298958Y-76095921D01*
X195298958Y-76095921D02*
X195251339Y-75953064D01*
X195251339Y-75953064D02*
X195203720Y-75857826D01*
X195203720Y-75857826D02*
X195108482Y-75714968D01*
X195108482Y-75714968D02*
X195060863Y-75667349D01*
X194775148Y-76143540D02*
X194537053Y-76810207D01*
X194537053Y-76810207D02*
X194298958Y-76143540D01*
X193918005Y-76714968D02*
X193870386Y-76762588D01*
X193870386Y-76762588D02*
X193918005Y-76810207D01*
X193918005Y-76810207D02*
X193965624Y-76762588D01*
X193965624Y-76762588D02*
X193918005Y-76714968D01*
X193918005Y-76714968D02*
X193918005Y-76810207D01*
X193013244Y-76143540D02*
X193013244Y-76810207D01*
X193251339Y-75762588D02*
X193489434Y-76476873D01*
X193489434Y-76476873D02*
X192870387Y-76476873D01*
X192584672Y-77191159D02*
X192537053Y-77143540D01*
X192537053Y-77143540D02*
X192441815Y-77000683D01*
X192441815Y-77000683D02*
X192394196Y-76905445D01*
X192394196Y-76905445D02*
X192346577Y-76762588D01*
X192346577Y-76762588D02*
X192298958Y-76524492D01*
X192298958Y-76524492D02*
X192298958Y-76334016D01*
X192298958Y-76334016D02*
X192346577Y-76095921D01*
X192346577Y-76095921D02*
X192394196Y-75953064D01*
X192394196Y-75953064D02*
X192441815Y-75857826D01*
X192441815Y-75857826D02*
X192537053Y-75714968D01*
X192537053Y-75714968D02*
X192584672Y-75667349D01*
X206203720Y-78420151D02*
X206203720Y-77420151D01*
X205632292Y-78420151D02*
X206060863Y-77848722D01*
X205632292Y-77420151D02*
X206203720Y-77991579D01*
X205013244Y-77943960D02*
X205013244Y-78420151D01*
X205346577Y-77420151D02*
X205013244Y-77943960D01*
X205013244Y-77943960D02*
X204679911Y-77420151D01*
X203870387Y-78420151D02*
X204346577Y-78420151D01*
X204346577Y-78420151D02*
X204346577Y-77420151D01*
X203537053Y-77896341D02*
X203203720Y-77896341D01*
X203060863Y-78420151D02*
X203537053Y-78420151D01*
X203537053Y-78420151D02*
X203537053Y-77420151D01*
X203537053Y-77420151D02*
X203060863Y-77420151D01*
X201584672Y-77420151D02*
X201584672Y-78134436D01*
X201584672Y-78134436D02*
X201632291Y-78277293D01*
X201632291Y-78277293D02*
X201727529Y-78372532D01*
X201727529Y-78372532D02*
X201870386Y-78420151D01*
X201870386Y-78420151D02*
X201965624Y-78420151D01*
X201060862Y-78372532D02*
X201060862Y-78420151D01*
X201060862Y-78420151D02*
X201108481Y-78515389D01*
X201108481Y-78515389D02*
X201156100Y-78563008D01*
X199870386Y-77896341D02*
X199537053Y-77896341D01*
X199394196Y-78420151D02*
X199870386Y-78420151D01*
X199870386Y-78420151D02*
X199870386Y-77420151D01*
X199870386Y-77420151D02*
X199394196Y-77420151D01*
X199108481Y-77420151D02*
X198775148Y-78420151D01*
X198775148Y-78420151D02*
X198441815Y-77420151D01*
X198156100Y-78134436D02*
X197679910Y-78134436D01*
X198251338Y-78420151D02*
X197918005Y-77420151D01*
X197918005Y-77420151D02*
X197584672Y-78420151D01*
X197251338Y-78420151D02*
X197251338Y-77420151D01*
X197251338Y-77420151D02*
X196679910Y-78420151D01*
X196679910Y-78420151D02*
X196679910Y-77420151D01*
X195441814Y-78420151D02*
X195441814Y-77420151D01*
X195441814Y-77420151D02*
X195108481Y-78134436D01*
X195108481Y-78134436D02*
X194775148Y-77420151D01*
X194775148Y-77420151D02*
X194775148Y-78420151D01*
X194251338Y-78372532D02*
X194251338Y-78420151D01*
X194251338Y-78420151D02*
X194298957Y-78515389D01*
X194298957Y-78515389D02*
X194346576Y-78563008D01*
X192727529Y-77896341D02*
X192584672Y-77943960D01*
X192584672Y-77943960D02*
X192537053Y-77991579D01*
X192537053Y-77991579D02*
X192489434Y-78086817D01*
X192489434Y-78086817D02*
X192489434Y-78229674D01*
X192489434Y-78229674D02*
X192537053Y-78324912D01*
X192537053Y-78324912D02*
X192584672Y-78372532D01*
X192584672Y-78372532D02*
X192679910Y-78420151D01*
X192679910Y-78420151D02*
X193060862Y-78420151D01*
X193060862Y-78420151D02*
X193060862Y-77420151D01*
X193060862Y-77420151D02*
X192727529Y-77420151D01*
X192727529Y-77420151D02*
X192632291Y-77467770D01*
X192632291Y-77467770D02*
X192584672Y-77515389D01*
X192584672Y-77515389D02*
X192537053Y-77610627D01*
X192537053Y-77610627D02*
X192537053Y-77705865D01*
X192537053Y-77705865D02*
X192584672Y-77801103D01*
X192584672Y-77801103D02*
X192632291Y-77848722D01*
X192632291Y-77848722D02*
X192727529Y-77896341D01*
X192727529Y-77896341D02*
X193060862Y-77896341D01*
X192060862Y-78420151D02*
X192060862Y-77420151D01*
X191108482Y-78420151D02*
X191584672Y-78420151D01*
X191584672Y-78420151D02*
X191584672Y-77420151D01*
X190298958Y-78420151D02*
X190775148Y-78420151D01*
X190775148Y-78420151D02*
X190775148Y-77420151D01*
X189298957Y-77420151D02*
X189060862Y-78420151D01*
X189060862Y-78420151D02*
X188870386Y-77705865D01*
X188870386Y-77705865D02*
X188679910Y-78420151D01*
X188679910Y-78420151D02*
X188441815Y-77420151D01*
X206203720Y-79506285D02*
X205870387Y-79506285D01*
X205727530Y-80030095D02*
X206203720Y-80030095D01*
X206203720Y-80030095D02*
X206203720Y-79030095D01*
X206203720Y-79030095D02*
X205727530Y-79030095D01*
X204727530Y-79934856D02*
X204775149Y-79982476D01*
X204775149Y-79982476D02*
X204918006Y-80030095D01*
X204918006Y-80030095D02*
X205013244Y-80030095D01*
X205013244Y-80030095D02*
X205156101Y-79982476D01*
X205156101Y-79982476D02*
X205251339Y-79887237D01*
X205251339Y-79887237D02*
X205298958Y-79791999D01*
X205298958Y-79791999D02*
X205346577Y-79601523D01*
X205346577Y-79601523D02*
X205346577Y-79458666D01*
X205346577Y-79458666D02*
X205298958Y-79268190D01*
X205298958Y-79268190D02*
X205251339Y-79172952D01*
X205251339Y-79172952D02*
X205156101Y-79077714D01*
X205156101Y-79077714D02*
X205013244Y-79030095D01*
X205013244Y-79030095D02*
X204918006Y-79030095D01*
X204918006Y-79030095D02*
X204775149Y-79077714D01*
X204775149Y-79077714D02*
X204727530Y-79125333D01*
X204298958Y-79506285D02*
X203965625Y-79506285D01*
X203822768Y-80030095D02*
X204298958Y-80030095D01*
X204298958Y-80030095D02*
X204298958Y-79030095D01*
X204298958Y-79030095D02*
X203822768Y-79030095D01*
X202298958Y-79506285D02*
X202156101Y-79553904D01*
X202156101Y-79553904D02*
X202108482Y-79601523D01*
X202108482Y-79601523D02*
X202060863Y-79696761D01*
X202060863Y-79696761D02*
X202060863Y-79839618D01*
X202060863Y-79839618D02*
X202108482Y-79934856D01*
X202108482Y-79934856D02*
X202156101Y-79982476D01*
X202156101Y-79982476D02*
X202251339Y-80030095D01*
X202251339Y-80030095D02*
X202632291Y-80030095D01*
X202632291Y-80030095D02*
X202632291Y-79030095D01*
X202632291Y-79030095D02*
X202298958Y-79030095D01*
X202298958Y-79030095D02*
X202203720Y-79077714D01*
X202203720Y-79077714D02*
X202156101Y-79125333D01*
X202156101Y-79125333D02*
X202108482Y-79220571D01*
X202108482Y-79220571D02*
X202108482Y-79315809D01*
X202108482Y-79315809D02*
X202156101Y-79411047D01*
X202156101Y-79411047D02*
X202203720Y-79458666D01*
X202203720Y-79458666D02*
X202298958Y-79506285D01*
X202298958Y-79506285D02*
X202632291Y-79506285D01*
X201679910Y-79744380D02*
X201203720Y-79744380D01*
X201775148Y-80030095D02*
X201441815Y-79030095D01*
X201441815Y-79030095D02*
X201108482Y-80030095D01*
X200918005Y-79030095D02*
X200346577Y-79030095D01*
X200632291Y-80030095D02*
X200632291Y-79030095D01*
X198679910Y-79934856D02*
X198727529Y-79982476D01*
X198727529Y-79982476D02*
X198870386Y-80030095D01*
X198870386Y-80030095D02*
X198965624Y-80030095D01*
X198965624Y-80030095D02*
X199108481Y-79982476D01*
X199108481Y-79982476D02*
X199203719Y-79887237D01*
X199203719Y-79887237D02*
X199251338Y-79791999D01*
X199251338Y-79791999D02*
X199298957Y-79601523D01*
X199298957Y-79601523D02*
X199298957Y-79458666D01*
X199298957Y-79458666D02*
X199251338Y-79268190D01*
X199251338Y-79268190D02*
X199203719Y-79172952D01*
X199203719Y-79172952D02*
X199108481Y-79077714D01*
X199108481Y-79077714D02*
X198965624Y-79030095D01*
X198965624Y-79030095D02*
X198870386Y-79030095D01*
X198870386Y-79030095D02*
X198727529Y-79077714D01*
X198727529Y-79077714D02*
X198679910Y-79125333D01*
X197679910Y-80030095D02*
X198013243Y-79553904D01*
X198251338Y-80030095D02*
X198251338Y-79030095D01*
X198251338Y-79030095D02*
X197870386Y-79030095D01*
X197870386Y-79030095D02*
X197775148Y-79077714D01*
X197775148Y-79077714D02*
X197727529Y-79125333D01*
X197727529Y-79125333D02*
X197679910Y-79220571D01*
X197679910Y-79220571D02*
X197679910Y-79363428D01*
X197679910Y-79363428D02*
X197727529Y-79458666D01*
X197727529Y-79458666D02*
X197775148Y-79506285D01*
X197775148Y-79506285D02*
X197870386Y-79553904D01*
X197870386Y-79553904D02*
X198251338Y-79553904D01*
X197251338Y-79506285D02*
X196918005Y-79506285D01*
X196775148Y-80030095D02*
X197251338Y-80030095D01*
X197251338Y-80030095D02*
X197251338Y-79030095D01*
X197251338Y-79030095D02*
X196775148Y-79030095D01*
X196441814Y-79030095D02*
X196203719Y-80030095D01*
X196203719Y-80030095D02*
X196013243Y-79315809D01*
X196013243Y-79315809D02*
X195822767Y-80030095D01*
X195822767Y-80030095D02*
X195584672Y-79030095D01*
D11*
X186138000Y-71573000D02*
X207518000Y-71573000D01*
X207518000Y-80857000D01*
X186138000Y-80857000D01*
X186138000Y-71573000D01*
M02*
