%TF.GenerationSoftware,KiCad,Pcbnew,9.0.7*%
%TF.CreationDate,2026-03-25T19:08:48-05:00*%
%TF.ProjectId,Heterodyne_Board,48657465-726f-4647-996e-655f426f6172,rev?*%
%TF.SameCoordinates,Original*%
%TF.FileFunction,Soldermask,Bot*%
%TF.FilePolarity,Negative*%
%FSLAX46Y46*%
G04 Gerber Fmt 4.6, Leading zero omitted, Abs format (unit mm)*
G04 Created by KiCad (PCBNEW 9.0.7) date 2026-03-25 19:08:48*
%MOMM*%
%LPD*%
G01*
G04 APERTURE LIST*
G04 Aperture macros list*
%AMRoundRect*
0 Rectangle with rounded corners*
0 $1 Rounding radius*
0 $2 $3 $4 $5 $6 $7 $8 $9 X,Y pos of 4 corners*
0 Add a 4 corners polygon primitive as box body*
4,1,4,$2,$3,$4,$5,$6,$7,$8,$9,$2,$3,0*
0 Add four circle primitives for the rounded corners*
1,1,$1+$1,$2,$3*
1,1,$1+$1,$4,$5*
1,1,$1+$1,$6,$7*
1,1,$1+$1,$8,$9*
0 Add four rect primitives between the rounded corners*
20,1,$1+$1,$2,$3,$4,$5,0*
20,1,$1+$1,$4,$5,$6,$7,0*
20,1,$1+$1,$6,$7,$8,$9,0*
20,1,$1+$1,$8,$9,$2,$3,0*%
G04 Aperture macros list end*
%ADD10C,3.200000*%
%ADD11RoundRect,0.250000X-0.550000X-0.550000X0.550000X-0.550000X0.550000X0.550000X-0.550000X0.550000X0*%
%ADD12C,1.600000*%
%ADD13RoundRect,0.250000X-0.845000X0.620000X-0.845000X-0.620000X0.845000X-0.620000X0.845000X0.620000X0*%
%ADD14O,2.190000X1.740000*%
%ADD15O,2.200000X3.500000*%
%ADD16R,1.500000X2.500000*%
%ADD17O,1.500000X2.500000*%
%ADD18RoundRect,0.250000X-0.620000X-0.845000X0.620000X-0.845000X0.620000X0.845000X-0.620000X0.845000X0*%
%ADD19O,1.740000X2.190000*%
%ADD20RoundRect,0.250000X0.620000X0.845000X-0.620000X0.845000X-0.620000X-0.845000X0.620000X-0.845000X0*%
%ADD21R,3.500000X3.500000*%
%ADD22RoundRect,0.750000X-0.750000X-1.000000X0.750000X-1.000000X0.750000X1.000000X-0.750000X1.000000X0*%
%ADD23RoundRect,0.875000X-0.875000X-0.875000X0.875000X-0.875000X0.875000X0.875000X-0.875000X0.875000X0*%
%ADD24RoundRect,0.250000X0.600000X0.600000X-0.600000X0.600000X-0.600000X-0.600000X0.600000X-0.600000X0*%
%ADD25C,1.700000*%
%ADD26R,1.700000X1.700000*%
%ADD27C,1.200000*%
%ADD28O,1.200000X2.200000*%
%ADD29O,1.600000X2.300000*%
%ADD30O,2.200000X1.200000*%
%ADD31O,1.600000X2.500000*%
G04 APERTURE END LIST*
D10*
%TO.C,H1*%
X143433800Y-64643000D03*
%TD*%
D11*
%TO.C,U6*%
X174195000Y-83190000D03*
D12*
X174195000Y-85730000D03*
X174195000Y-88270000D03*
X174195000Y-90810000D03*
X181815000Y-90810000D03*
X181815000Y-88270000D03*
X181815000Y-85730000D03*
X181815000Y-83190000D03*
%TD*%
D10*
%TO.C,H3*%
X143433800Y-125349000D03*
%TD*%
D13*
%TO.C,J7*%
X162000000Y-89000000D03*
D14*
X162000000Y-91540000D03*
X162000000Y-94080000D03*
%TD*%
D13*
%TO.C,J10*%
X145460000Y-111460000D03*
D14*
X145460000Y-114000000D03*
X145460000Y-116540000D03*
%TD*%
D15*
%TO.C,SW2*%
X191600000Y-63000000D03*
X183400000Y-63000000D03*
D16*
X189500000Y-63000000D03*
D17*
X187500000Y-63000000D03*
X185500000Y-63000000D03*
%TD*%
D13*
%TO.C,J2*%
X180480000Y-125960000D03*
D14*
X180480000Y-128500000D03*
X180480000Y-131040000D03*
%TD*%
D18*
%TO.C,J3*%
X164972000Y-79267500D03*
D19*
X167512000Y-79267500D03*
%TD*%
D20*
%TO.C,J11*%
X198000000Y-68000000D03*
D19*
X195460000Y-68000000D03*
%TD*%
D10*
%TO.C,H2*%
X205054200Y-64643000D03*
%TD*%
D12*
%TO.C,C7*%
X172109000Y-137422000D03*
X172109000Y-134922000D03*
%TD*%
D21*
%TO.C,J1*%
X148000000Y-78042500D03*
D22*
X142000000Y-78042500D03*
D23*
X145000000Y-82742500D03*
%TD*%
D24*
%TO.C,J8*%
X202040000Y-89500000D03*
D25*
X199500000Y-89500000D03*
X202040000Y-86960000D03*
X199500000Y-86960000D03*
X202040000Y-84420000D03*
X199500000Y-84420000D03*
%TD*%
D11*
%TO.C,U2*%
X158195000Y-126190000D03*
D12*
X158195000Y-128730000D03*
X158195000Y-131270000D03*
X158195000Y-133810000D03*
X165815000Y-133810000D03*
X165815000Y-131270000D03*
X165815000Y-128730000D03*
X165815000Y-126190000D03*
%TD*%
D20*
%TO.C,J6*%
X195275000Y-121480000D03*
D19*
X192735000Y-121480000D03*
%TD*%
D26*
%TO.C,J9*%
X171725000Y-60960000D03*
D25*
X174265000Y-60960000D03*
X171725000Y-63500000D03*
X174265000Y-63500000D03*
X171725000Y-66040000D03*
X174265000Y-66040000D03*
%TD*%
D11*
%TO.C,U4*%
X187695000Y-105690000D03*
D12*
X187695000Y-108230000D03*
X187695000Y-110770000D03*
X187695000Y-113310000D03*
X195315000Y-113310000D03*
X195315000Y-110770000D03*
X195315000Y-108230000D03*
X195315000Y-105690000D03*
%TD*%
D15*
%TO.C,SW1*%
X199400000Y-102797500D03*
X207600000Y-102797500D03*
D16*
X201500000Y-102797500D03*
D17*
X203500000Y-102797500D03*
X205500000Y-102797500D03*
%TD*%
D20*
%TO.C,J4*%
X158775000Y-65480000D03*
D19*
X156235000Y-65480000D03*
%TD*%
D10*
%TO.C,H4*%
X205054200Y-125349000D03*
%TD*%
D27*
%TO.C,J5*%
X189000000Y-136500000D03*
X189000000Y-139000000D03*
X194000000Y-131500000D03*
X199000000Y-136500000D03*
X199000000Y-139000000D03*
D28*
X189000000Y-131500000D03*
D29*
X191500000Y-131500000D03*
D30*
X194000000Y-136500000D03*
D28*
X199000000Y-131500000D03*
D31*
X196500000Y-131500000D03*
%TD*%
M02*
