M48
; DRILL file {KiCad 9.0.7} date 2026-03-25T19:08:44-0500
; FORMAT={-:-/ absolute / inch / decimal}
; #@! TF.CreationDate,2026-03-25T19:08:44-05:00
; #@! TF.GenerationSoftware,Kicad,Pcbnew,9.0.7
; #@! TF.FileFunction,Plated,1,2,PTH
FMAT,2
INCH
; #@! TA.AperFunction,Plated,PTH,ViaDrill
T1C0.0118
; #@! TA.AperFunction,Plated,PTH,ComponentDrill
T2C0.0157
; #@! TA.AperFunction,Plated,PTH,ComponentDrill
T3C0.0315
; #@! TA.AperFunction,Plated,PTH,ComponentDrill
T4C0.0394
; #@! TA.AperFunction,Plated,PTH,ComponentDrill
T5C0.0469
; #@! TA.AperFunction,Plated,PTH,ComponentDrill
T6C0.0591
%
G90
G05
T1
X5.9252Y-4.4488
X5.9638Y-4.2717
X5.9646Y-4.3701
X6.063Y-2.5591
X6.063Y-4.4291
X6.122Y-4.3504
X6.1409Y-4.2731
X6.24Y-3.935
X6.2402Y-4.2323
X6.3181Y-4.0945
X6.3181Y-4.2731
X6.3386Y-2.9331
X6.3386Y-3.9567
X6.3483Y-3.1247
X6.375Y-5.06
X6.378Y-4.4094
X6.3976Y-4.2913
X6.3998Y-4.2542
X6.4173Y-3.9961
X6.4173Y-4.5276
X6.4467Y-2.8437
X6.4559Y-4.3445
X6.4567Y-3.0118
X6.4567Y-4.0945
X6.4764Y-2.7953
X6.5157Y-2.9134
X6.5157Y-3.9764
X6.5157Y-4.3307
X6.5748Y-4.2126
X6.5748Y-4.2717
X6.5748Y-4.4291
X6.5845Y-2.8452
X6.6142Y-5.0984
X6.6339Y-2.6772
X6.6508Y-4.3445
X6.6528Y-4.4882
X6.6732Y-2.7559
X6.7126Y-2.6772
X6.7126Y-2.7559
X6.7323Y-4.2717
X6.752Y-2.8346
X6.752Y-4.7441
X6.7717Y-2.9921
X6.7913Y-3.3661
X6.815Y-4.51
X6.8307Y-3.0709
X6.8307Y-3.189
X6.8701Y-4.6063
X6.9094Y-3.9764
X6.9241Y-2.7362
X6.9291Y-2.5591
X6.9291Y-3.2874
X6.9291Y-3.4646
X6.9291Y-5.1378
X6.9488Y-2.6378
X6.9488Y-3.2087
X6.9488Y-3.3858
X6.9488Y-4.7441
X6.9882Y-4.3898
X6.9882Y-4.5669
X6.9882Y-4.8031
X7.0079Y-3.3071
X7.0472Y-4.1142
X7.0866Y-3.4843
X7.1063Y-4.1732
X7.1114Y-4.252
X7.145Y-4.59
X7.1667Y-2.6759
X7.2032Y-3.1299
X7.2244Y-3.2283
X7.2835Y-4.7441
X7.3031Y-4.1732
X7.3425Y-3.2283
X7.3819Y-2.4016
X7.3819Y-2.5591
X7.3819Y-2.6954
X7.4803Y-3.5236
X7.5591Y-4.1142
X7.6181Y-3.4646
X7.6181Y-3.5827
X7.6181Y-4.2126
X7.6315Y-3.5433
X7.6969Y-3.4646
X7.6969Y-3.5433
X7.6969Y-3.9961
X7.7362Y-4.4882
X7.75Y-5.445
X7.7559Y-3.5827
X7.7559Y-4.1732
X7.7953Y-3.4252
X7.7953Y-3.6417
X7.815Y-4.252
X7.8937Y-4.1929
X7.9Y-3.775
X7.9724Y-3.3661
X8.0512Y-3.4055
T3
X6.2281Y-4.9681
X6.2281Y-5.0681
X6.2281Y-5.1681
X6.2281Y-5.2681
X6.5281Y-4.9681
X6.5281Y-5.0681
X6.5281Y-5.1681
X6.5281Y-5.2681
X6.7759Y-5.3119
X6.7759Y-5.4103
X6.8581Y-3.2752
X6.8581Y-3.3752
X6.8581Y-3.4752
X6.8581Y-3.5752
X7.1581Y-3.2752
X7.1581Y-3.3752
X7.1581Y-3.4752
X7.1581Y-3.5752
X7.3031Y-2.4803
X7.3819Y-2.4803
X7.3896Y-4.161
X7.3896Y-4.261
X7.3896Y-4.361
X7.3896Y-4.461
X7.4606Y-2.4803
X7.6896Y-4.161
X7.6896Y-4.261
X7.6896Y-4.361
X7.6896Y-4.461
X7.9331Y-4.0471
X8.0118Y-4.0471
X8.0906Y-4.0471
T4
X6.7608Y-2.4
X6.7608Y-2.5
X6.7608Y-2.6
X6.8608Y-2.4
X6.8608Y-2.5
X6.8608Y-2.6
X7.8543Y-3.3236
X7.8543Y-3.4236
X7.8543Y-3.5236
X7.9543Y-3.3236
X7.9543Y-3.4236
X7.9543Y-3.5236
T5
X5.7268Y-4.3882
X5.7268Y-4.4882
X5.7268Y-4.5882
X6.151Y-2.578
X6.251Y-2.578
X6.378Y-3.5039
X6.378Y-3.6039
X6.378Y-3.7039
X6.495Y-3.1208
X6.595Y-3.1208
X7.1055Y-4.9591
X7.1055Y-5.0591
X7.1055Y-5.1591
X7.588Y-4.7827
X7.688Y-4.7827
X7.6953Y-2.6772
X7.7953Y-2.6772
T6
X7.2205Y-2.4803
X7.5433Y-2.4803
X7.8504Y-4.0471
X8.1732Y-4.0471
T2
G00X7.4409Y-5.1575
M15
G01X7.4409Y-5.1969
M16
G05
G00X7.6181Y-5.374
M15
G01X7.6575Y-5.374
M16
G05
G00X7.8346Y-5.1969
M15
G01X7.8346Y-5.1575
M16
G05
T3
G00X7.5394Y-5.1634
M15
G01X7.5394Y-5.1909
M16
G05
G00X7.7362Y-5.1909
M15
G01X7.7362Y-5.1634
M16
G05
T4
G00X5.5906Y-3.0332
M15
G01X5.5906Y-3.1119
M16
G05
G00X5.6693Y-3.2576
M15
G01X5.748Y-3.2576
M16
G05
G00X5.8268Y-3.0332
M15
G01X5.8268Y-3.1119
M16
G05
M30
