%TF.GenerationSoftware,KiCad,Pcbnew,9.0.7*%
%TF.CreationDate,2026-03-25T19:08:48-05:00*%
%TF.ProjectId,Heterodyne_Board,48657465-726f-4647-996e-655f426f6172,rev?*%
%TF.SameCoordinates,Original*%
%TF.FileFunction,Paste,Top*%
%TF.FilePolarity,Positive*%
%FSLAX46Y46*%
G04 Gerber Fmt 4.6, Leading zero omitted, Abs format (unit mm)*
G04 Created by KiCad (PCBNEW 9.0.7) date 2026-03-25 19:08:48*
%MOMM*%
%LPD*%
G01*
G04 APERTURE LIST*
G04 Aperture macros list*
%AMRoundRect*
0 Rectangle with rounded corners*
0 $1 Rounding radius*
0 $2 $3 $4 $5 $6 $7 $8 $9 X,Y pos of 4 corners*
0 Add a 4 corners polygon primitive as box body*
4,1,4,$2,$3,$4,$5,$6,$7,$8,$9,$2,$3,0*
0 Add four circle primitives for the rounded corners*
1,1,$1+$1,$2,$3*
1,1,$1+$1,$4,$5*
1,1,$1+$1,$6,$7*
1,1,$1+$1,$8,$9*
0 Add four rect primitives between the rounded corners*
20,1,$1+$1,$2,$3,$4,$5,0*
20,1,$1+$1,$4,$5,$6,$7,0*
20,1,$1+$1,$6,$7,$8,$9,0*
20,1,$1+$1,$8,$9,$2,$3,0*%
G04 Aperture macros list end*
%ADD10RoundRect,0.250000X-0.350000X-0.450000X0.350000X-0.450000X0.350000X0.450000X-0.350000X0.450000X0*%
%ADD11RoundRect,0.250000X-0.450000X0.350000X-0.450000X-0.350000X0.450000X-0.350000X0.450000X0.350000X0*%
%ADD12RoundRect,0.225000X0.375000X-0.225000X0.375000X0.225000X-0.375000X0.225000X-0.375000X-0.225000X0*%
%ADD13RoundRect,0.225000X-0.375000X0.225000X-0.375000X-0.225000X0.375000X-0.225000X0.375000X0.225000X0*%
%ADD14RoundRect,0.250000X0.350000X0.450000X-0.350000X0.450000X-0.350000X-0.450000X0.350000X-0.450000X0*%
%ADD15RoundRect,0.250000X-0.475000X0.337500X-0.475000X-0.337500X0.475000X-0.337500X0.475000X0.337500X0*%
%ADD16RoundRect,0.250000X0.450000X-0.350000X0.450000X0.350000X-0.450000X0.350000X-0.450000X-0.350000X0*%
%ADD17RoundRect,0.250000X0.337500X0.475000X-0.337500X0.475000X-0.337500X-0.475000X0.337500X-0.475000X0*%
%ADD18R,1.200000X1.200000*%
%ADD19R,1.500000X1.600000*%
%ADD20RoundRect,0.100000X-0.562500X-0.100000X0.562500X-0.100000X0.562500X0.100000X-0.562500X0.100000X0*%
%ADD21RoundRect,0.250000X-0.337500X-0.475000X0.337500X-0.475000X0.337500X0.475000X-0.337500X0.475000X0*%
%ADD22RoundRect,0.250000X0.475000X-0.337500X0.475000X0.337500X-0.475000X0.337500X-0.475000X-0.337500X0*%
%ADD23RoundRect,0.150000X0.150000X-0.512500X0.150000X0.512500X-0.150000X0.512500X-0.150000X-0.512500X0*%
%ADD24RoundRect,0.150000X-0.825000X-0.150000X0.825000X-0.150000X0.825000X0.150000X-0.825000X0.150000X0*%
%ADD25RoundRect,0.225000X-0.225000X-0.375000X0.225000X-0.375000X0.225000X0.375000X-0.225000X0.375000X0*%
G04 APERTURE END LIST*
D10*
%TO.C,R25*%
X185000000Y-120500000D03*
X187000000Y-120500000D03*
%TD*%
D11*
%TO.C,R6*%
X176980000Y-102500000D03*
X176980000Y-104500000D03*
%TD*%
%TO.C,R11*%
X151480000Y-106500000D03*
X151480000Y-108500000D03*
%TD*%
D12*
%TO.C,D1*%
X154247000Y-74681500D03*
X154247000Y-71381500D03*
%TD*%
D13*
%TO.C,D3*%
X193540000Y-86310000D03*
X193540000Y-89610000D03*
%TD*%
D10*
%TO.C,R12*%
X171500000Y-70000000D03*
X173500000Y-70000000D03*
%TD*%
D11*
%TO.C,R9*%
X156480000Y-102000000D03*
X156480000Y-104000000D03*
%TD*%
D14*
%TO.C,R18*%
X168000000Y-60500000D03*
X166000000Y-60500000D03*
%TD*%
%TO.C,R15*%
X160980000Y-111500000D03*
X158980000Y-111500000D03*
%TD*%
D15*
%TO.C,C2*%
X169000000Y-125962500D03*
X169000000Y-128037500D03*
%TD*%
D16*
%TO.C,R4*%
X167247000Y-74267500D03*
X167247000Y-72267500D03*
%TD*%
D17*
%TO.C,C4*%
X163621500Y-121440000D03*
X161546500Y-121440000D03*
%TD*%
D18*
%TO.C,RV1*%
X155448000Y-129846000D03*
D19*
X152198000Y-128846000D03*
D18*
X155448000Y-127846000D03*
%TD*%
D14*
%TO.C,R23*%
X201500000Y-112000000D03*
X199500000Y-112000000D03*
%TD*%
D15*
%TO.C,C13*%
X187500000Y-68462500D03*
X187500000Y-70537500D03*
%TD*%
D11*
%TO.C,R22*%
X183500000Y-68500000D03*
X183500000Y-70500000D03*
%TD*%
D10*
%TO.C,R21*%
X199500000Y-109000000D03*
X201500000Y-109000000D03*
%TD*%
D16*
%TO.C,R3*%
X181480000Y-104500000D03*
X181480000Y-102500000D03*
%TD*%
D20*
%TO.C,U5*%
X173612500Y-119350000D03*
X173612500Y-120000000D03*
X173612500Y-120650000D03*
X175387500Y-120650000D03*
X175387500Y-120000000D03*
X175387500Y-119350000D03*
%TD*%
D21*
%TO.C,C10*%
X182962500Y-79500000D03*
X185037500Y-79500000D03*
%TD*%
%TO.C,C6*%
X163962500Y-137500000D03*
X166037500Y-137500000D03*
%TD*%
D14*
%TO.C,R5*%
X161000000Y-137500000D03*
X159000000Y-137500000D03*
%TD*%
D11*
%TO.C,R8*%
X185000000Y-83190000D03*
X185000000Y-85190000D03*
%TD*%
D17*
%TO.C,C14*%
X206537500Y-109000000D03*
X204462500Y-109000000D03*
%TD*%
D10*
%TO.C,R24*%
X184500000Y-117000000D03*
X186500000Y-117000000D03*
%TD*%
D11*
%TO.C,R17*%
X164500000Y-64500000D03*
X164500000Y-66500000D03*
%TD*%
%TO.C,R20*%
X191000000Y-68500000D03*
X191000000Y-70500000D03*
%TD*%
D15*
%TO.C,C12*%
X160480000Y-106462500D03*
X160480000Y-108537500D03*
%TD*%
%TO.C,C9*%
X156480000Y-95462500D03*
X156480000Y-97537500D03*
%TD*%
D22*
%TO.C,C3*%
X163747000Y-74305000D03*
X163747000Y-72230000D03*
%TD*%
D15*
%TO.C,C11*%
X155980000Y-106462500D03*
X155980000Y-108537500D03*
%TD*%
D23*
%TO.C,U1*%
X160297000Y-79367500D03*
X161247000Y-79367500D03*
X162197000Y-79367500D03*
X162197000Y-77092500D03*
X160297000Y-77092500D03*
%TD*%
D10*
%TO.C,R13*%
X171500000Y-74000000D03*
X173500000Y-74000000D03*
%TD*%
D21*
%TO.C,C8*%
X191462500Y-101652342D03*
X193537500Y-101652342D03*
%TD*%
D15*
%TO.C,C1*%
X157247000Y-78192500D03*
X157247000Y-80267500D03*
%TD*%
D24*
%TO.C,U3*%
X163980000Y-102730000D03*
X163980000Y-104000000D03*
X163980000Y-105270000D03*
X163980000Y-106540000D03*
X163980000Y-107810000D03*
X163980000Y-109080000D03*
X163980000Y-110350000D03*
X168930000Y-110350000D03*
X168930000Y-109080000D03*
X168930000Y-107810000D03*
X168930000Y-106540000D03*
X168930000Y-105270000D03*
X168930000Y-104000000D03*
X168930000Y-102730000D03*
%TD*%
D11*
%TO.C,R16*%
X168000000Y-64500000D03*
X168000000Y-66500000D03*
%TD*%
D12*
%TO.C,D4*%
X178000000Y-63650000D03*
X178000000Y-60350000D03*
%TD*%
D16*
%TO.C,R7*%
X172480000Y-104500000D03*
X172480000Y-102500000D03*
%TD*%
D10*
%TO.C,R14*%
X151480000Y-115000000D03*
X153480000Y-115000000D03*
%TD*%
D25*
%TO.C,D2*%
X177330000Y-108000000D03*
X180630000Y-108000000D03*
%TD*%
D10*
%TO.C,R1*%
X169480000Y-99500000D03*
X171480000Y-99500000D03*
%TD*%
D17*
%TO.C,C5*%
X177017500Y-99500000D03*
X174942500Y-99500000D03*
%TD*%
D16*
%TO.C,R10*%
X160480000Y-104000000D03*
X160480000Y-102000000D03*
%TD*%
D10*
%TO.C,R2*%
X177480000Y-111500000D03*
X179480000Y-111500000D03*
%TD*%
%TO.C,R19*%
X161000000Y-60500000D03*
X163000000Y-60500000D03*
%TD*%
M02*
